<?xml version="1.0" standalone="no"?>
<svg width="567.429" height="409.712" viewBox="0 0 567.429 409.712" xmlns="http://www.w3.org/2000/svg" shape-rendering="crispEdges">
<title>
figure.svg
</title>
<desc>
Creator: ROOT Version 6.22/00
CreationDate: Fri Mar 19 12:07:28 2021</desc>
<defs>
</defs>
<rect x="0.5" y="0" width="566.929" height="409.212" fill="white"/>
<rect x="0.5" y="0" width="566.929" height="409.212" fill="white"/>
<rect x="91.2087" y="20.4606" width="447.874" height="323.277" fill="white"/>
<rect x="91.2087" y="20.4606" width="447.874" height="323.277" fill="none" stroke="black"/>
<rect x="91.2087" y="20.4606" width="447.874" height="323.277" fill="white"/>
<rect x="91.2087" y="20.4606" width="447.874" height="323.277" fill="none" stroke="black"/>
<path d="M91.2087,343.738h 447.874" fill="none" stroke="black"/>
<path d="M91.2087,334.04v 9.69832" fill="none" stroke="black"/>
<path d="M102.406,338.889v 4.84916" fill="none" stroke="black"/>
<path d="M113.602,338.889v 4.84916" fill="none" stroke="black"/>
<path d="M124.799,338.889v 4.84916" fill="none" stroke="black"/>
<path d="M135.996,338.889v 4.84916" fill="none" stroke="black"/>
<path d="M147.193,334.04v 9.69832" fill="none" stroke="black"/>
<path d="M158.39,338.889v 4.84916" fill="none" stroke="black"/>
<path d="M169.587,338.889v 4.84916" fill="none" stroke="black"/>
<path d="M180.783,338.889v 4.84916" fill="none" stroke="black"/>
<path d="M191.98,338.889v 4.84916" fill="none" stroke="black"/>
<path d="M203.177,334.04v 9.69832" fill="none" stroke="black"/>
<path d="M214.374,338.889v 4.84916" fill="none" stroke="black"/>
<path d="M225.571,338.889v 4.84916" fill="none" stroke="black"/>
<path d="M236.768,338.889v 4.84916" fill="none" stroke="black"/>
<path d="M247.965,338.889v 4.84916" fill="none" stroke="black"/>
<path d="M259.161,334.04v 9.69832" fill="none" stroke="black"/>
<path d="M270.358,338.889v 4.84916" fill="none" stroke="black"/>
<path d="M281.555,338.889v 4.84916" fill="none" stroke="black"/>
<path d="M292.752,338.889v 4.84916" fill="none" stroke="black"/>
<path d="M303.949,338.889v 4.84916" fill="none" stroke="black"/>
<path d="M315.146,334.04v 9.69832" fill="none" stroke="black"/>
<path d="M326.343,338.889v 4.84916" fill="none" stroke="black"/>
<path d="M337.539,338.889v 4.84916" fill="none" stroke="black"/>
<path d="M348.736,338.889v 4.84916" fill="none" stroke="black"/>
<path d="M359.933,338.889v 4.84916" fill="none" stroke="black"/>
<path d="M371.13,334.04v 9.69832" fill="none" stroke="black"/>
<path d="M382.327,338.889v 4.84916" fill="none" stroke="black"/>
<path d="M393.524,338.889v 4.84916" fill="none" stroke="black"/>
<path d="M404.72,338.889v 4.84916" fill="none" stroke="black"/>
<path d="M415.917,338.889v 4.84916" fill="none" stroke="black"/>
<path d="M427.114,334.04v 9.69832" fill="none" stroke="black"/>
<path d="M438.311,338.889v 4.84916" fill="none" stroke="black"/>
<path d="M449.508,338.889v 4.84916" fill="none" stroke="black"/>
<path d="M460.705,338.889v 4.84916" fill="none" stroke="black"/>
<path d="M471.902,338.889v 4.84916" fill="none" stroke="black"/>
<path d="M483.098,334.04v 9.69832" fill="none" stroke="black"/>
<path d="M494.295,338.889v 4.84916" fill="none" stroke="black"/>
<path d="M505.492,338.889v 4.84916" fill="none" stroke="black"/>
<path d="M516.689,338.889v 4.84916" fill="none" stroke="black"/>
<path d="M527.886,338.889v 4.84916" fill="none" stroke="black"/>
<path d="M539.083,334.04v 9.69832" fill="none" stroke="black"/>
<text xml:space="preserve" x="90.0151" y="361.613" fill="black" font-size="19.4015" font-family="Helvetica">4</text>
<text xml:space="preserve" x="80.069" y="361.613" fill="black" font-size="19.4015" font-family="Times">&#8722;</text>
<text xml:space="preserve" x="146.85" y="361.613" fill="black" font-size="19.4015" font-family="Helvetica">3</text>
<text xml:space="preserve" x="136.194" y="361.613" fill="black" font-size="19.4015" font-family="Times">&#8722;</text>
<text xml:space="preserve" x="202.975" y="361.613" fill="black" font-size="19.4015" font-family="Helvetica">2</text>
<text xml:space="preserve" x="192.318" y="361.613" fill="black" font-size="19.4015" font-family="Times">&#8722;</text>
<text xml:space="preserve" x="260.52" y="361.613" fill="black" font-size="19.4015" font-family="Helvetica">1</text>
<text xml:space="preserve" x="249.864" y="361.613" fill="black" font-size="19.4015" font-family="Times">&#8722;</text>
<text xml:space="preserve" x="309.54" y="361.613" fill="black" font-size="19.4015" font-family="Helvetica">0</text>
<text xml:space="preserve" x="367.086" y="361.613" fill="black" font-size="19.4015" font-family="Helvetica">1</text>
<text xml:space="preserve" x="421.789" y="361.613" fill="black" font-size="19.4015" font-family="Helvetica">2</text>
<text xml:space="preserve" x="477.914" y="361.613" fill="black" font-size="19.4015" font-family="Helvetica">3</text>
<text xml:space="preserve" x="533.328" y="361.613" fill="black" font-size="19.4015" font-family="Helvetica">4</text>
<text xml:space="preserve" x="472.941" y="395.003" fill="black" font-size="19.4015" font-family="Helvetica">X [GeV]</text>
<path d="M91.2087,20.4606h 447.874" fill="none" stroke="black"/>
<path d="M91.2087,30.1589v -9.69832" fill="none" stroke="black"/>
<path d="M102.406,25.3098v -4.84916" fill="none" stroke="black"/>
<path d="M113.602,25.3098v -4.84916" fill="none" stroke="black"/>
<path d="M124.799,25.3098v -4.84916" fill="none" stroke="black"/>
<path d="M135.996,25.3098v -4.84916" fill="none" stroke="black"/>
<path d="M147.193,30.1589v -9.69832" fill="none" stroke="black"/>
<path d="M158.39,25.3098v -4.84916" fill="none" stroke="black"/>
<path d="M169.587,25.3098v -4.84916" fill="none" stroke="black"/>
<path d="M180.783,25.3098v -4.84916" fill="none" stroke="black"/>
<path d="M191.98,25.3098v -4.84916" fill="none" stroke="black"/>
<path d="M203.177,30.1589v -9.69832" fill="none" stroke="black"/>
<path d="M214.374,25.3098v -4.84916" fill="none" stroke="black"/>
<path d="M225.571,25.3098v -4.84916" fill="none" stroke="black"/>
<path d="M236.768,25.3098v -4.84916" fill="none" stroke="black"/>
<path d="M247.965,25.3098v -4.84916" fill="none" stroke="black"/>
<path d="M259.161,30.1589v -9.69832" fill="none" stroke="black"/>
<path d="M270.358,25.3098v -4.84916" fill="none" stroke="black"/>
<path d="M281.555,25.3098v -4.84916" fill="none" stroke="black"/>
<path d="M292.752,25.3098v -4.84916" fill="none" stroke="black"/>
<path d="M303.949,25.3098v -4.84916" fill="none" stroke="black"/>
<path d="M315.146,30.1589v -9.69832" fill="none" stroke="black"/>
<path d="M326.343,25.3098v -4.84916" fill="none" stroke="black"/>
<path d="M337.539,25.3098v -4.84916" fill="none" stroke="black"/>
<path d="M348.736,25.3098v -4.84916" fill="none" stroke="black"/>
<path d="M359.933,25.3098v -4.84916" fill="none" stroke="black"/>
<path d="M371.13,30.1589v -9.69832" fill="none" stroke="black"/>
<path d="M382.327,25.3098v -4.84916" fill="none" stroke="black"/>
<path d="M393.524,25.3098v -4.84916" fill="none" stroke="black"/>
<path d="M404.72,25.3098v -4.84916" fill="none" stroke="black"/>
<path d="M415.917,25.3098v -4.84916" fill="none" stroke="black"/>
<path d="M427.114,30.1589v -9.69832" fill="none" stroke="black"/>
<path d="M438.311,25.3098v -4.84916" fill="none" stroke="black"/>
<path d="M449.508,25.3098v -4.84916" fill="none" stroke="black"/>
<path d="M460.705,25.3098v -4.84916" fill="none" stroke="black"/>
<path d="M471.902,25.3098v -4.84916" fill="none" stroke="black"/>
<path d="M483.098,30.1589v -9.69832" fill="none" stroke="black"/>
<path d="M494.295,25.3098v -4.84916" fill="none" stroke="black"/>
<path d="M505.492,25.3098v -4.84916" fill="none" stroke="black"/>
<path d="M516.689,25.3098v -4.84916" fill="none" stroke="black"/>
<path d="M527.886,25.3098v -4.84916" fill="none" stroke="black"/>
<path d="M539.083,30.1589v -9.69832" fill="none" stroke="black"/>
<path d="M91.2087,343.738v -323.277" fill="none" stroke="black"/>
<path d="M104.645,343.738h -13.4362" fill="none" stroke="black"/>
<path d="M97.9268,332.192h -6.71811" fill="none" stroke="black"/>
<path d="M97.9268,320.647h -6.71811" fill="none" stroke="black"/>
<path d="M97.9268,309.101h -6.71811" fill="none" stroke="black"/>
<path d="M97.9268,297.556h -6.71811" fill="none" stroke="black"/>
<path d="M104.645,286.01h -13.4362" fill="none" stroke="black"/>
<path d="M97.9268,274.464h -6.71811" fill="none" stroke="black"/>
<path d="M97.9268,262.919h -6.71811" fill="none" stroke="black"/>
<path d="M97.9268,251.373h -6.71811" fill="none" stroke="black"/>
<path d="M97.9268,239.827h -6.71811" fill="none" stroke="black"/>
<path d="M104.645,228.282h -13.4362" fill="none" stroke="black"/>
<path d="M97.9268,216.736h -6.71811" fill="none" stroke="black"/>
<path d="M97.9268,205.191h -6.71811" fill="none" stroke="black"/>
<path d="M97.9268,193.645h -6.71811" fill="none" stroke="black"/>
<path d="M97.9268,182.099h -6.71811" fill="none" stroke="black"/>
<path d="M104.645,170.554h -13.4362" fill="none" stroke="black"/>
<path d="M97.9268,159.008h -6.71811" fill="none" stroke="black"/>
<path d="M97.9268,147.462h -6.71811" fill="none" stroke="black"/>
<path d="M97.9268,135.917h -6.71811" fill="none" stroke="black"/>
<path d="M97.9268,124.371h -6.71811" fill="none" stroke="black"/>
<path d="M104.645,112.826h -13.4362" fill="none" stroke="black"/>
<path d="M97.9268,101.28h -6.71811" fill="none" stroke="black"/>
<path d="M97.9268,89.7344h -6.71811" fill="none" stroke="black"/>
<path d="M97.9268,78.1887h -6.71811" fill="none" stroke="black"/>
<path d="M97.9268,66.6431h -6.71811" fill="none" stroke="black"/>
<path d="M104.645,55.0975h -13.4362" fill="none" stroke="black"/>
<path d="M104.645,55.0975h -13.4362" fill="none" stroke="black"/>
<path d="M97.9268,43.5518h -6.71811" fill="none" stroke="black"/>
<path d="M97.9268,32.0062h -6.71811" fill="none" stroke="black"/>
<path d="M97.9268,20.4606h -6.71811" fill="none" stroke="black"/>
<text xml:space="preserve" x="77.9377" y="350.246" fill="black" font-size="19.4015" font-family="Helvetica">0</text>
<text xml:space="preserve" x="67.2811" y="292.7" fill="black" font-size="19.4015" font-family="Helvetica">50</text>
<text xml:space="preserve" x="56.6246" y="235.155" fill="black" font-size="19.4015" font-family="Helvetica">100</text>
<text xml:space="preserve" x="56.6246" y="177.609" fill="black" font-size="19.4015" font-family="Helvetica">150</text>
<text xml:space="preserve" x="56.6246" y="119.354" fill="black" font-size="19.4015" font-family="Helvetica">200</text>
<text xml:space="preserve" x="56.6246" y="61.8081" fill="black" font-size="19.4015" font-family="Helvetica">250</text>
<g transform="rotate(-90,33.8906,78.1481)">
<text xml:space="preserve" x="33.8906" y="78.1481" fill="black" font-size="19.4015" font-family="Helvetica">Events</text>
</g>
<path d="M539.083,343.738v -323.277" fill="none" stroke="black"/>
<path d="M525.646,343.738h 13.4362" fill="none" stroke="black"/>
<path d="M532.365,332.192h 6.71811" fill="none" stroke="black"/>
<path d="M532.365,320.647h 6.71811" fill="none" stroke="black"/>
<path d="M532.365,309.101h 6.71811" fill="none" stroke="black"/>
<path d="M532.365,297.556h 6.71811" fill="none" stroke="black"/>
<path d="M525.646,286.01h 13.4362" fill="none" stroke="black"/>
<path d="M532.365,274.464h 6.71811" fill="none" stroke="black"/>
<path d="M532.365,262.919h 6.71811" fill="none" stroke="black"/>
<path d="M532.365,251.373h 6.71811" fill="none" stroke="black"/>
<path d="M532.365,239.827h 6.71811" fill="none" stroke="black"/>
<path d="M525.646,228.282h 13.4362" fill="none" stroke="black"/>
<path d="M532.365,216.736h 6.71811" fill="none" stroke="black"/>
<path d="M532.365,205.191h 6.71811" fill="none" stroke="black"/>
<path d="M532.365,193.645h 6.71811" fill="none" stroke="black"/>
<path d="M532.365,182.099h 6.71811" fill="none" stroke="black"/>
<path d="M525.646,170.554h 13.4362" fill="none" stroke="black"/>
<path d="M532.365,159.008h 6.71811" fill="none" stroke="black"/>
<path d="M532.365,147.462h 6.71811" fill="none" stroke="black"/>
<path d="M532.365,135.917h 6.71811" fill="none" stroke="black"/>
<path d="M532.365,124.371h 6.71811" fill="none" stroke="black"/>
<path d="M525.646,112.826h 13.4362" fill="none" stroke="black"/>
<path d="M532.365,101.28h 6.71811" fill="none" stroke="black"/>
<path d="M532.365,89.7344h 6.71811" fill="none" stroke="black"/>
<path d="M532.365,78.1887h 6.71811" fill="none" stroke="black"/>
<path d="M532.365,66.6431h 6.71811" fill="none" stroke="black"/>
<path d="M525.646,55.0975h 13.4362" fill="none" stroke="black"/>
<path d="M525.646,55.0975h 13.4362" fill="none" stroke="black"/>
<path d="M532.365,43.5518h 6.71811" fill="none" stroke="black"/>
<path d="M532.365,32.0062h 6.71811" fill="none" stroke="black"/>
<path d="M532.365,20.4606h 6.71811" fill="none" stroke="black"/>
<path d="M91.2087,341.429h 6.99803v 2.30912h 20.9941v -1.15456h 6.99803v 1.15456h 6.99803v -1.15456h 6.99803v -4.61825h 6.99803v 2.30912h 6.99803v -6.92737h 13.9961v 5.77281h 6.99803v -8.08194h 6.99803v -5.77281h 6.99803v -6.92737h 6.99803v -13.8547h
 6.99803v -10.3911h 6.99803v 2.30912h 6.99803v -18.473h 6.99803v -17.3184h 6.99803v -25.4004h 6.99803v -8.08194h 6.99803v -38.1006h 6.99803v -12.7002h 6.99803v -20.7821h 6.99803v -6.92737h 6.99803v -20.7821h 6.99803v -24.2458h 6.99803v -24.2458h
 6.99803v -25.4004h 6.99803v 20.7821h 6.99803v -21.9367h 6.99803v 28.8641h 6.99803v -39.2551h 6.99803v 25.4004h 6.99803v 13.8547h 6.99803v 54.2644h 6.99803v -20.7821h 6.99803v 9.2365h 6.99803v 34.6369h 6.99803v -1.15456h 6.99803v 50.8008h 6.99803v
 24.2458h 6.99803v 17.3184h 6.99803v -13.8547h 6.99803v 42.7188h 6.99803v -1.15456h 6.99803v 27.7095h 6.99803v 3.46369h 6.99803v 3.46369h 6.99803v 6.92737h 6.99803v 8.08194h 6.99803v 2.30912h 6.99803v 4.61825h 6.99803v 3.46369h 13.9961v 4.61825h
 6.99803v 1.15456h 13.9961v -3.46369h 6.99803v 3.46369h 6.99803v -1.15456h 13.9961v 1.15456h 6.99803" fill="none" stroke="black" stroke-width="2"/>
<path d="M91.2087,343.738h 447.874" fill="none" stroke="black"/>
<path d="M91.2087,334.04v 9.69832" fill="none" stroke="black"/>
<path d="M102.406,338.889v 4.84916" fill="none" stroke="black"/>
<path d="M113.602,338.889v 4.84916" fill="none" stroke="black"/>
<path d="M124.799,338.889v 4.84916" fill="none" stroke="black"/>
<path d="M135.996,338.889v 4.84916" fill="none" stroke="black"/>
<path d="M147.193,334.04v 9.69832" fill="none" stroke="black"/>
<path d="M158.39,338.889v 4.84916" fill="none" stroke="black"/>
<path d="M169.587,338.889v 4.84916" fill="none" stroke="black"/>
<path d="M180.783,338.889v 4.84916" fill="none" stroke="black"/>
<path d="M191.98,338.889v 4.84916" fill="none" stroke="black"/>
<path d="M203.177,334.04v 9.69832" fill="none" stroke="black"/>
<path d="M214.374,338.889v 4.84916" fill="none" stroke="black"/>
<path d="M225.571,338.889v 4.84916" fill="none" stroke="black"/>
<path d="M236.768,338.889v 4.84916" fill="none" stroke="black"/>
<path d="M247.965,338.889v 4.84916" fill="none" stroke="black"/>
<path d="M259.161,334.04v 9.69832" fill="none" stroke="black"/>
<path d="M270.358,338.889v 4.84916" fill="none" stroke="black"/>
<path d="M281.555,338.889v 4.84916" fill="none" stroke="black"/>
<path d="M292.752,338.889v 4.84916" fill="none" stroke="black"/>
<path d="M303.949,338.889v 4.84916" fill="none" stroke="black"/>
<path d="M315.146,334.04v 9.69832" fill="none" stroke="black"/>
<path d="M326.343,338.889v 4.84916" fill="none" stroke="black"/>
<path d="M337.539,338.889v 4.84916" fill="none" stroke="black"/>
<path d="M348.736,338.889v 4.84916" fill="none" stroke="black"/>
<path d="M359.933,338.889v 4.84916" fill="none" stroke="black"/>
<path d="M371.13,334.04v 9.69832" fill="none" stroke="black"/>
<path d="M382.327,338.889v 4.84916" fill="none" stroke="black"/>
<path d="M393.524,338.889v 4.84916" fill="none" stroke="black"/>
<path d="M404.72,338.889v 4.84916" fill="none" stroke="black"/>
<path d="M415.917,338.889v 4.84916" fill="none" stroke="black"/>
<path d="M427.114,334.04v 9.69832" fill="none" stroke="black"/>
<path d="M438.311,338.889v 4.84916" fill="none" stroke="black"/>
<path d="M449.508,338.889v 4.84916" fill="none" stroke="black"/>
<path d="M460.705,338.889v 4.84916" fill="none" stroke="black"/>
<path d="M471.902,338.889v 4.84916" fill="none" stroke="black"/>
<path d="M483.098,334.04v 9.69832" fill="none" stroke="black"/>
<path d="M494.295,338.889v 4.84916" fill="none" stroke="black"/>
<path d="M505.492,338.889v 4.84916" fill="none" stroke="black"/>
<path d="M516.689,338.889v 4.84916" fill="none" stroke="black"/>
<path d="M527.886,338.889v 4.84916" fill="none" stroke="black"/>
<path d="M539.083,334.04v 9.69832" fill="none" stroke="black"/>
<path d="M91.2087,20.4606h 447.874" fill="none" stroke="black"/>
<path d="M91.2087,30.1589v -9.69832" fill="none" stroke="black"/>
<path d="M102.406,25.3098v -4.84916" fill="none" stroke="black"/>
<path d="M113.602,25.3098v -4.84916" fill="none" stroke="black"/>
<path d="M124.799,25.3098v -4.84916" fill="none" stroke="black"/>
<path d="M135.996,25.3098v -4.84916" fill="none" stroke="black"/>
<path d="M147.193,30.1589v -9.69832" fill="none" stroke="black"/>
<path d="M158.39,25.3098v -4.84916" fill="none" stroke="black"/>
<path d="M169.587,25.3098v -4.84916" fill="none" stroke="black"/>
<path d="M180.783,25.3098v -4.84916" fill="none" stroke="black"/>
<path d="M191.98,25.3098v -4.84916" fill="none" stroke="black"/>
<path d="M203.177,30.1589v -9.69832" fill="none" stroke="black"/>
<path d="M214.374,25.3098v -4.84916" fill="none" stroke="black"/>
<path d="M225.571,25.3098v -4.84916" fill="none" stroke="black"/>
<path d="M236.768,25.3098v -4.84916" fill="none" stroke="black"/>
<path d="M247.965,25.3098v -4.84916" fill="none" stroke="black"/>
<path d="M259.161,30.1589v -9.69832" fill="none" stroke="black"/>
<path d="M270.358,25.3098v -4.84916" fill="none" stroke="black"/>
<path d="M281.555,25.3098v -4.84916" fill="none" stroke="black"/>
<path d="M292.752,25.3098v -4.84916" fill="none" stroke="black"/>
<path d="M303.949,25.3098v -4.84916" fill="none" stroke="black"/>
<path d="M315.146,30.1589v -9.69832" fill="none" stroke="black"/>
<path d="M326.343,25.3098v -4.84916" fill="none" stroke="black"/>
<path d="M337.539,25.3098v -4.84916" fill="none" stroke="black"/>
<path d="M348.736,25.3098v -4.84916" fill="none" stroke="black"/>
<path d="M359.933,25.3098v -4.84916" fill="none" stroke="black"/>
<path d="M371.13,30.1589v -9.69832" fill="none" stroke="black"/>
<path d="M382.327,25.3098v -4.84916" fill="none" stroke="black"/>
<path d="M393.524,25.3098v -4.84916" fill="none" stroke="black"/>
<path d="M404.72,25.3098v -4.84916" fill="none" stroke="black"/>
<path d="M415.917,25.3098v -4.84916" fill="none" stroke="black"/>
<path d="M427.114,30.1589v -9.69832" fill="none" stroke="black"/>
<path d="M438.311,25.3098v -4.84916" fill="none" stroke="black"/>
<path d="M449.508,25.3098v -4.84916" fill="none" stroke="black"/>
<path d="M460.705,25.3098v -4.84916" fill="none" stroke="black"/>
<path d="M471.902,25.3098v -4.84916" fill="none" stroke="black"/>
<path d="M483.098,30.1589v -9.69832" fill="none" stroke="black"/>
<path d="M494.295,25.3098v -4.84916" fill="none" stroke="black"/>
<path d="M505.492,25.3098v -4.84916" fill="none" stroke="black"/>
<path d="M516.689,25.3098v -4.84916" fill="none" stroke="black"/>
<path d="M527.886,25.3098v -4.84916" fill="none" stroke="black"/>
<path d="M539.083,30.1589v -9.69832" fill="none" stroke="black"/>
<path d="M91.2087,343.738v -323.277" fill="none" stroke="black"/>
<path d="M104.645,343.738h -13.4362" fill="none" stroke="black"/>
<path d="M97.9268,332.192h -6.71811" fill="none" stroke="black"/>
<path d="M97.9268,320.647h -6.71811" fill="none" stroke="black"/>
<path d="M97.9268,309.101h -6.71811" fill="none" stroke="black"/>
<path d="M97.9268,297.556h -6.71811" fill="none" stroke="black"/>
<path d="M104.645,286.01h -13.4362" fill="none" stroke="black"/>
<path d="M97.9268,274.464h -6.71811" fill="none" stroke="black"/>
<path d="M97.9268,262.919h -6.71811" fill="none" stroke="black"/>
<path d="M97.9268,251.373h -6.71811" fill="none" stroke="black"/>
<path d="M97.9268,239.827h -6.71811" fill="none" stroke="black"/>
<path d="M104.645,228.282h -13.4362" fill="none" stroke="black"/>
<path d="M97.9268,216.736h -6.71811" fill="none" stroke="black"/>
<path d="M97.9268,205.191h -6.71811" fill="none" stroke="black"/>
<path d="M97.9268,193.645h -6.71811" fill="none" stroke="black"/>
<path d="M97.9268,182.099h -6.71811" fill="none" stroke="black"/>
<path d="M104.645,170.554h -13.4362" fill="none" stroke="black"/>
<path d="M97.9268,159.008h -6.71811" fill="none" stroke="black"/>
<path d="M97.9268,147.462h -6.71811" fill="none" stroke="black"/>
<path d="M97.9268,135.917h -6.71811" fill="none" stroke="black"/>
<path d="M97.9268,124.371h -6.71811" fill="none" stroke="black"/>
<path d="M104.645,112.826h -13.4362" fill="none" stroke="black"/>
<path d="M97.9268,101.28h -6.71811" fill="none" stroke="black"/>
<path d="M97.9268,89.7344h -6.71811" fill="none" stroke="black"/>
<path d="M97.9268,78.1887h -6.71811" fill="none" stroke="black"/>
<path d="M97.9268,66.6431h -6.71811" fill="none" stroke="black"/>
<path d="M104.645,55.0975h -13.4362" fill="none" stroke="black"/>
<path d="M104.645,55.0975h -13.4362" fill="none" stroke="black"/>
<path d="M97.9268,43.5518h -6.71811" fill="none" stroke="black"/>
<path d="M97.9268,32.0062h -6.71811" fill="none" stroke="black"/>
<path d="M97.9268,20.4606h -6.71811" fill="none" stroke="black"/>
<path d="M539.083,343.738v -323.277" fill="none" stroke="black"/>
<path d="M525.646,343.738h 13.4362" fill="none" stroke="black"/>
<path d="M532.365,332.192h 6.71811" fill="none" stroke="black"/>
<path d="M532.365,320.647h 6.71811" fill="none" stroke="black"/>
<path d="M532.365,309.101h 6.71811" fill="none" stroke="black"/>
<path d="M532.365,297.556h 6.71811" fill="none" stroke="black"/>
<path d="M525.646,286.01h 13.4362" fill="none" stroke="black"/>
<path d="M532.365,274.464h 6.71811" fill="none" stroke="black"/>
<path d="M532.365,262.919h 6.71811" fill="none" stroke="black"/>
<path d="M532.365,251.373h 6.71811" fill="none" stroke="black"/>
<path d="M532.365,239.827h 6.71811" fill="none" stroke="black"/>
<path d="M525.646,228.282h 13.4362" fill="none" stroke="black"/>
<path d="M532.365,216.736h 6.71811" fill="none" stroke="black"/>
<path d="M532.365,205.191h 6.71811" fill="none" stroke="black"/>
<path d="M532.365,193.645h 6.71811" fill="none" stroke="black"/>
<path d="M532.365,182.099h 6.71811" fill="none" stroke="black"/>
<path d="M525.646,170.554h 13.4362" fill="none" stroke="black"/>
<path d="M532.365,159.008h 6.71811" fill="none" stroke="black"/>
<path d="M532.365,147.462h 6.71811" fill="none" stroke="black"/>
<path d="M532.365,135.917h 6.71811" fill="none" stroke="black"/>
<path d="M532.365,124.371h 6.71811" fill="none" stroke="black"/>
<path d="M525.646,112.826h 13.4362" fill="none" stroke="black"/>
<path d="M532.365,101.28h 6.71811" fill="none" stroke="black"/>
<path d="M532.365,89.7344h 6.71811" fill="none" stroke="black"/>
<path d="M532.365,78.1887h 6.71811" fill="none" stroke="black"/>
<path d="M532.365,66.6431h 6.71811" fill="none" stroke="black"/>
<path d="M525.646,55.0975h 13.4362" fill="none" stroke="black"/>
<path d="M525.646,55.0975h 13.4362" fill="none" stroke="black"/>
<path d="M532.365,43.5518h 6.71811" fill="none" stroke="black"/>
<path d="M532.365,32.0062h 6.71811" fill="none" stroke="black"/>
<path d="M532.365,20.4606h 6.71811" fill="none" stroke="black"/></svg>
