<?xml version="1.0" standalone="no"?>
<svg width="567.429" height="407.891" viewBox="0 0 567.429 407.891" xmlns="http://www.w3.org/2000/svg" shape-rendering="crispEdges">
<title>
hist.svg
</title>
<desc>
Creator: ROOT Version 6.22/00
CreationDate: Fri Mar 19 12:01:19 2021</desc>
<defs>
</defs>
<rect x="0.5" y="0" width="566.929" height="407.391" fill="white"/>
<rect x="0.5" y="0" width="566.929" height="407.391" fill="white"/>
<rect x="91.2087" y="20.3696" width="447.874" height="321.839" fill="white"/>
<rect x="91.2087" y="20.3696" width="447.874" height="321.839" fill="none" stroke="black"/>
<rect x="91.2087" y="20.3696" width="447.874" height="321.839" fill="white"/>
<rect x="91.2087" y="20.3696" width="447.874" height="321.839" fill="none" stroke="black"/>
<path d="M91.2087,342.209h 447.874" fill="none" stroke="black"/>
<path d="M91.2087,332.554v 9.65517" fill="none" stroke="black"/>
<path d="M100.166,337.381v 4.82759" fill="none" stroke="black"/>
<path d="M109.124,337.381v 4.82759" fill="none" stroke="black"/>
<path d="M118.081,337.381v 4.82759" fill="none" stroke="black"/>
<path d="M127.039,337.381v 4.82759" fill="none" stroke="black"/>
<path d="M135.996,332.554v 9.65517" fill="none" stroke="black"/>
<path d="M144.954,337.381v 4.82759" fill="none" stroke="black"/>
<path d="M153.911,337.381v 4.82759" fill="none" stroke="black"/>
<path d="M162.868,337.381v 4.82759" fill="none" stroke="black"/>
<path d="M171.826,337.381v 4.82759" fill="none" stroke="black"/>
<path d="M180.783,332.554v 9.65517" fill="none" stroke="black"/>
<path d="M189.741,337.381v 4.82759" fill="none" stroke="black"/>
<path d="M198.698,337.381v 4.82759" fill="none" stroke="black"/>
<path d="M207.656,337.381v 4.82759" fill="none" stroke="black"/>
<path d="M216.613,337.381v 4.82759" fill="none" stroke="black"/>
<path d="M225.571,332.554v 9.65517" fill="none" stroke="black"/>
<path d="M234.528,337.381v 4.82759" fill="none" stroke="black"/>
<path d="M243.486,337.381v 4.82759" fill="none" stroke="black"/>
<path d="M252.443,337.381v 4.82759" fill="none" stroke="black"/>
<path d="M261.401,337.381v 4.82759" fill="none" stroke="black"/>
<path d="M270.358,332.554v 9.65517" fill="none" stroke="black"/>
<path d="M279.316,337.381v 4.82759" fill="none" stroke="black"/>
<path d="M288.273,337.381v 4.82759" fill="none" stroke="black"/>
<path d="M297.231,337.381v 4.82759" fill="none" stroke="black"/>
<path d="M306.188,337.381v 4.82759" fill="none" stroke="black"/>
<path d="M315.146,332.554v 9.65517" fill="none" stroke="black"/>
<path d="M324.103,337.381v 4.82759" fill="none" stroke="black"/>
<path d="M333.061,337.381v 4.82759" fill="none" stroke="black"/>
<path d="M342.018,337.381v 4.82759" fill="none" stroke="black"/>
<path d="M350.976,337.381v 4.82759" fill="none" stroke="black"/>
<path d="M359.933,332.554v 9.65517" fill="none" stroke="black"/>
<path d="M368.891,337.381v 4.82759" fill="none" stroke="black"/>
<path d="M377.848,337.381v 4.82759" fill="none" stroke="black"/>
<path d="M386.806,337.381v 4.82759" fill="none" stroke="black"/>
<path d="M395.763,337.381v 4.82759" fill="none" stroke="black"/>
<path d="M404.72,332.554v 9.65517" fill="none" stroke="black"/>
<path d="M413.678,337.381v 4.82759" fill="none" stroke="black"/>
<path d="M422.635,337.381v 4.82759" fill="none" stroke="black"/>
<path d="M431.593,337.381v 4.82759" fill="none" stroke="black"/>
<path d="M440.55,337.381v 4.82759" fill="none" stroke="black"/>
<path d="M449.508,332.554v 9.65517" fill="none" stroke="black"/>
<path d="M458.465,337.381v 4.82759" fill="none" stroke="black"/>
<path d="M467.423,337.381v 4.82759" fill="none" stroke="black"/>
<path d="M476.38,337.381v 4.82759" fill="none" stroke="black"/>
<path d="M485.338,337.381v 4.82759" fill="none" stroke="black"/>
<path d="M494.295,332.554v 9.65517" fill="none" stroke="black"/>
<path d="M503.253,337.381v 4.82759" fill="none" stroke="black"/>
<path d="M512.21,337.381v 4.82759" fill="none" stroke="black"/>
<path d="M521.168,337.381v 4.82759" fill="none" stroke="black"/>
<path d="M530.125,337.381v 4.82759" fill="none" stroke="black"/>
<path d="M539.083,332.554v 9.65517" fill="none" stroke="black"/>
<text xml:space="preserve" x="85.9667" y="360.385" fill="black" font-size="19.449" font-family="Helvetica">0</text>
<text xml:space="preserve" x="132.261" y="360.385" fill="black" font-size="19.449" font-family="Helvetica">1</text>
<text xml:space="preserve" x="175.707" y="360.385" fill="black" font-size="19.449" font-family="Helvetica">2</text>
<text xml:space="preserve" x="220.577" y="360.385" fill="black" font-size="19.449" font-family="Helvetica">3</text>
<text xml:space="preserve" x="264.022" y="360.385" fill="black" font-size="19.449" font-family="Helvetica">4</text>
<text xml:space="preserve" x="309.605" y="360.385" fill="black" font-size="19.449" font-family="Helvetica">5</text>
<text xml:space="preserve" x="354.475" y="360.385" fill="black" font-size="19.449" font-family="Helvetica">6</text>
<text xml:space="preserve" x="398.632" y="360.385" fill="black" font-size="19.449" font-family="Helvetica">7</text>
<text xml:space="preserve" x="444.215" y="360.385" fill="black" font-size="19.449" font-family="Helvetica">8</text>
<text xml:space="preserve" x="489.085" y="360.385" fill="black" font-size="19.449" font-family="Helvetica">9</text>
<text xml:space="preserve" x="528.257" y="360.385" fill="black" font-size="19.449" font-family="Helvetica">10</text>
<text xml:space="preserve" x="472.704" y="393.859" fill="black" font-size="19.449" font-family="Helvetica">X [GeV]</text>
<path d="M91.2087,20.3696h 447.874" fill="none" stroke="black"/>
<path d="M91.2087,30.0247v -9.65517" fill="none" stroke="black"/>
<path d="M100.166,25.1972v -4.82759" fill="none" stroke="black"/>
<path d="M109.124,25.1972v -4.82759" fill="none" stroke="black"/>
<path d="M118.081,25.1972v -4.82759" fill="none" stroke="black"/>
<path d="M127.039,25.1972v -4.82759" fill="none" stroke="black"/>
<path d="M135.996,30.0247v -9.65517" fill="none" stroke="black"/>
<path d="M144.954,25.1972v -4.82759" fill="none" stroke="black"/>
<path d="M153.911,25.1972v -4.82759" fill="none" stroke="black"/>
<path d="M162.868,25.1972v -4.82759" fill="none" stroke="black"/>
<path d="M171.826,25.1972v -4.82759" fill="none" stroke="black"/>
<path d="M180.783,30.0247v -9.65517" fill="none" stroke="black"/>
<path d="M189.741,25.1972v -4.82759" fill="none" stroke="black"/>
<path d="M198.698,25.1972v -4.82759" fill="none" stroke="black"/>
<path d="M207.656,25.1972v -4.82759" fill="none" stroke="black"/>
<path d="M216.613,25.1972v -4.82759" fill="none" stroke="black"/>
<path d="M225.571,30.0247v -9.65517" fill="none" stroke="black"/>
<path d="M234.528,25.1972v -4.82759" fill="none" stroke="black"/>
<path d="M243.486,25.1972v -4.82759" fill="none" stroke="black"/>
<path d="M252.443,25.1972v -4.82759" fill="none" stroke="black"/>
<path d="M261.401,25.1972v -4.82759" fill="none" stroke="black"/>
<path d="M270.358,30.0247v -9.65517" fill="none" stroke="black"/>
<path d="M279.316,25.1972v -4.82759" fill="none" stroke="black"/>
<path d="M288.273,25.1972v -4.82759" fill="none" stroke="black"/>
<path d="M297.231,25.1972v -4.82759" fill="none" stroke="black"/>
<path d="M306.188,25.1972v -4.82759" fill="none" stroke="black"/>
<path d="M315.146,30.0247v -9.65517" fill="none" stroke="black"/>
<path d="M324.103,25.1972v -4.82759" fill="none" stroke="black"/>
<path d="M333.061,25.1972v -4.82759" fill="none" stroke="black"/>
<path d="M342.018,25.1972v -4.82759" fill="none" stroke="black"/>
<path d="M350.976,25.1972v -4.82759" fill="none" stroke="black"/>
<path d="M359.933,30.0247v -9.65517" fill="none" stroke="black"/>
<path d="M368.891,25.1972v -4.82759" fill="none" stroke="black"/>
<path d="M377.848,25.1972v -4.82759" fill="none" stroke="black"/>
<path d="M386.806,25.1972v -4.82759" fill="none" stroke="black"/>
<path d="M395.763,25.1972v -4.82759" fill="none" stroke="black"/>
<path d="M404.72,30.0247v -9.65517" fill="none" stroke="black"/>
<path d="M413.678,25.1972v -4.82759" fill="none" stroke="black"/>
<path d="M422.635,25.1972v -4.82759" fill="none" stroke="black"/>
<path d="M431.593,25.1972v -4.82759" fill="none" stroke="black"/>
<path d="M440.55,25.1972v -4.82759" fill="none" stroke="black"/>
<path d="M449.508,30.0247v -9.65517" fill="none" stroke="black"/>
<path d="M458.465,25.1972v -4.82759" fill="none" stroke="black"/>
<path d="M467.423,25.1972v -4.82759" fill="none" stroke="black"/>
<path d="M476.38,25.1972v -4.82759" fill="none" stroke="black"/>
<path d="M485.338,25.1972v -4.82759" fill="none" stroke="black"/>
<path d="M494.295,30.0247v -9.65517" fill="none" stroke="black"/>
<path d="M503.253,25.1972v -4.82759" fill="none" stroke="black"/>
<path d="M512.21,25.1972v -4.82759" fill="none" stroke="black"/>
<path d="M521.168,25.1972v -4.82759" fill="none" stroke="black"/>
<path d="M530.125,25.1972v -4.82759" fill="none" stroke="black"/>
<path d="M539.083,30.0247v -9.65517" fill="none" stroke="black"/>
<path d="M91.2087,342.209v -321.839" fill="none" stroke="black"/>
<path d="M104.645,342.209h -13.4362" fill="none" stroke="black"/>
<path d="M97.9268,331.083h -6.71811" fill="none" stroke="black"/>
<path d="M97.9268,319.958h -6.71811" fill="none" stroke="black"/>
<path d="M97.9268,308.833h -6.71811" fill="none" stroke="black"/>
<path d="M104.645,297.707h -13.4362" fill="none" stroke="black"/>
<path d="M97.9268,286.582h -6.71811" fill="none" stroke="black"/>
<path d="M97.9268,275.457h -6.71811" fill="none" stroke="black"/>
<path d="M97.9268,264.332h -6.71811" fill="none" stroke="black"/>
<path d="M104.645,253.206h -13.4362" fill="none" stroke="black"/>
<path d="M97.9268,242.081h -6.71811" fill="none" stroke="black"/>
<path d="M97.9268,230.956h -6.71811" fill="none" stroke="black"/>
<path d="M97.9268,219.83h -6.71811" fill="none" stroke="black"/>
<path d="M104.645,208.705h -13.4362" fill="none" stroke="black"/>
<path d="M97.9268,197.58h -6.71811" fill="none" stroke="black"/>
<path d="M97.9268,186.454h -6.71811" fill="none" stroke="black"/>
<path d="M97.9268,175.329h -6.71811" fill="none" stroke="black"/>
<path d="M104.645,164.204h -13.4362" fill="none" stroke="black"/>
<path d="M97.9268,153.079h -6.71811" fill="none" stroke="black"/>
<path d="M97.9268,141.953h -6.71811" fill="none" stroke="black"/>
<path d="M97.9268,130.828h -6.71811" fill="none" stroke="black"/>
<path d="M104.645,119.703h -13.4362" fill="none" stroke="black"/>
<path d="M97.9268,108.577h -6.71811" fill="none" stroke="black"/>
<path d="M97.9268,97.452h -6.71811" fill="none" stroke="black"/>
<path d="M97.9268,86.3267h -6.71811" fill="none" stroke="black"/>
<path d="M104.645,75.2014h -13.4362" fill="none" stroke="black"/>
<path d="M97.9268,64.0761h -6.71811" fill="none" stroke="black"/>
<path d="M97.9268,52.9508h -6.71811" fill="none" stroke="black"/>
<path d="M97.9268,41.8255h -6.71811" fill="none" stroke="black"/>
<path d="M104.645,30.7002h -13.4362" fill="none" stroke="black"/>
<path d="M104.645,342.209h -13.4362" fill="none" stroke="black"/>
<path d="M104.645,30.7002h -13.4362" fill="none" stroke="black"/>
<text xml:space="preserve" x="78.1323" y="348.989" fill="black" font-size="19.449" font-family="Helvetica">0</text>
<text xml:space="preserve" x="56.7656" y="304.119" fill="black" font-size="19.449" font-family="Helvetica">200</text>
<text xml:space="preserve" x="56.7656" y="259.961" fill="black" font-size="19.449" font-family="Helvetica">400</text>
<text xml:space="preserve" x="56.7656" y="215.803" fill="black" font-size="19.449" font-family="Helvetica">600</text>
<text xml:space="preserve" x="56.7656" y="170.933" fill="black" font-size="19.449" font-family="Helvetica">800</text>
<text xml:space="preserve" x="46.0822" y="126.776" fill="black" font-size="19.449" font-family="Helvetica">1000</text>
<text xml:space="preserve" x="46.0822" y="81.9056" fill="black" font-size="19.449" font-family="Helvetica">1200</text>
<text xml:space="preserve" x="46.0822" y="37.7478" fill="black" font-size="19.449" font-family="Helvetica">1400</text>
<g transform="rotate(-90,33.2622,165.236)">
<text xml:space="preserve" x="33.2622" y="165.236" fill="black" font-size="19.449" font-family="Helvetica">Events / 0.2 GeV</text>
</g>
<path d="M539.083,342.209v -321.839" fill="none" stroke="black"/>
<path d="M525.646,342.209h 13.4362" fill="none" stroke="black"/>
<path d="M532.365,331.083h 6.71811" fill="none" stroke="black"/>
<path d="M532.365,319.958h 6.71811" fill="none" stroke="black"/>
<path d="M532.365,308.833h 6.71811" fill="none" stroke="black"/>
<path d="M525.646,297.707h 13.4362" fill="none" stroke="black"/>
<path d="M532.365,286.582h 6.71811" fill="none" stroke="black"/>
<path d="M532.365,275.457h 6.71811" fill="none" stroke="black"/>
<path d="M532.365,264.332h 6.71811" fill="none" stroke="black"/>
<path d="M525.646,253.206h 13.4362" fill="none" stroke="black"/>
<path d="M532.365,242.081h 6.71811" fill="none" stroke="black"/>
<path d="M532.365,230.956h 6.71811" fill="none" stroke="black"/>
<path d="M532.365,219.83h 6.71811" fill="none" stroke="black"/>
<path d="M525.646,208.705h 13.4362" fill="none" stroke="black"/>
<path d="M532.365,197.58h 6.71811" fill="none" stroke="black"/>
<path d="M532.365,186.454h 6.71811" fill="none" stroke="black"/>
<path d="M532.365,175.329h 6.71811" fill="none" stroke="black"/>
<path d="M525.646,164.204h 13.4362" fill="none" stroke="black"/>
<path d="M532.365,153.079h 6.71811" fill="none" stroke="black"/>
<path d="M532.365,141.953h 6.71811" fill="none" stroke="black"/>
<path d="M532.365,130.828h 6.71811" fill="none" stroke="black"/>
<path d="M525.646,119.703h 13.4362" fill="none" stroke="black"/>
<path d="M532.365,108.577h 6.71811" fill="none" stroke="black"/>
<path d="M532.365,97.452h 6.71811" fill="none" stroke="black"/>
<path d="M532.365,86.3267h 6.71811" fill="none" stroke="black"/>
<path d="M525.646,75.2014h 13.4362" fill="none" stroke="black"/>
<path d="M532.365,64.0761h 6.71811" fill="none" stroke="black"/>
<path d="M532.365,52.9508h 6.71811" fill="none" stroke="black"/>
<path d="M532.365,41.8255h 6.71811" fill="none" stroke="black"/>
<path d="M525.646,30.7002h 13.4362" fill="none" stroke="black"/>
<path d="M525.646,342.209h 13.4362" fill="none" stroke="black"/>
<path d="M525.646,30.7002h 13.4362" fill="none" stroke="black"/>
<path d="M91.2087,218.273h 8.95748v 12.2378h 8.95748v -2.00255h 8.95748v 12.2378h 8.95748v 1.33504h 8.95748v -1.11253h 8.95748v 12.9054h 8.95748v 10.4578h 8.95748v -6.00766h 8.95748v 16.4654h 8.95748v -0.445012h 8.95748v -1.33504h 8.95748v -9.56776h
 8.95748v -5.78516h 8.95748v -22.9181h 8.95748v -18.468h 8.95748v -30.7058h 8.95748v -37.826h 8.95748v -30.4833h 8.95748v -26.4782h 8.95748v -18.913h 8.95748v 4.67263h 8.95748v 3.5601h 8.95748v 38.7161h 8.95748v 8.23272h 8.95748v 37.6035h 8.95748v
 26.7007h 8.95748v 27.1457h 8.95748v 38.4935h 8.95748v 19.1355h 8.95748v 24.4757h 8.95748v 10.6803h 8.95748v 9.79027h 8.95748v 0.445012h 8.95748v 3.33759h 8.95748v 2.67007h 8.95748v -3.11508h 8.95748v 2.44757h 17.915v -2.44757h 8.95748v 3.5601h
 8.95748v 2.22506h 8.95748v 2.22506h 8.95748v 0.222506h 8.95748v 1.78005h 8.95748v 3.5601h 8.95748v 2.89258h 8.95748v 0.890024h 8.95748v -2.22506h 8.95748v -1.55754h 8.95748" fill="none" stroke="black" stroke-width="2"/>
<path d="M91.2087,342.209h 447.874" fill="none" stroke="black"/>
<path d="M91.2087,332.554v 9.65517" fill="none" stroke="black"/>
<path d="M100.166,337.381v 4.82759" fill="none" stroke="black"/>
<path d="M109.124,337.381v 4.82759" fill="none" stroke="black"/>
<path d="M118.081,337.381v 4.82759" fill="none" stroke="black"/>
<path d="M127.039,337.381v 4.82759" fill="none" stroke="black"/>
<path d="M135.996,332.554v 9.65517" fill="none" stroke="black"/>
<path d="M144.954,337.381v 4.82759" fill="none" stroke="black"/>
<path d="M153.911,337.381v 4.82759" fill="none" stroke="black"/>
<path d="M162.868,337.381v 4.82759" fill="none" stroke="black"/>
<path d="M171.826,337.381v 4.82759" fill="none" stroke="black"/>
<path d="M180.783,332.554v 9.65517" fill="none" stroke="black"/>
<path d="M189.741,337.381v 4.82759" fill="none" stroke="black"/>
<path d="M198.698,337.381v 4.82759" fill="none" stroke="black"/>
<path d="M207.656,337.381v 4.82759" fill="none" stroke="black"/>
<path d="M216.613,337.381v 4.82759" fill="none" stroke="black"/>
<path d="M225.571,332.554v 9.65517" fill="none" stroke="black"/>
<path d="M234.528,337.381v 4.82759" fill="none" stroke="black"/>
<path d="M243.486,337.381v 4.82759" fill="none" stroke="black"/>
<path d="M252.443,337.381v 4.82759" fill="none" stroke="black"/>
<path d="M261.401,337.381v 4.82759" fill="none" stroke="black"/>
<path d="M270.358,332.554v 9.65517" fill="none" stroke="black"/>
<path d="M279.316,337.381v 4.82759" fill="none" stroke="black"/>
<path d="M288.273,337.381v 4.82759" fill="none" stroke="black"/>
<path d="M297.231,337.381v 4.82759" fill="none" stroke="black"/>
<path d="M306.188,337.381v 4.82759" fill="none" stroke="black"/>
<path d="M315.146,332.554v 9.65517" fill="none" stroke="black"/>
<path d="M324.103,337.381v 4.82759" fill="none" stroke="black"/>
<path d="M333.061,337.381v 4.82759" fill="none" stroke="black"/>
<path d="M342.018,337.381v 4.82759" fill="none" stroke="black"/>
<path d="M350.976,337.381v 4.82759" fill="none" stroke="black"/>
<path d="M359.933,332.554v 9.65517" fill="none" stroke="black"/>
<path d="M368.891,337.381v 4.82759" fill="none" stroke="black"/>
<path d="M377.848,337.381v 4.82759" fill="none" stroke="black"/>
<path d="M386.806,337.381v 4.82759" fill="none" stroke="black"/>
<path d="M395.763,337.381v 4.82759" fill="none" stroke="black"/>
<path d="M404.72,332.554v 9.65517" fill="none" stroke="black"/>
<path d="M413.678,337.381v 4.82759" fill="none" stroke="black"/>
<path d="M422.635,337.381v 4.82759" fill="none" stroke="black"/>
<path d="M431.593,337.381v 4.82759" fill="none" stroke="black"/>
<path d="M440.55,337.381v 4.82759" fill="none" stroke="black"/>
<path d="M449.508,332.554v 9.65517" fill="none" stroke="black"/>
<path d="M458.465,337.381v 4.82759" fill="none" stroke="black"/>
<path d="M467.423,337.381v 4.82759" fill="none" stroke="black"/>
<path d="M476.38,337.381v 4.82759" fill="none" stroke="black"/>
<path d="M485.338,337.381v 4.82759" fill="none" stroke="black"/>
<path d="M494.295,332.554v 9.65517" fill="none" stroke="black"/>
<path d="M503.253,337.381v 4.82759" fill="none" stroke="black"/>
<path d="M512.21,337.381v 4.82759" fill="none" stroke="black"/>
<path d="M521.168,337.381v 4.82759" fill="none" stroke="black"/>
<path d="M530.125,337.381v 4.82759" fill="none" stroke="black"/>
<path d="M539.083,332.554v 9.65517" fill="none" stroke="black"/>
<path d="M91.2087,20.3696h 447.874" fill="none" stroke="black"/>
<path d="M91.2087,30.0247v -9.65517" fill="none" stroke="black"/>
<path d="M100.166,25.1972v -4.82759" fill="none" stroke="black"/>
<path d="M109.124,25.1972v -4.82759" fill="none" stroke="black"/>
<path d="M118.081,25.1972v -4.82759" fill="none" stroke="black"/>
<path d="M127.039,25.1972v -4.82759" fill="none" stroke="black"/>
<path d="M135.996,30.0247v -9.65517" fill="none" stroke="black"/>
<path d="M144.954,25.1972v -4.82759" fill="none" stroke="black"/>
<path d="M153.911,25.1972v -4.82759" fill="none" stroke="black"/>
<path d="M162.868,25.1972v -4.82759" fill="none" stroke="black"/>
<path d="M171.826,25.1972v -4.82759" fill="none" stroke="black"/>
<path d="M180.783,30.0247v -9.65517" fill="none" stroke="black"/>
<path d="M189.741,25.1972v -4.82759" fill="none" stroke="black"/>
<path d="M198.698,25.1972v -4.82759" fill="none" stroke="black"/>
<path d="M207.656,25.1972v -4.82759" fill="none" stroke="black"/>
<path d="M216.613,25.1972v -4.82759" fill="none" stroke="black"/>
<path d="M225.571,30.0247v -9.65517" fill="none" stroke="black"/>
<path d="M234.528,25.1972v -4.82759" fill="none" stroke="black"/>
<path d="M243.486,25.1972v -4.82759" fill="none" stroke="black"/>
<path d="M252.443,25.1972v -4.82759" fill="none" stroke="black"/>
<path d="M261.401,25.1972v -4.82759" fill="none" stroke="black"/>
<path d="M270.358,30.0247v -9.65517" fill="none" stroke="black"/>
<path d="M279.316,25.1972v -4.82759" fill="none" stroke="black"/>
<path d="M288.273,25.1972v -4.82759" fill="none" stroke="black"/>
<path d="M297.231,25.1972v -4.82759" fill="none" stroke="black"/>
<path d="M306.188,25.1972v -4.82759" fill="none" stroke="black"/>
<path d="M315.146,30.0247v -9.65517" fill="none" stroke="black"/>
<path d="M324.103,25.1972v -4.82759" fill="none" stroke="black"/>
<path d="M333.061,25.1972v -4.82759" fill="none" stroke="black"/>
<path d="M342.018,25.1972v -4.82759" fill="none" stroke="black"/>
<path d="M350.976,25.1972v -4.82759" fill="none" stroke="black"/>
<path d="M359.933,30.0247v -9.65517" fill="none" stroke="black"/>
<path d="M368.891,25.1972v -4.82759" fill="none" stroke="black"/>
<path d="M377.848,25.1972v -4.82759" fill="none" stroke="black"/>
<path d="M386.806,25.1972v -4.82759" fill="none" stroke="black"/>
<path d="M395.763,25.1972v -4.82759" fill="none" stroke="black"/>
<path d="M404.72,30.0247v -9.65517" fill="none" stroke="black"/>
<path d="M413.678,25.1972v -4.82759" fill="none" stroke="black"/>
<path d="M422.635,25.1972v -4.82759" fill="none" stroke="black"/>
<path d="M431.593,25.1972v -4.82759" fill="none" stroke="black"/>
<path d="M440.55,25.1972v -4.82759" fill="none" stroke="black"/>
<path d="M449.508,30.0247v -9.65517" fill="none" stroke="black"/>
<path d="M458.465,25.1972v -4.82759" fill="none" stroke="black"/>
<path d="M467.423,25.1972v -4.82759" fill="none" stroke="black"/>
<path d="M476.38,25.1972v -4.82759" fill="none" stroke="black"/>
<path d="M485.338,25.1972v -4.82759" fill="none" stroke="black"/>
<path d="M494.295,30.0247v -9.65517" fill="none" stroke="black"/>
<path d="M503.253,25.1972v -4.82759" fill="none" stroke="black"/>
<path d="M512.21,25.1972v -4.82759" fill="none" stroke="black"/>
<path d="M521.168,25.1972v -4.82759" fill="none" stroke="black"/>
<path d="M530.125,25.1972v -4.82759" fill="none" stroke="black"/>
<path d="M539.083,30.0247v -9.65517" fill="none" stroke="black"/>
<path d="M91.2087,342.209v -321.839" fill="none" stroke="black"/>
<path d="M104.645,342.209h -13.4362" fill="none" stroke="black"/>
<path d="M97.9268,331.083h -6.71811" fill="none" stroke="black"/>
<path d="M97.9268,319.958h -6.71811" fill="none" stroke="black"/>
<path d="M97.9268,308.833h -6.71811" fill="none" stroke="black"/>
<path d="M104.645,297.707h -13.4362" fill="none" stroke="black"/>
<path d="M97.9268,286.582h -6.71811" fill="none" stroke="black"/>
<path d="M97.9268,275.457h -6.71811" fill="none" stroke="black"/>
<path d="M97.9268,264.332h -6.71811" fill="none" stroke="black"/>
<path d="M104.645,253.206h -13.4362" fill="none" stroke="black"/>
<path d="M97.9268,242.081h -6.71811" fill="none" stroke="black"/>
<path d="M97.9268,230.956h -6.71811" fill="none" stroke="black"/>
<path d="M97.9268,219.83h -6.71811" fill="none" stroke="black"/>
<path d="M104.645,208.705h -13.4362" fill="none" stroke="black"/>
<path d="M97.9268,197.58h -6.71811" fill="none" stroke="black"/>
<path d="M97.9268,186.454h -6.71811" fill="none" stroke="black"/>
<path d="M97.9268,175.329h -6.71811" fill="none" stroke="black"/>
<path d="M104.645,164.204h -13.4362" fill="none" stroke="black"/>
<path d="M97.9268,153.079h -6.71811" fill="none" stroke="black"/>
<path d="M97.9268,141.953h -6.71811" fill="none" stroke="black"/>
<path d="M97.9268,130.828h -6.71811" fill="none" stroke="black"/>
<path d="M104.645,119.703h -13.4362" fill="none" stroke="black"/>
<path d="M97.9268,108.577h -6.71811" fill="none" stroke="black"/>
<path d="M97.9268,97.452h -6.71811" fill="none" stroke="black"/>
<path d="M97.9268,86.3267h -6.71811" fill="none" stroke="black"/>
<path d="M104.645,75.2014h -13.4362" fill="none" stroke="black"/>
<path d="M97.9268,64.0761h -6.71811" fill="none" stroke="black"/>
<path d="M97.9268,52.9508h -6.71811" fill="none" stroke="black"/>
<path d="M97.9268,41.8255h -6.71811" fill="none" stroke="black"/>
<path d="M104.645,30.7002h -13.4362" fill="none" stroke="black"/>
<path d="M104.645,342.209h -13.4362" fill="none" stroke="black"/>
<path d="M104.645,30.7002h -13.4362" fill="none" stroke="black"/>
<path d="M539.083,342.209v -321.839" fill="none" stroke="black"/>
<path d="M525.646,342.209h 13.4362" fill="none" stroke="black"/>
<path d="M532.365,331.083h 6.71811" fill="none" stroke="black"/>
<path d="M532.365,319.958h 6.71811" fill="none" stroke="black"/>
<path d="M532.365,308.833h 6.71811" fill="none" stroke="black"/>
<path d="M525.646,297.707h 13.4362" fill="none" stroke="black"/>
<path d="M532.365,286.582h 6.71811" fill="none" stroke="black"/>
<path d="M532.365,275.457h 6.71811" fill="none" stroke="black"/>
<path d="M532.365,264.332h 6.71811" fill="none" stroke="black"/>
<path d="M525.646,253.206h 13.4362" fill="none" stroke="black"/>
<path d="M532.365,242.081h 6.71811" fill="none" stroke="black"/>
<path d="M532.365,230.956h 6.71811" fill="none" stroke="black"/>
<path d="M532.365,219.83h 6.71811" fill="none" stroke="black"/>
<path d="M525.646,208.705h 13.4362" fill="none" stroke="black"/>
<path d="M532.365,197.58h 6.71811" fill="none" stroke="black"/>
<path d="M532.365,186.454h 6.71811" fill="none" stroke="black"/>
<path d="M532.365,175.329h 6.71811" fill="none" stroke="black"/>
<path d="M525.646,164.204h 13.4362" fill="none" stroke="black"/>
<path d="M532.365,153.079h 6.71811" fill="none" stroke="black"/>
<path d="M532.365,141.953h 6.71811" fill="none" stroke="black"/>
<path d="M532.365,130.828h 6.71811" fill="none" stroke="black"/>
<path d="M525.646,119.703h 13.4362" fill="none" stroke="black"/>
<path d="M532.365,108.577h 6.71811" fill="none" stroke="black"/>
<path d="M532.365,97.452h 6.71811" fill="none" stroke="black"/>
<path d="M532.365,86.3267h 6.71811" fill="none" stroke="black"/>
<path d="M525.646,75.2014h 13.4362" fill="none" stroke="black"/>
<path d="M532.365,64.0761h 6.71811" fill="none" stroke="black"/>
<path d="M532.365,52.9508h 6.71811" fill="none" stroke="black"/>
<path d="M532.365,41.8255h 6.71811" fill="none" stroke="black"/>
<path d="M525.646,30.7002h 13.4362" fill="none" stroke="black"/>
<path d="M525.646,342.209h 13.4362" fill="none" stroke="black"/>
<path d="M525.646,30.7002h 13.4362" fill="none" stroke="black"/>
<path d="M91.4326,225.743l 0.447874, 0.00360662l 0.447874, 0.00746705l 0.447874, 0.0113258l 0.447874, 0.0151827l 0.447874, 0.0190373l 0.447874, 0.0228895l 0.447874, 0.0267388l 0.447874, 0.030585l 0.447874, 0.0344279l 0.447874, 0.038267l 0.447874,
 0.0421022l 0.447874, 0.0459331l 0.447874, 0.0497594l 0.447874, 0.0535807l 0.447874, 0.0573969l 0.447874, 0.0612076l 0.447874, 0.0650124l 0.447874, 0.068811l 0.447874, 0.0726032l 0.447874, 0.0763886l 0.447874, 0.0801668l 0.447874, 0.0839376l
 0.447874, 0.0877006l 0.447874, 0.0914555l 0.447874, 0.0952019l 0.447874, 0.0989396l 0.447874, 0.102668l 0.447874, 0.106387l 0.447874, 0.110096l 0.447874, 0.113795l 0.447874, 0.117484l 0.447874, 0.121161l 0.447874, 0.124827l 0.447874, 0.128482l
 0.447874, 0.132125l 0.447874, 0.135755l 0.447874, 0.139372l 0.447874, 0.142976l 0.447874, 0.146567l 0.447874, 0.150144l 0.447874, 0.153706l 0.447874, 0.157254l 0.447874, 0.160786l 0.447874, 0.164303l 0.447874, 0.167804l 0.447874, 0.171289l 0.447874,
 0.174756l 0.447874, 0.178207l 0.447874, 0.18164" fill="none" stroke="#cc0000" stroke-width="3"/>
<path d="M113.378,230.364l 0.447874, 0.185054l 0.447874, 0.18845l 0.447874, 0.191827l 0.447874, 0.195185l 0.447874, 0.198522l 0.447874, 0.201839l 0.447874, 0.205136l 0.447874, 0.208411l 0.447874, 0.211663l 0.447874, 0.214894l 0.447874, 0.218102l
 0.447874, 0.221286l 0.447874, 0.224446l 0.447874, 0.227582l 0.447874, 0.230694l 0.447874, 0.233779l 0.447874, 0.236839l 0.447874, 0.239872l 0.447874, 0.242878l 0.447874, 0.245856l 0.447874, 0.248806l 0.447874, 0.251727l 0.447874, 0.254619l 0.447874,
 0.25748l 0.447874, 0.260312l 0.447874, 0.263111l 0.447874, 0.26588l 0.447874, 0.268615l 0.447874, 0.271318l 0.447874, 0.273987l 0.447874, 0.276621l 0.447874, 0.279221l 0.447874, 0.281784l 0.447874, 0.284312l 0.447874, 0.286802l 0.447874, 0.289255l
 0.447874, 0.291669l 0.447874, 0.294044l 0.447874, 0.296379l 0.447874, 0.298674l 0.447874, 0.300927l 0.447874, 0.303138l 0.447874, 0.305307l 0.447874, 0.307432l 0.447874, 0.309512l 0.447874, 0.311548l 0.447874, 0.313538l 0.447874, 0.31548l 0.447874,
 0.317376" fill="none" stroke="#cc0000" stroke-width="3"/>
<path d="M135.324,242.966l 0.447874, 0.319223l 0.447874, 0.321021l 0.447874, 0.322769l 0.447874, 0.324466l 0.447874, 0.326112l 0.447874, 0.327705l 0.447874, 0.329245l 0.447874, 0.33073l 0.447874, 0.332161l 0.447874, 0.333535l 0.447874, 0.334853l
 0.447874, 0.336112l 0.447874, 0.337313l 0.447874, 0.338455l 0.447874, 0.339535l 0.447874, 0.340555l 0.447874, 0.341511l 0.447874, 0.342405l 0.447874, 0.343234l 0.447874, 0.343997l 0.447874, 0.344694l 0.447874, 0.345324l 0.447874, 0.345886l 0.447874,
 0.346379l 0.447874, 0.346801l 0.447874, 0.347151l 0.447874, 0.34743l 0.447874, 0.347635l 0.447874, 0.347766l 0.447874, 0.347822l 0.447874, 0.347801l 0.447874, 0.347702l 0.447874, 0.347525l 0.447874, 0.347269l 0.447874, 0.346932l 0.447874, 0.346514l
 0.447874, 0.346013l 0.447874, 0.345428l 0.447874, 0.344758l 0.447874, 0.344002l 0.447874, 0.34316l 0.447874, 0.34223l 0.447874, 0.341211l 0.447874, 0.340101l 0.447874, 0.338901l 0.447874, 0.337608l 0.447874, 0.336223l 0.447874, 0.334743l 0.447874,
 0.333168" fill="none" stroke="#cc0000" stroke-width="3"/>
<path d="M157.27,259.609l 0.447874, 0.331496l 0.447874, 0.329727l 0.447874, 0.32786l 0.447874, 0.325893l 0.447874, 0.323826l 0.447874, 0.321658l 0.447874, 0.319387l 0.447874, 0.317013l 0.447874, 0.314534l 0.447874, 0.31195l 0.447874, 0.30926l
 0.447874, 0.306462l 0.447874, 0.303556l 0.447874, 0.300541l 0.447874, 0.297416l 0.447874, 0.29418l 0.447874, 0.290832l 0.447874, 0.287372l 0.447874, 0.283798l 0.447874, 0.280109l 0.447874, 0.276305l 0.447874, 0.272386l 0.447874, 0.268349l 0.447874,
 0.264196l 0.447874, 0.259923l 0.447874, 0.255532l 0.447874, 0.251022l 0.447874, 0.24639l 0.447874, 0.241638l 0.447874, 0.236765l 0.447874, 0.231769l 0.447874, 0.226651l 0.447874, 0.221409l 0.447874, 0.216044l 0.447874, 0.210555l 0.447874, 0.204941l
 0.447874, 0.199202l 0.447874, 0.193338l 0.447874, 0.187348l 0.447874, 0.181232l 0.447874, 0.17499l 0.447874, 0.168622l 0.447874, 0.162127l 0.447874, 0.155505l 0.447874, 0.148756l 0.447874, 0.141881l 0.447874, 0.134878l 0.447874, 0.127749l 0.447874,
 0.120493" fill="none" stroke="#cc0000" stroke-width="3"/>
<path d="M179.216,271.766l 0.447874, 0.113111l 0.447874, 0.105602l 0.447874, 0.0979663l 0.447874, 0.090205l 0.447874, 0.082318l 0.447874, 0.0743057l 0.447874, 0.0661686l 0.447874, 0.057907l 0.447874, 0.0495216l 0.447874, 0.0410129l 0.447874,
 0.0323815l 0.447874, 0.0236282l 0.447874, 0.0147536l 0.447874, 0.00575861l 0.447874, -0.00335592l 0.447874, -0.0125891l 0.447874, -0.0219399l 0.447874, -0.0314073l 0.447874, -0.0409902l 0.447874, -0.0506874l 0.447874, -0.0604977l 0.447874,
 -0.0704198l 0.447874, -0.0804524l 0.447874, -0.090594l 0.447874, -0.100843l 0.447874, -0.111198l 0.447874, -0.121658l 0.447874, -0.13222l 0.447874, -0.142883l 0.447874, -0.153645l 0.447874, -0.164505l 0.447874, -0.175459l 0.447874, -0.186507l
 0.447874, -0.197647l 0.447874, -0.208875l 0.447874, -0.220189l 0.447874, -0.231589l 0.447874, -0.24307l 0.447874, -0.254631l 0.447874, -0.266269l 0.447874, -0.277982l 0.447874, -0.289767l 0.447874, -0.30162l 0.447874, -0.31354l 0.447874, -0.325524l
 0.447874, -0.337568l 0.447874, -0.34967l 0.447874, -0.361827l 0.447874, -0.374035" fill="none" stroke="#cc0000" stroke-width="3"/>
<path d="M201.162,266.314l 0.447874, -0.386291l 0.447874, -0.398592l 0.447874, -0.410935l 0.447874, -0.423315l 0.447874, -0.435731l 0.447874, -0.448178l 0.447874, -0.460652l 0.447874, -0.473151l 0.447874, -0.485669l 0.447874, -0.498204l 0.447874,
 -0.510752l 0.447874, -0.523308l 0.447874, -0.53587l 0.447874, -0.548432l 0.447874, -0.56099l 0.447874, -0.573541l 0.447874, -0.58608l 0.447874, -0.598604l 0.447874, -0.611107l 0.447874, -0.623586l 0.447874, -0.636036l 0.447874, -0.648452l 0.447874,
 -0.660831l 0.447874, -0.673167l 0.447874, -0.685456l 0.447874, -0.697694l 0.447874, -0.709875l 0.447874, -0.721996l 0.447874, -0.734051l 0.447874, -0.746035l 0.447874, -0.757945l 0.447874, -0.769774l 0.447874, -0.781519l 0.447874, -0.793174l
 0.447874, -0.804734l 0.447874, -0.816195l 0.447874, -0.827551l 0.447874, -0.838798l 0.447874, -0.84993l 0.447874, -0.860944l 0.447874, -0.871833l 0.447874, -0.882592l 0.447874, -0.893218l 0.447874, -0.903704l 0.447874, -0.914045l 0.447874,
 -0.924238l 0.447874, -0.934276l 0.447874, -0.944154l 0.447874, -0.953869" fill="none" stroke="#cc0000" stroke-width="3"/>
<path d="M223.108,232.985l 0.447874, -0.963414l 0.447874, -0.972785l 0.447874, -0.981977l 0.447874, -0.990985l 0.447874, -0.999804l 0.447874, -1.00843l 0.447874, -1.01686l 0.447874, -1.02508l 0.447874, -1.0331l 0.447874, -1.0409l 0.447874, -1.04848l
 0.447874, -1.05585l 0.447874, -1.06298l 0.447874, -1.06989l 0.447874, -1.07656l 0.447874, -1.08299l 0.447874, -1.08917l 0.447874, -1.09511l 0.447874, -1.10079l 0.447874, -1.35857l 0.447874, -1.84884l 0.447874, -1.84898l 0.447874, -1.84882l 0.447874,
 -1.84836l 0.447874, -1.8476l 0.447874, -1.84653l 0.447874, -1.84514l 0.447874, -1.84345l 0.447874, -1.84143l 0.447874, -1.83909l 0.447874, -1.83643l 0.447874, -1.83345l 0.447874, -1.83013l 0.447874, -1.82649l 0.447874, -1.82251l 0.447874, -1.81819l
 0.447874, -1.81353l 0.447874, -1.80854l 0.447874, -1.8032l 0.447874, -1.79751l 0.447874, -1.79148l 0.447874, -1.78511l 0.447874, -1.77838l 0.447874, -1.7713l 0.447874, -1.76387l 0.447874, -1.75608l 0.447874, -1.74795l 0.447874, -1.73945l 0.447874,
 -1.7306" fill="none" stroke="#cc0000" stroke-width="3"/>
<path d="M245.053,159.399l 0.447874, -1.72139l 0.447874, -1.71183l 0.447874, -1.70191l 0.447874, -1.69163l 0.447874, -1.68099l 0.447874, -1.67l 0.447874, -1.65864l 0.447874, -1.64693l 0.447874, -1.63487l 0.447874, -1.62245l 0.447874, -1.60967l
 0.447874, -1.59654l 0.447874, -1.58305l 0.447874, -1.56922l 0.447874, -1.55503l 0.447874, -1.5405l 0.447874, -1.52562l 0.447874, -1.51039l 0.447874, -1.49482l 0.447874, -1.47891l 0.447874, -1.46266l 0.447874, -1.44608l 0.447874, -1.42916l 0.447874,
 -1.41191l 0.447874, -1.39433l 0.447874, -1.37643l 0.447874, -1.3582l 0.447874, -1.33966l 0.447874, -1.32081l 0.447874, -1.30164l 0.447874, -1.28216l 0.447874, -1.26238l 0.447874, -1.24231l 0.447874, -1.22193l 0.447874, -1.20127l 0.447874, -1.18032l
 0.447874, -1.15909l 0.447874, -1.13758l 0.447874, -1.1158l 0.447874, -1.09375l 0.447874, -1.07144l 0.447874, -1.04887l 0.447874, -1.02605l 0.447874, -1.00299l 0.447874, -0.979687l 0.447874, -0.956148l 0.447874, -0.932381l 0.447874, -0.908392l
 0.447874, -0.884185" fill="none" stroke="#cc0000" stroke-width="3"/>
<path d="M266.999,92.6473l 0.447874, -0.859769l 0.447874, -0.835148l 0.447874, -0.810329l 0.447874, -0.785319l 0.447874, -0.760125l 0.447874, -0.734752l 0.447874, -0.709208l 0.447874, -0.683499l 0.447874, -0.657632l 0.447874, -0.631615l 0.447874,
 -0.605455l 0.447874, -0.579157l 0.447874, -0.552731l 0.447874, -0.526182l 0.447874, -0.499519l 0.447874, -0.472748l 0.447874, -0.445878l 0.447874, -0.418915l 0.447874, -0.391867l 0.447874, -0.364741l 0.447874, -0.337546l 0.447874, -0.310289l
 0.447874, -0.282977l 0.447874, -0.255618l 0.447874, -0.22822l 0.447874, -0.200791l 0.447874, -0.173339l 0.447874, -0.14587l 0.447874, -0.118394l 0.447874, -0.090917l 0.447874, -0.0634476l 0.447874, -0.0359936l 0.447874, -0.00856251l 0.447874,
 0.0188378l 0.447874, 0.0461996l 0.447874, 0.0735152l 0.447874, 0.100777l 0.447874, 0.127977l 0.447874, 0.155108l 0.447874, 0.182162l 0.447874, 0.209132l 0.447874, 0.23601l 0.447874, 0.262789l 0.447874, 0.28946l 0.447874, 0.316018l 0.447874,
 0.342454l 0.447874, 0.368762l 0.447874, 0.394934l 0.447874, 0.420963" fill="none" stroke="#cc0000" stroke-width="3"/>
<path d="M288.945,81.6158l 0.447874, 0.446841l 0.447874, 0.472563l 0.447874, 0.498121l 0.447874, 0.523508l 0.447874, 0.548718l 0.447874, 0.573743l 0.447874, 0.598578l 0.447874, 0.623216l 0.447874, 0.64765l 0.447874, 0.671875l 0.447874, 0.695884l
 0.447874, 0.71967l 0.447874, 0.743229l 0.447874, 0.766554l 0.447874, 0.789639l 0.447874, 0.81248l 0.447874, 0.835069l 0.447874, 0.857403l 0.447874, 0.879475l 0.447874, 0.901281l 0.447874, 0.922816l 0.447874, 0.944074l 0.447874, 0.965051l 0.447874,
 0.985742l 0.447874, 1.00614l 0.447874, 1.02625l 0.447874, 1.04606l 0.447874, 1.06556l 0.447874, 1.08476l 0.447874, 1.10365l 0.447874, 1.12222l 0.447874, 1.14048l 0.447874, 1.15841l 0.447874, 1.17602l 0.447874, 1.1933l 0.447874, 1.21026l 0.447874,
 1.22687l 0.447874, 1.24316l 0.447874, 1.2591l 0.447874, 1.27471l 0.447874, 1.28997l 0.447874, 1.30488l 0.447874, 1.31945l 0.447874, 1.33367l 0.447874, 1.34754l 0.447874, 1.36106l 0.447874, 1.37422l 0.447874, 1.38703l 0.447874, 1.39948" fill="none"
 stroke="#cc0000" stroke-width="3"/>
<path d="M310.891,129.493l 0.447874, 1.41158l 0.447874, 1.42332l 0.447874, 1.43471l 0.447874, 1.44573l 0.447874, 1.4564l 0.447874, 1.46671l 0.447874, 1.47666l 0.447874, 1.48625l 0.447874, 1.49548l 0.447874, 1.50435l 0.447874, 1.51287l 0.447874,
 1.52103l 0.447874, 1.52884l 0.447874, 1.53629l 0.447874, 1.54338l 0.447874, 1.55012l 0.447874, 1.55652l 0.447874, 1.56256l 0.447874, 1.56825l 0.447874, 1.57359l 0.447874, 1.57859l 0.447874, 1.58325l 0.447874, 1.58757l 0.447874, 1.59154l 0.447874,
 1.59518l 0.447874, 1.59849l 0.447874, 1.60146l 0.447874, 1.60411l 0.447874, 1.60642l 0.447874, 1.60842l 0.447874, 1.61009l 0.447874, 1.61144l 0.447874, 1.61248l 0.447874, 1.6132l 0.447874, 1.61362l 0.447874, 1.61373l 0.447874, 1.61354l 0.447874,
 1.61305l 0.447874, 1.61227l 0.447874, 1.61119l 0.447874, 1.60983l 0.447874, 1.60818l 0.447874, 1.60625l 0.447874, 1.60404l 0.447874, 1.60156l 0.447874, 1.59882l 0.447874, 1.59581l 0.447874, 1.59253l 0.447874, 1.58901" fill="none" stroke="#cc0000"
 stroke-width="3"/>
<path d="M332.837,206.034l 0.447874, 1.58523l 0.447874, 1.5812l 0.447874, 1.57693l 0.447874, 1.57242l 0.447874, 1.56767l 0.447874, 1.56269l 0.447874, 1.55749l 0.447874, 1.55207l 0.447874, 1.54643l 0.447874, 1.54057l 0.447874, 1.53451l 0.447874,
 1.52825l 0.447874, 1.52178l 0.447874, 1.51512l 0.447874, 1.50827l 0.447874, 1.50124l 0.447874, 1.49403l 0.447874, 1.48664l 0.447874, 1.47907l 0.447874, 1.47134l 0.447874, 1.46345l 0.447874, 1.4554l 0.447874, 1.4472l 0.447874, 1.43885l 0.447874,
 1.43036l 0.447874, 1.42172l 0.447874, 1.41296l 0.447874, 1.40406l 0.447874, 1.39503l 0.447874, 1.38588l 0.447874, 1.37662l 0.447874, 1.36725l 0.447874, 1.35776l 0.447874, 1.34817l 0.447874, 1.33849l 0.447874, 1.3287l 0.447874, 1.31883l 0.447874,
 1.30887l 0.447874, 1.29883l 0.447874, 1.28871l 0.447874, 1.27851l 0.447874, 1.26825l 0.447874, 1.25792l 0.447874, 1.24753l 0.447874, 1.23707l 0.447874, 1.22657l 0.447874, 1.21601l 0.447874, 1.20541l 0.447874, 1.19477" fill="none" stroke="#cc0000"
 stroke-width="3"/>
<path d="M354.783,275.436l 0.447874, 1.18408l 0.447874, 1.17336l 0.447874, 1.16261l 0.447874, 1.15183l 0.447874, 1.14102l 0.447874, 1.1302l 0.447874, 1.11935l 0.447874, 1.10849l 0.447874, 1.09762l 0.447874, 1.08674l 0.447874, 1.07585l 0.447874,
 1.06497l 0.447874, 1.05408l 0.447874, 1.0432l 0.447874, 1.03232l 0.447874, 1.02146l 0.447874, 1.0106l 0.447874, 0.999764l 0.447874, 0.988943l 0.447874, 0.978142l 0.447874, 0.967364l 0.447874, 0.956612l 0.447874, 0.945887l 0.447874, 0.935193l
 0.447874, 0.924531l 0.447874, 0.913903l 0.447874, 0.903312l 0.447874, 0.892761l 0.447874, 0.88225l 0.447874, 0.871782l 0.447874, 0.861359l 0.447874, 0.850983l 0.447874, 0.840655l 0.447874, 0.830378l 0.447874, 0.820153l 0.447874, 0.809981l 0.447874,
 0.799865l 0.447874, 0.789805l 0.447874, 0.779803l 0.447874, 0.702606l 0.447874, 0.39007l 0.447874, 0.381469l 0.447874, 0.372961l 0.447874, 0.36455l 0.447874, 0.356235l 0.447874, 0.348017l 0.447874, 0.339897l 0.447874, 0.331876l 0.447874, 0.323955"
 fill="none" stroke="#cc0000" stroke-width="3"/>
<path d="M376.728,317.549l 0.447874, 0.316134l 0.447874, 0.308414l 0.447874, 0.300796l 0.447874, 0.293279l 0.447874, 0.285865l 0.447874, 0.278553l 0.447874, 0.271345l 0.447874, 0.26424l 0.447874, 0.257238l 0.447874, 0.250341l 0.447874, 0.243547l
 0.447874, 0.236858l 0.447874, 0.230274l 0.447874, 0.223793l 0.447874, 0.217417l 0.447874, 0.211145l 0.447874, 0.204978l 0.447874, 0.198914l 0.447874, 0.192955l 0.447874, 0.187099l 0.447874, 0.181347l 0.447874, 0.175698l 0.447874, 0.170152l 0.447874,
 0.164709l 0.447874, 0.159369l 0.447874, 0.15413l 0.447874, 0.148993l 0.447874, 0.143957l 0.447874, 0.139021l 0.447874, 0.134186l 0.447874, 0.12945l 0.447874, 0.124813l 0.447874, 0.120275l 0.447874, 0.115834l 0.447874, 0.111491l 0.447874, 0.107244l
 0.447874, 0.103093l 0.447874, 0.0990376l 0.447874, 0.0950764l 0.447874, 0.091209l 0.447874, 0.0874345l 0.447874, 0.0837522l 0.447874, 0.0801614l 0.447874, 0.0766611l 0.447874, 0.0732507l 0.447874, 0.0699292l 0.447874, 0.0666959l 0.447874, 0.0635498l
 0.447874, 0.0604901" fill="none" stroke="#cc0000" stroke-width="3"/>
<path d="M398.674,325.853l 0.447874, 0.0575159l 0.447874, 0.0546263l 0.447874, 0.0518203l 0.447874, 0.0490972l 0.447874, 0.0464558l 0.447874, 0.0438954l 0.447874, 0.0414149l 0.447874, 0.0390135l 0.447874, 0.03669l 0.447874, 0.0344437l 0.447874,
 0.0322735l 0.447874, 0.0301784l 0.447874, 0.0281574l 0.447874, 0.0262097l 0.447874, 0.0243341l 0.447874, 0.0225297l 0.447874, 0.0207955l 0.447874, 0.0191305l 0.447874, 0.0175337l 0.447874, 0.0160041l 0.447874, 0.0145407l 0.447874, 0.0131426l
 0.447874, 0.0118086l 0.447874, 0.0105379l 0.447874, 0.00932939l 0.447874, 0.00818212l 0.447874, 0.00709508l 0.447874, 0.0060673l 0.447874, 0.00509777l 0.447874, 0.00418552l 0.447874, 0.00332957l 0.447874, 0.00252893l 0.447874, 0.00178264l 0.447874,
 0.00108973l 0.447874, 0.000449236l 0.447874, -0.000139805l 0.447874, -0.000678344l 0.447874, -0.00116733l 0.447874, -0.00160771l 0.447874, -0.00200041l 0.447874, -0.00234637l 0.447874, -0.00264651l 0.447874, -0.00290175l 0.447874, -0.003113l
 0.447874, -0.00328116l 0.447874, -0.00340714l 0.447874, -0.00349181l 0.447874, -0.00353607l 0.447874, -0.00354078" fill="none" stroke="#cc0000" stroke-width="3"/>
<path d="M420.62,326.61l 0.447874, -0.00350682l 0.447874, -0.00343504l 0.447874, -0.0033263l 0.447874, -0.00318143l 0.447874, -0.00300127l 0.447874, -0.00278665l 0.447874, -0.00253838l 0.447874, -0.00225728l 0.447874, -0.00194414l 0.447874,
 -0.00159976l 0.447874, -0.00122492l 0.447874, -0.000820395l 0.447874, -0.000386949l 0.447874, 7.46593e-05l 0.447874, 0.000563683l 0.447874, 0.00107938l 0.447874, 0.00162103l 0.447874, 0.0021879l 0.447874, 0.00277929l 0.447874, 0.00339448l 0.447874,
 0.0040328l 0.447874, 0.00469355l 0.447874, 0.00537605l 0.447874, 0.00607964l 0.447874, 0.00680367l 0.447874, 0.00754748l 0.447874, 0.00831043l 0.447874, 0.0090919l 0.447874, 0.00989125l 0.447874, 0.0107079l 0.447874, 0.0115412l 0.447874, 0.0123906l
 0.447874, 0.0132555l 0.447874, 0.0141353l 0.447874, 0.0150294l 0.447874, 0.0159374l 0.447874, 0.0168585l 0.447874, 0.0177924l 0.447874, 0.0187384l 0.447874, 0.019696l 0.447874, 0.0206648l 0.447874, 0.0216441l 0.447874, 0.0226336l 0.447874,
 0.0236326l 0.447874, 0.0246408l 0.447874, 0.0256576l 0.447874, 0.0266826l 0.447874, 0.0277153l 0.447874, 0.0287552" fill="none" stroke="#cc0000" stroke-width="3"/>
<path d="M442.566,327.042l 0.447874, 0.029802l 0.447874, 0.0308552l 0.447874, 0.0319142l 0.447874, 0.0329788l 0.447874, 0.0340485l 0.447874, 0.0351229l 0.447874, 0.0362016l 0.447874, 0.0372841l 0.447874, 0.0383702l 0.447874, 0.0394594l 0.447874,
 0.0405513l 0.447874, 0.0416457l 0.447874, 0.042742l 0.447874, 0.04384l 0.447874, 0.0449394l 0.447874, 0.0460397l 0.447874, 0.0471406l 0.447874, 0.0482419l 0.447874, 0.0493432l 0.447874, 0.0504441l 0.447874, 0.0515444l 0.447874, 0.0526438l 0.447874,
 0.0537419l 0.447874, 0.0548385l 0.447874, 0.0559333l 0.447874, 0.057026l 0.447874, 0.0581164l 0.447874, 0.059204l 0.447874, 0.0602888l 0.447874, 0.0613704l 0.447874, 0.0624486l 0.447874, 0.0635231l 0.447874, 0.0645936l 0.447874, 0.0656601l 0.447874,
 0.0667221l 0.447874, 0.0677795l 0.447874, 0.068832l 0.447874, 0.0698795l 0.447874, 0.0709217l 0.447874, 0.0719584l 0.447874, 0.0729894l 0.447874, 0.0740145l 0.447874, 0.0750335l 0.447874, 0.0760462l 0.447874, 0.0770524l 0.447874, 0.078052l 0.447874,
 0.0790446l 0.447874, 0.0800303l 0.447874, 0.0810087" fill="none" stroke="#cc0000" stroke-width="3"/>
<path d="M464.512,329.773l 0.447874, 0.0819798l 0.447874, 0.0829433l 0.447874, 0.0838991l 0.447874, 0.084847l 0.447874, 0.0857869l 0.447874, 0.0867187l 0.447874, 0.0876421l 0.447874, 0.088557l 0.447874, 0.0894634l 0.447874, 0.090361l 0.447874,
 0.0912497l 0.447874, 0.0921294l 0.447874, 0.093l 0.447874, 0.0938613l 0.447874, 0.0947133l 0.447874, 0.0955557l 0.447874, 0.0963885l 0.447874, 0.0972116l 0.447874, 0.0980248l 0.447874, 0.0988281l 0.447874, 0.0996213l 0.447874, 0.100404l 0.447874,
 0.101177l 0.447874, 0.10194l 0.447874, 0.102692l 0.447874, 0.103433l 0.447874, 0.104164l 0.447874, 0.104884l 0.447874, 0.105593l 0.447874, 0.106292l 0.447874, 0.106979l 0.447874, 0.107656l 0.447874, 0.108321l 0.447874, 0.108975l 0.447874, 0.109618l
 0.447874, 0.11025l 0.447874, 0.11087l 0.447874, 0.111479l 0.447874, 0.112076l 0.447874, 0.112662l 0.447874, 0.113236l 0.447874, 0.113799l 0.447874, 0.114349l 0.447874, 0.114888l 0.447874, 0.115416l 0.447874, 0.115931l 0.447874, 0.116434l 0.447874,
 0.116926l 0.447874, 0.117405" fill="none" stroke="#cc0000" stroke-width="3"/>
<path d="M486.457,334.754l 0.447874, 0.117873l 0.447874, 0.118328l 0.447874, 0.118771l 0.447874, 0.119203l 0.447874, 0.119622l 0.447874, 0.120028l 0.447874, 0.120423l 0.447874, 0.120805l 0.447874, 0.121175l 0.447874, 0.121533l 0.447874, 0.121879l
 0.447874, 0.122212l 0.447874, 0.122533l 0.447874, 0.122841l 0.447874, 0.123137l 0.447874, 0.123421l 0.447874, 0.123692l 0.447874, 0.123951l 0.447874, 0.124197l 0.447874, 0.124431l 0.447874, 0.124653l 0.447874, 0.124862l 0.447874, 0.125059l 0.447874,
 0.125243l 0.447874, 0.125415l 0.447874, 0.125575l 0.447874, 0.125722l 0.447874, 0.125856l 0.447874, 0.125979l 0.447874, 0.126088l 0.447874, 0.126186l 0.447874, 0.126271l 0.447874, 0.126344l 0.447874, 0.126404l 0.447874, 0.126452l 0.447874, 0.126488l
 0.447874, 0.126511l 0.447874, 0.126522l 0.447874, 0.126521l 0.447874, 0.126508l 0.447874, 0.126482l 0.447874, 0.126444l 0.447874, 0.126394l 0.447874, 0.126332l 0.447874, 0.126258l 0.447874, 0.126172l 0.447874, 0.126073l 0.447874, 0.125963l 0.447874,
 0.125841" fill="none" stroke="#cc0000" stroke-width="3"/>
<path d="M508.403,340.838l 0.447874, 0.125706l 0.447874, 0.12556l 0.447874, 0.125402l 0.447874, 0.125232l 0.447874, 0.12505l 0.447874, 0.124857l 0.447874, 0.124651l 0.447874, 0.124434l 0.447874, 0.124206l 0.447874, 0.123966l 0.447874, 0.12127l
 0.447874, -0.126464l 0.447874, -0.123147l 0.447874, -0.122862l 0.447874, -0.122566l 0.447874, -0.122258l 0.447874, -0.12194l 0.447874, -0.12161l 0.447874, -0.121268l 0.447874, -0.120916l 0.447874, -0.120552l 0.447874, -0.120178l 0.447874, -0.119792l
 0.447874, -0.119395l 0.447874, -0.118988l 0.447874, -0.11857l 0.447874, -0.118141l 0.447874, -0.117701l 0.447874, -0.117251l 0.447874, -0.116791l 0.447874, -0.116319l 0.447874, -0.115838l 0.447874, -0.115346l 0.447874, -0.114844l 0.447874,
 -0.114331l 0.447874, -0.113809l 0.447874, -0.113276l 0.447874, -0.112734l 0.447874, -0.112181l 0.447874, -0.111619l 0.447874, -0.111047l 0.447874, -0.110465l 0.447874, -0.109874l 0.447874, -0.109273l 0.447874, -0.108662l 0.447874, -0.108043l
 0.447874, -0.107413l 0.447874, -0.106775l 0.447874, -0.106128" fill="none" stroke="#cc0000" stroke-width="3"/>
<path d="M530.349,337.8l 0.447874, -0.105471l 0.447874, -0.104806l 0.447874, -0.104131l 0.447874, -0.103448l 0.447874, -0.102756l 0.447874, -0.102055l 0.447874, -0.101346l 0.447874, -0.100629l 0.447874, -0.0999025l 0.447874, -0.0991681l 0.447874,
 -0.0984254l 0.447874, -0.0976747l 0.447874, -0.0969159l 0.447874, -0.0961491l 0.447874, -0.0953744l 0.447874, -0.094592l 0.447874, -0.0938019l 0.447874, -0.0930042l 0.447874, -0.0921989" fill="none" stroke="#cc0000" stroke-width="3"/>
<path d="M91.2087,342.209h 447.874" fill="none" stroke="black"/>
<path d="M91.2087,332.554v 9.65517" fill="none" stroke="black"/>
<path d="M100.166,337.381v 4.82759" fill="none" stroke="black"/>
<path d="M109.124,337.381v 4.82759" fill="none" stroke="black"/>
<path d="M118.081,337.381v 4.82759" fill="none" stroke="black"/>
<path d="M127.039,337.381v 4.82759" fill="none" stroke="black"/>
<path d="M135.996,332.554v 9.65517" fill="none" stroke="black"/>
<path d="M144.954,337.381v 4.82759" fill="none" stroke="black"/>
<path d="M153.911,337.381v 4.82759" fill="none" stroke="black"/>
<path d="M162.868,337.381v 4.82759" fill="none" stroke="black"/>
<path d="M171.826,337.381v 4.82759" fill="none" stroke="black"/>
<path d="M180.783,332.554v 9.65517" fill="none" stroke="black"/>
<path d="M189.741,337.381v 4.82759" fill="none" stroke="black"/>
<path d="M198.698,337.381v 4.82759" fill="none" stroke="black"/>
<path d="M207.656,337.381v 4.82759" fill="none" stroke="black"/>
<path d="M216.613,337.381v 4.82759" fill="none" stroke="black"/>
<path d="M225.571,332.554v 9.65517" fill="none" stroke="black"/>
<path d="M234.528,337.381v 4.82759" fill="none" stroke="black"/>
<path d="M243.486,337.381v 4.82759" fill="none" stroke="black"/>
<path d="M252.443,337.381v 4.82759" fill="none" stroke="black"/>
<path d="M261.401,337.381v 4.82759" fill="none" stroke="black"/>
<path d="M270.358,332.554v 9.65517" fill="none" stroke="black"/>
<path d="M279.316,337.381v 4.82759" fill="none" stroke="black"/>
<path d="M288.273,337.381v 4.82759" fill="none" stroke="black"/>
<path d="M297.231,337.381v 4.82759" fill="none" stroke="black"/>
<path d="M306.188,337.381v 4.82759" fill="none" stroke="black"/>
<path d="M315.146,332.554v 9.65517" fill="none" stroke="black"/>
<path d="M324.103,337.381v 4.82759" fill="none" stroke="black"/>
<path d="M333.061,337.381v 4.82759" fill="none" stroke="black"/>
<path d="M342.018,337.381v 4.82759" fill="none" stroke="black"/>
<path d="M350.976,337.381v 4.82759" fill="none" stroke="black"/>
<path d="M359.933,332.554v 9.65517" fill="none" stroke="black"/>
<path d="M368.891,337.381v 4.82759" fill="none" stroke="black"/>
<path d="M377.848,337.381v 4.82759" fill="none" stroke="black"/>
<path d="M386.806,337.381v 4.82759" fill="none" stroke="black"/>
<path d="M395.763,337.381v 4.82759" fill="none" stroke="black"/>
<path d="M404.72,332.554v 9.65517" fill="none" stroke="black"/>
<path d="M413.678,337.381v 4.82759" fill="none" stroke="black"/>
<path d="M422.635,337.381v 4.82759" fill="none" stroke="black"/>
<path d="M431.593,337.381v 4.82759" fill="none" stroke="black"/>
<path d="M440.55,337.381v 4.82759" fill="none" stroke="black"/>
<path d="M449.508,332.554v 9.65517" fill="none" stroke="black"/>
<path d="M458.465,337.381v 4.82759" fill="none" stroke="black"/>
<path d="M467.423,337.381v 4.82759" fill="none" stroke="black"/>
<path d="M476.38,337.381v 4.82759" fill="none" stroke="black"/>
<path d="M485.338,337.381v 4.82759" fill="none" stroke="black"/>
<path d="M494.295,332.554v 9.65517" fill="none" stroke="black"/>
<path d="M503.253,337.381v 4.82759" fill="none" stroke="black"/>
<path d="M512.21,337.381v 4.82759" fill="none" stroke="black"/>
<path d="M521.168,337.381v 4.82759" fill="none" stroke="black"/>
<path d="M530.125,337.381v 4.82759" fill="none" stroke="black"/>
<path d="M539.083,332.554v 9.65517" fill="none" stroke="black"/>
<path d="M91.2087,20.3696h 447.874" fill="none" stroke="black"/>
<path d="M91.2087,30.0247v -9.65517" fill="none" stroke="black"/>
<path d="M100.166,25.1972v -4.82759" fill="none" stroke="black"/>
<path d="M109.124,25.1972v -4.82759" fill="none" stroke="black"/>
<path d="M118.081,25.1972v -4.82759" fill="none" stroke="black"/>
<path d="M127.039,25.1972v -4.82759" fill="none" stroke="black"/>
<path d="M135.996,30.0247v -9.65517" fill="none" stroke="black"/>
<path d="M144.954,25.1972v -4.82759" fill="none" stroke="black"/>
<path d="M153.911,25.1972v -4.82759" fill="none" stroke="black"/>
<path d="M162.868,25.1972v -4.82759" fill="none" stroke="black"/>
<path d="M171.826,25.1972v -4.82759" fill="none" stroke="black"/>
<path d="M180.783,30.0247v -9.65517" fill="none" stroke="black"/>
<path d="M189.741,25.1972v -4.82759" fill="none" stroke="black"/>
<path d="M198.698,25.1972v -4.82759" fill="none" stroke="black"/>
<path d="M207.656,25.1972v -4.82759" fill="none" stroke="black"/>
<path d="M216.613,25.1972v -4.82759" fill="none" stroke="black"/>
<path d="M225.571,30.0247v -9.65517" fill="none" stroke="black"/>
<path d="M234.528,25.1972v -4.82759" fill="none" stroke="black"/>
<path d="M243.486,25.1972v -4.82759" fill="none" stroke="black"/>
<path d="M252.443,25.1972v -4.82759" fill="none" stroke="black"/>
<path d="M261.401,25.1972v -4.82759" fill="none" stroke="black"/>
<path d="M270.358,30.0247v -9.65517" fill="none" stroke="black"/>
<path d="M279.316,25.1972v -4.82759" fill="none" stroke="black"/>
<path d="M288.273,25.1972v -4.82759" fill="none" stroke="black"/>
<path d="M297.231,25.1972v -4.82759" fill="none" stroke="black"/>
<path d="M306.188,25.1972v -4.82759" fill="none" stroke="black"/>
<path d="M315.146,30.0247v -9.65517" fill="none" stroke="black"/>
<path d="M324.103,25.1972v -4.82759" fill="none" stroke="black"/>
<path d="M333.061,25.1972v -4.82759" fill="none" stroke="black"/>
<path d="M342.018,25.1972v -4.82759" fill="none" stroke="black"/>
<path d="M350.976,25.1972v -4.82759" fill="none" stroke="black"/>
<path d="M359.933,30.0247v -9.65517" fill="none" stroke="black"/>
<path d="M368.891,25.1972v -4.82759" fill="none" stroke="black"/>
<path d="M377.848,25.1972v -4.82759" fill="none" stroke="black"/>
<path d="M386.806,25.1972v -4.82759" fill="none" stroke="black"/>
<path d="M395.763,25.1972v -4.82759" fill="none" stroke="black"/>
<path d="M404.72,30.0247v -9.65517" fill="none" stroke="black"/>
<path d="M413.678,25.1972v -4.82759" fill="none" stroke="black"/>
<path d="M422.635,25.1972v -4.82759" fill="none" stroke="black"/>
<path d="M431.593,25.1972v -4.82759" fill="none" stroke="black"/>
<path d="M440.55,25.1972v -4.82759" fill="none" stroke="black"/>
<path d="M449.508,30.0247v -9.65517" fill="none" stroke="black"/>
<path d="M458.465,25.1972v -4.82759" fill="none" stroke="black"/>
<path d="M467.423,25.1972v -4.82759" fill="none" stroke="black"/>
<path d="M476.38,25.1972v -4.82759" fill="none" stroke="black"/>
<path d="M485.338,25.1972v -4.82759" fill="none" stroke="black"/>
<path d="M494.295,30.0247v -9.65517" fill="none" stroke="black"/>
<path d="M503.253,25.1972v -4.82759" fill="none" stroke="black"/>
<path d="M512.21,25.1972v -4.82759" fill="none" stroke="black"/>
<path d="M521.168,25.1972v -4.82759" fill="none" stroke="black"/>
<path d="M530.125,25.1972v -4.82759" fill="none" stroke="black"/>
<path d="M539.083,30.0247v -9.65517" fill="none" stroke="black"/>
<path d="M91.2087,342.209v -321.839" fill="none" stroke="black"/>
<path d="M104.645,342.209h -13.4362" fill="none" stroke="black"/>
<path d="M97.9268,331.083h -6.71811" fill="none" stroke="black"/>
<path d="M97.9268,319.958h -6.71811" fill="none" stroke="black"/>
<path d="M97.9268,308.833h -6.71811" fill="none" stroke="black"/>
<path d="M104.645,297.707h -13.4362" fill="none" stroke="black"/>
<path d="M97.9268,286.582h -6.71811" fill="none" stroke="black"/>
<path d="M97.9268,275.457h -6.71811" fill="none" stroke="black"/>
<path d="M97.9268,264.332h -6.71811" fill="none" stroke="black"/>
<path d="M104.645,253.206h -13.4362" fill="none" stroke="black"/>
<path d="M97.9268,242.081h -6.71811" fill="none" stroke="black"/>
<path d="M97.9268,230.956h -6.71811" fill="none" stroke="black"/>
<path d="M97.9268,219.83h -6.71811" fill="none" stroke="black"/>
<path d="M104.645,208.705h -13.4362" fill="none" stroke="black"/>
<path d="M97.9268,197.58h -6.71811" fill="none" stroke="black"/>
<path d="M97.9268,186.454h -6.71811" fill="none" stroke="black"/>
<path d="M97.9268,175.329h -6.71811" fill="none" stroke="black"/>
<path d="M104.645,164.204h -13.4362" fill="none" stroke="black"/>
<path d="M97.9268,153.079h -6.71811" fill="none" stroke="black"/>
<path d="M97.9268,141.953h -6.71811" fill="none" stroke="black"/>
<path d="M97.9268,130.828h -6.71811" fill="none" stroke="black"/>
<path d="M104.645,119.703h -13.4362" fill="none" stroke="black"/>
<path d="M97.9268,108.577h -6.71811" fill="none" stroke="black"/>
<path d="M97.9268,97.452h -6.71811" fill="none" stroke="black"/>
<path d="M97.9268,86.3267h -6.71811" fill="none" stroke="black"/>
<path d="M104.645,75.2014h -13.4362" fill="none" stroke="black"/>
<path d="M97.9268,64.0761h -6.71811" fill="none" stroke="black"/>
<path d="M97.9268,52.9508h -6.71811" fill="none" stroke="black"/>
<path d="M97.9268,41.8255h -6.71811" fill="none" stroke="black"/>
<path d="M104.645,30.7002h -13.4362" fill="none" stroke="black"/>
<path d="M104.645,342.209h -13.4362" fill="none" stroke="black"/>
<path d="M104.645,30.7002h -13.4362" fill="none" stroke="black"/>
<path d="M539.083,342.209v -321.839" fill="none" stroke="black"/>
<path d="M525.646,342.209h 13.4362" fill="none" stroke="black"/>
<path d="M532.365,331.083h 6.71811" fill="none" stroke="black"/>
<path d="M532.365,319.958h 6.71811" fill="none" stroke="black"/>
<path d="M532.365,308.833h 6.71811" fill="none" stroke="black"/>
<path d="M525.646,297.707h 13.4362" fill="none" stroke="black"/>
<path d="M532.365,286.582h 6.71811" fill="none" stroke="black"/>
<path d="M532.365,275.457h 6.71811" fill="none" stroke="black"/>
<path d="M532.365,264.332h 6.71811" fill="none" stroke="black"/>
<path d="M525.646,253.206h 13.4362" fill="none" stroke="black"/>
<path d="M532.365,242.081h 6.71811" fill="none" stroke="black"/>
<path d="M532.365,230.956h 6.71811" fill="none" stroke="black"/>
<path d="M532.365,219.83h 6.71811" fill="none" stroke="black"/>
<path d="M525.646,208.705h 13.4362" fill="none" stroke="black"/>
<path d="M532.365,197.58h 6.71811" fill="none" stroke="black"/>
<path d="M532.365,186.454h 6.71811" fill="none" stroke="black"/>
<path d="M532.365,175.329h 6.71811" fill="none" stroke="black"/>
<path d="M525.646,164.204h 13.4362" fill="none" stroke="black"/>
<path d="M532.365,153.079h 6.71811" fill="none" stroke="black"/>
<path d="M532.365,141.953h 6.71811" fill="none" stroke="black"/>
<path d="M532.365,130.828h 6.71811" fill="none" stroke="black"/>
<path d="M525.646,119.703h 13.4362" fill="none" stroke="black"/>
<path d="M532.365,108.577h 6.71811" fill="none" stroke="black"/>
<path d="M532.365,97.452h 6.71811" fill="none" stroke="black"/>
<path d="M532.365,86.3267h 6.71811" fill="none" stroke="black"/>
<path d="M525.646,75.2014h 13.4362" fill="none" stroke="black"/>
<path d="M532.365,64.0761h 6.71811" fill="none" stroke="black"/>
<path d="M532.365,52.9508h 6.71811" fill="none" stroke="black"/>
<path d="M532.365,41.8255h 6.71811" fill="none" stroke="black"/>
<path d="M525.646,30.7002h 13.4362" fill="none" stroke="black"/>
<path d="M525.646,342.209h 13.4362" fill="none" stroke="black"/>
<path d="M525.646,30.7002h 13.4362" fill="none" stroke="black"/>
<text xml:space="preserve" x="179.268" y="51.28" fill="black" font-size="19.449" font-family="Helvetica"> Internal</text>
<text xml:space="preserve" x="113.743" y="51.28" fill="black" font-size="19.449" font-family="Helvetica" font-weight="bold" font-style="oblique">ATLAS</text>
<text xml:space="preserve" x="243.368" y="64.1" fill="black" font-size="10.0834" font-family="Helvetica">-1</text>
<text xml:space="preserve" x="128.7" y="70.51" fill="black" font-size="14.8751" font-family="Helvetica"> = 13 TeV, 139 fb</text>
<text xml:space="preserve" x="121.578" y="70.51" fill="black" font-size="14.8751" font-family="Helvetica">s</text>
<path d="M116.592,61.9634l 1.42445, 9.25889" fill="none" stroke="black"/>
<path d="M118.017,71.2223l 1.42445, -12.82" fill="none" stroke="black"/>
<path d="M119.441,58.4022h 9.25889" fill="none" stroke="black"/>
<rect x="369.004" y="32.5913" width="170.079" height="48.887" fill="white" fill-opacity="0.00" stroke-opacity="0.00"/>
<text xml:space="preserve" x="411.452" y="49.8556" fill="black" font-size="19.449" font-family="Helvetica">Random Hist</text>
<path d="M375.382,53.3683h 29.7638v -17.1104h -29.7638z" fill="white"/>
<path d="M375.382,36.2578h 29.7638" fill="none" stroke="black" stroke-width="2"/>
<path d="M375.382,53.3683h 29.7638" fill="none" stroke="black" stroke-width="2"/>
<path d="M405.146,53.3683v -17.1104" fill="none" stroke="black" stroke-width="2"/>
<path d="M375.382,53.3683v -17.1104" fill="none" stroke="black" stroke-width="2"/>
<text xml:space="preserve" x="411.452" y="74.0711" fill="black" font-size="19.449" font-family="Helvetica">Fit</text>
<path d="M375.382,69.2565h 29.7638" fill="none" stroke="#cc0000" stroke-width="3"/></svg>
