<?xml version="1.0" standalone="no"?>
<svg width="567.429" height="550.336" viewBox="0 0 567.429 550.336" xmlns="http://www.w3.org/2000/svg" shape-rendering="crispEdges">
<title>
ratio.svg
</title>
<desc>
Creator: ROOT Version 6.22/00
CreationDate: Fri Mar 19 12:01:16 2021</desc>
<defs>
</defs>
<rect x="0.5" y="0" width="566.929" height="549.836" fill="white"/>
<rect x="0.5" y="0" width="566.929" height="346.397" fill="white"/>
<rect x="91.2087" y="20.6188" width="447.874" height="317.118" fill="white"/>
<rect x="91.2087" y="20.6188" width="447.874" height="317.118" fill="none" stroke="black"/>
<rect x="91.2087" y="20.6188" width="447.874" height="317.118" fill="white"/>
<rect x="91.2087" y="20.6188" width="447.874" height="317.118" fill="none" stroke="black"/>
<path d="M91.2087,337.737h 447.874" fill="none" stroke="black"/>
<path d="M91.2087,329.527v 8.2096" fill="none" stroke="black"/>
<path d="M100.166,333.632v 4.1048" fill="none" stroke="black"/>
<path d="M109.124,333.632v 4.1048" fill="none" stroke="black"/>
<path d="M118.081,333.632v 4.1048" fill="none" stroke="black"/>
<path d="M127.039,333.632v 4.1048" fill="none" stroke="black"/>
<path d="M135.996,329.527v 8.2096" fill="none" stroke="black"/>
<path d="M144.954,333.632v 4.1048" fill="none" stroke="black"/>
<path d="M153.911,333.632v 4.1048" fill="none" stroke="black"/>
<path d="M162.868,333.632v 4.1048" fill="none" stroke="black"/>
<path d="M171.826,333.632v 4.1048" fill="none" stroke="black"/>
<path d="M180.783,329.527v 8.2096" fill="none" stroke="black"/>
<path d="M189.741,333.632v 4.1048" fill="none" stroke="black"/>
<path d="M198.698,333.632v 4.1048" fill="none" stroke="black"/>
<path d="M207.656,333.632v 4.1048" fill="none" stroke="black"/>
<path d="M216.613,333.632v 4.1048" fill="none" stroke="black"/>
<path d="M225.571,329.527v 8.2096" fill="none" stroke="black"/>
<path d="M234.528,333.632v 4.1048" fill="none" stroke="black"/>
<path d="M243.486,333.632v 4.1048" fill="none" stroke="black"/>
<path d="M252.443,333.632v 4.1048" fill="none" stroke="black"/>
<path d="M261.401,333.632v 4.1048" fill="none" stroke="black"/>
<path d="M270.358,329.527v 8.2096" fill="none" stroke="black"/>
<path d="M279.316,333.632v 4.1048" fill="none" stroke="black"/>
<path d="M288.273,333.632v 4.1048" fill="none" stroke="black"/>
<path d="M297.231,333.632v 4.1048" fill="none" stroke="black"/>
<path d="M306.188,333.632v 4.1048" fill="none" stroke="black"/>
<path d="M315.146,329.527v 8.2096" fill="none" stroke="black"/>
<path d="M324.103,333.632v 4.1048" fill="none" stroke="black"/>
<path d="M333.061,333.632v 4.1048" fill="none" stroke="black"/>
<path d="M342.018,333.632v 4.1048" fill="none" stroke="black"/>
<path d="M350.976,333.632v 4.1048" fill="none" stroke="black"/>
<path d="M359.933,329.527v 8.2096" fill="none" stroke="black"/>
<path d="M368.891,333.632v 4.1048" fill="none" stroke="black"/>
<path d="M377.848,333.632v 4.1048" fill="none" stroke="black"/>
<path d="M386.806,333.632v 4.1048" fill="none" stroke="black"/>
<path d="M395.763,333.632v 4.1048" fill="none" stroke="black"/>
<path d="M404.72,329.527v 8.2096" fill="none" stroke="black"/>
<path d="M413.678,333.632v 4.1048" fill="none" stroke="black"/>
<path d="M422.635,333.632v 4.1048" fill="none" stroke="black"/>
<path d="M431.593,333.632v 4.1048" fill="none" stroke="black"/>
<path d="M440.55,333.632v 4.1048" fill="none" stroke="black"/>
<path d="M449.508,329.527v 8.2096" fill="none" stroke="black"/>
<path d="M458.465,333.632v 4.1048" fill="none" stroke="black"/>
<path d="M467.423,333.632v 4.1048" fill="none" stroke="black"/>
<path d="M476.38,333.632v 4.1048" fill="none" stroke="black"/>
<path d="M485.338,333.632v 4.1048" fill="none" stroke="black"/>
<path d="M494.295,329.527v 8.2096" fill="none" stroke="black"/>
<path d="M503.253,333.632v 4.1048" fill="none" stroke="black"/>
<path d="M512.21,333.632v 4.1048" fill="none" stroke="black"/>
<path d="M521.168,333.632v 4.1048" fill="none" stroke="black"/>
<path d="M530.125,333.632v 4.1048" fill="none" stroke="black"/>
<path d="M539.083,329.527v 8.2096" fill="none" stroke="black"/>
<path d="M91.2087,20.6188h 447.874" fill="none" stroke="black"/>
<path d="M91.2087,28.8284v -8.2096" fill="none" stroke="black"/>
<path d="M100.166,24.7236v -4.1048" fill="none" stroke="black"/>
<path d="M109.124,24.7236v -4.1048" fill="none" stroke="black"/>
<path d="M118.081,24.7236v -4.1048" fill="none" stroke="black"/>
<path d="M127.039,24.7236v -4.1048" fill="none" stroke="black"/>
<path d="M135.996,28.8284v -8.2096" fill="none" stroke="black"/>
<path d="M144.954,24.7236v -4.1048" fill="none" stroke="black"/>
<path d="M153.911,24.7236v -4.1048" fill="none" stroke="black"/>
<path d="M162.868,24.7236v -4.1048" fill="none" stroke="black"/>
<path d="M171.826,24.7236v -4.1048" fill="none" stroke="black"/>
<path d="M180.783,28.8284v -8.2096" fill="none" stroke="black"/>
<path d="M189.741,24.7236v -4.1048" fill="none" stroke="black"/>
<path d="M198.698,24.7236v -4.1048" fill="none" stroke="black"/>
<path d="M207.656,24.7236v -4.1048" fill="none" stroke="black"/>
<path d="M216.613,24.7236v -4.1048" fill="none" stroke="black"/>
<path d="M225.571,28.8284v -8.2096" fill="none" stroke="black"/>
<path d="M234.528,24.7236v -4.1048" fill="none" stroke="black"/>
<path d="M243.486,24.7236v -4.1048" fill="none" stroke="black"/>
<path d="M252.443,24.7236v -4.1048" fill="none" stroke="black"/>
<path d="M261.401,24.7236v -4.1048" fill="none" stroke="black"/>
<path d="M270.358,28.8284v -8.2096" fill="none" stroke="black"/>
<path d="M279.316,24.7236v -4.1048" fill="none" stroke="black"/>
<path d="M288.273,24.7236v -4.1048" fill="none" stroke="black"/>
<path d="M297.231,24.7236v -4.1048" fill="none" stroke="black"/>
<path d="M306.188,24.7236v -4.1048" fill="none" stroke="black"/>
<path d="M315.146,28.8284v -8.2096" fill="none" stroke="black"/>
<path d="M324.103,24.7236v -4.1048" fill="none" stroke="black"/>
<path d="M333.061,24.7236v -4.1048" fill="none" stroke="black"/>
<path d="M342.018,24.7236v -4.1048" fill="none" stroke="black"/>
<path d="M350.976,24.7236v -4.1048" fill="none" stroke="black"/>
<path d="M359.933,28.8284v -8.2096" fill="none" stroke="black"/>
<path d="M368.891,24.7236v -4.1048" fill="none" stroke="black"/>
<path d="M377.848,24.7236v -4.1048" fill="none" stroke="black"/>
<path d="M386.806,24.7236v -4.1048" fill="none" stroke="black"/>
<path d="M395.763,24.7236v -4.1048" fill="none" stroke="black"/>
<path d="M404.72,28.8284v -8.2096" fill="none" stroke="black"/>
<path d="M413.678,24.7236v -4.1048" fill="none" stroke="black"/>
<path d="M422.635,24.7236v -4.1048" fill="none" stroke="black"/>
<path d="M431.593,24.7236v -4.1048" fill="none" stroke="black"/>
<path d="M440.55,24.7236v -4.1048" fill="none" stroke="black"/>
<path d="M449.508,28.8284v -8.2096" fill="none" stroke="black"/>
<path d="M458.465,24.7236v -4.1048" fill="none" stroke="black"/>
<path d="M467.423,24.7236v -4.1048" fill="none" stroke="black"/>
<path d="M476.38,24.7236v -4.1048" fill="none" stroke="black"/>
<path d="M485.338,24.7236v -4.1048" fill="none" stroke="black"/>
<path d="M494.295,28.8284v -8.2096" fill="none" stroke="black"/>
<path d="M503.253,24.7236v -4.1048" fill="none" stroke="black"/>
<path d="M512.21,24.7236v -4.1048" fill="none" stroke="black"/>
<path d="M521.168,24.7236v -4.1048" fill="none" stroke="black"/>
<path d="M530.125,24.7236v -4.1048" fill="none" stroke="black"/>
<path d="M539.083,28.8284v -8.2096" fill="none" stroke="black"/>
<path d="M91.2087,337.737v -317.118" fill="none" stroke="black"/>
<path d="M106.779,337.737h -15.5703" fill="none" stroke="black"/>
<path d="M98.9938,326.775h -7.78515" fill="none" stroke="black"/>
<path d="M98.9938,315.812h -7.78515" fill="none" stroke="black"/>
<path d="M98.9938,304.85h -7.78515" fill="none" stroke="black"/>
<path d="M106.779,293.888h -15.5703" fill="none" stroke="black"/>
<path d="M98.9938,282.926h -7.78515" fill="none" stroke="black"/>
<path d="M98.9938,271.964h -7.78515" fill="none" stroke="black"/>
<path d="M98.9938,261.002h -7.78515" fill="none" stroke="black"/>
<path d="M106.779,250.04h -15.5703" fill="none" stroke="black"/>
<path d="M98.9938,239.078h -7.78515" fill="none" stroke="black"/>
<path d="M98.9938,228.116h -7.78515" fill="none" stroke="black"/>
<path d="M98.9938,217.154h -7.78515" fill="none" stroke="black"/>
<path d="M106.779,206.191h -15.5703" fill="none" stroke="black"/>
<path d="M98.9938,195.229h -7.78515" fill="none" stroke="black"/>
<path d="M98.9938,184.267h -7.78515" fill="none" stroke="black"/>
<path d="M98.9938,173.305h -7.78515" fill="none" stroke="black"/>
<path d="M106.779,162.343h -15.5703" fill="none" stroke="black"/>
<path d="M98.9938,151.381h -7.78515" fill="none" stroke="black"/>
<path d="M98.9938,140.419h -7.78515" fill="none" stroke="black"/>
<path d="M98.9938,129.457h -7.78515" fill="none" stroke="black"/>
<path d="M106.779,118.495h -15.5703" fill="none" stroke="black"/>
<path d="M98.9938,107.533h -7.78515" fill="none" stroke="black"/>
<path d="M98.9938,96.5705h -7.78515" fill="none" stroke="black"/>
<path d="M98.9938,85.6084h -7.78515" fill="none" stroke="black"/>
<path d="M106.779,74.6463h -15.5703" fill="none" stroke="black"/>
<path d="M98.9938,63.6842h -7.78515" fill="none" stroke="black"/>
<path d="M98.9938,52.7221h -7.78515" fill="none" stroke="black"/>
<path d="M98.9938,41.76h -7.78515" fill="none" stroke="black"/>
<path d="M106.779,30.7979h -15.5703" fill="none" stroke="black"/>
<path d="M106.779,337.737h -15.5703" fill="none" stroke="black"/>
<path d="M106.779,30.7979h -15.5703" fill="none" stroke="black"/>
<text xml:space="preserve" x="78.1323" y="344.716" fill="black" font-size="19.4631" font-family="Helvetica">0</text>
<text xml:space="preserve" x="56.7656" y="300.558" fill="black" font-size="19.4631" font-family="Helvetica">200</text>
<text xml:space="preserve" x="56.7656" y="257.112" fill="black" font-size="19.4631" font-family="Helvetica">400</text>
<text xml:space="preserve" x="56.7656" y="212.955" fill="black" font-size="19.4631" font-family="Helvetica">600</text>
<text xml:space="preserve" x="56.7656" y="168.797" fill="black" font-size="19.4631" font-family="Helvetica">800</text>
<text xml:space="preserve" x="46.0822" y="125.351" fill="black" font-size="19.4631" font-family="Helvetica">1000</text>
<text xml:space="preserve" x="46.0822" y="81.1934" fill="black" font-size="19.4631" font-family="Helvetica">1200</text>
<text xml:space="preserve" x="46.0822" y="37.7478" fill="black" font-size="19.4631" font-family="Helvetica">1400</text>
<g transform="rotate(-90,33.2622,165.236)">
<text xml:space="preserve" x="33.2622" y="165.236" fill="black" font-size="19.4631" font-family="Helvetica">Events / 0.2 GeV</text>
</g>
<path d="M539.083,337.737v -317.118" fill="none" stroke="black"/>
<path d="M523.512,337.737h 15.5703" fill="none" stroke="black"/>
<path d="M531.298,326.775h 7.78515" fill="none" stroke="black"/>
<path d="M531.298,315.812h 7.78515" fill="none" stroke="black"/>
<path d="M531.298,304.85h 7.78515" fill="none" stroke="black"/>
<path d="M523.512,293.888h 15.5703" fill="none" stroke="black"/>
<path d="M531.298,282.926h 7.78515" fill="none" stroke="black"/>
<path d="M531.298,271.964h 7.78515" fill="none" stroke="black"/>
<path d="M531.298,261.002h 7.78515" fill="none" stroke="black"/>
<path d="M523.512,250.04h 15.5703" fill="none" stroke="black"/>
<path d="M531.298,239.078h 7.78515" fill="none" stroke="black"/>
<path d="M531.298,228.116h 7.78515" fill="none" stroke="black"/>
<path d="M531.298,217.154h 7.78515" fill="none" stroke="black"/>
<path d="M523.512,206.191h 15.5703" fill="none" stroke="black"/>
<path d="M531.298,195.229h 7.78515" fill="none" stroke="black"/>
<path d="M531.298,184.267h 7.78515" fill="none" stroke="black"/>
<path d="M531.298,173.305h 7.78515" fill="none" stroke="black"/>
<path d="M523.512,162.343h 15.5703" fill="none" stroke="black"/>
<path d="M531.298,151.381h 7.78515" fill="none" stroke="black"/>
<path d="M531.298,140.419h 7.78515" fill="none" stroke="black"/>
<path d="M531.298,129.457h 7.78515" fill="none" stroke="black"/>
<path d="M523.512,118.495h 15.5703" fill="none" stroke="black"/>
<path d="M531.298,107.533h 7.78515" fill="none" stroke="black"/>
<path d="M531.298,96.5705h 7.78515" fill="none" stroke="black"/>
<path d="M531.298,85.6084h 7.78515" fill="none" stroke="black"/>
<path d="M523.512,74.6463h 15.5703" fill="none" stroke="black"/>
<path d="M531.298,63.6842h 7.78515" fill="none" stroke="black"/>
<path d="M531.298,52.7221h 7.78515" fill="none" stroke="black"/>
<path d="M531.298,41.76h 7.78515" fill="none" stroke="black"/>
<path d="M523.512,30.7979h 15.5703" fill="none" stroke="black"/>
<path d="M523.512,337.737h 15.5703" fill="none" stroke="black"/>
<path d="M523.512,30.7979h 15.5703" fill="none" stroke="black"/>
<path d="M91.2087,215.619h 8.95748v 12.0583h 8.95748v -1.97318h 8.95748v 12.0583h 8.95748v 1.31545h 8.95748v -1.09621h 8.95748v 12.716h 8.95748v 10.3044h 8.95748v -5.91953h 8.95748v 16.2239h 8.95748v -0.438484h 8.95748v -1.31545h 8.95748v -9.4274h
 8.95748v -5.70029h 8.95748v -22.5819h 8.95748v -18.1971h 8.95748v -30.2554h 8.95748v -37.2711h 8.95748v -30.0361h 8.95748v -26.0898h 8.95748v -18.6356h 8.95748v 4.60408h 8.95748v 3.50787h 8.95748v 38.1481h 8.95748v 8.11195h 8.95748v 37.0519h
 8.95748v 26.309h 8.95748v 26.7475h 8.95748v 37.9289h 8.95748v 18.8548h 8.95748v 24.1166h 8.95748v 10.5236h 8.95748v 9.64664h 8.95748v 0.438484h 8.95748v 3.28863h 8.95748v 2.6309h 8.95748v -3.06939h 8.95748v 2.41166h 17.915v -2.41166h 8.95748v
 3.50787h 8.95748v 2.19242h 8.95748v 2.19242h 8.95748v 0.219242h 8.95748v 1.75394h 8.95748v 3.50787h 8.95748v 2.85015h 8.95748v 0.876968h 8.95748v -2.19242h 8.95748v -1.53469h 8.95748" fill="none" stroke="#cc0000" stroke-width="2"/>
<path d="M91.2087,337.737h 447.874" fill="none" stroke="black"/>
<path d="M91.2087,329.527v 8.2096" fill="none" stroke="black"/>
<path d="M100.166,333.632v 4.1048" fill="none" stroke="black"/>
<path d="M109.124,333.632v 4.1048" fill="none" stroke="black"/>
<path d="M118.081,333.632v 4.1048" fill="none" stroke="black"/>
<path d="M127.039,333.632v 4.1048" fill="none" stroke="black"/>
<path d="M135.996,329.527v 8.2096" fill="none" stroke="black"/>
<path d="M144.954,333.632v 4.1048" fill="none" stroke="black"/>
<path d="M153.911,333.632v 4.1048" fill="none" stroke="black"/>
<path d="M162.868,333.632v 4.1048" fill="none" stroke="black"/>
<path d="M171.826,333.632v 4.1048" fill="none" stroke="black"/>
<path d="M180.783,329.527v 8.2096" fill="none" stroke="black"/>
<path d="M189.741,333.632v 4.1048" fill="none" stroke="black"/>
<path d="M198.698,333.632v 4.1048" fill="none" stroke="black"/>
<path d="M207.656,333.632v 4.1048" fill="none" stroke="black"/>
<path d="M216.613,333.632v 4.1048" fill="none" stroke="black"/>
<path d="M225.571,329.527v 8.2096" fill="none" stroke="black"/>
<path d="M234.528,333.632v 4.1048" fill="none" stroke="black"/>
<path d="M243.486,333.632v 4.1048" fill="none" stroke="black"/>
<path d="M252.443,333.632v 4.1048" fill="none" stroke="black"/>
<path d="M261.401,333.632v 4.1048" fill="none" stroke="black"/>
<path d="M270.358,329.527v 8.2096" fill="none" stroke="black"/>
<path d="M279.316,333.632v 4.1048" fill="none" stroke="black"/>
<path d="M288.273,333.632v 4.1048" fill="none" stroke="black"/>
<path d="M297.231,333.632v 4.1048" fill="none" stroke="black"/>
<path d="M306.188,333.632v 4.1048" fill="none" stroke="black"/>
<path d="M315.146,329.527v 8.2096" fill="none" stroke="black"/>
<path d="M324.103,333.632v 4.1048" fill="none" stroke="black"/>
<path d="M333.061,333.632v 4.1048" fill="none" stroke="black"/>
<path d="M342.018,333.632v 4.1048" fill="none" stroke="black"/>
<path d="M350.976,333.632v 4.1048" fill="none" stroke="black"/>
<path d="M359.933,329.527v 8.2096" fill="none" stroke="black"/>
<path d="M368.891,333.632v 4.1048" fill="none" stroke="black"/>
<path d="M377.848,333.632v 4.1048" fill="none" stroke="black"/>
<path d="M386.806,333.632v 4.1048" fill="none" stroke="black"/>
<path d="M395.763,333.632v 4.1048" fill="none" stroke="black"/>
<path d="M404.72,329.527v 8.2096" fill="none" stroke="black"/>
<path d="M413.678,333.632v 4.1048" fill="none" stroke="black"/>
<path d="M422.635,333.632v 4.1048" fill="none" stroke="black"/>
<path d="M431.593,333.632v 4.1048" fill="none" stroke="black"/>
<path d="M440.55,333.632v 4.1048" fill="none" stroke="black"/>
<path d="M449.508,329.527v 8.2096" fill="none" stroke="black"/>
<path d="M458.465,333.632v 4.1048" fill="none" stroke="black"/>
<path d="M467.423,333.632v 4.1048" fill="none" stroke="black"/>
<path d="M476.38,333.632v 4.1048" fill="none" stroke="black"/>
<path d="M485.338,333.632v 4.1048" fill="none" stroke="black"/>
<path d="M494.295,329.527v 8.2096" fill="none" stroke="black"/>
<path d="M503.253,333.632v 4.1048" fill="none" stroke="black"/>
<path d="M512.21,333.632v 4.1048" fill="none" stroke="black"/>
<path d="M521.168,333.632v 4.1048" fill="none" stroke="black"/>
<path d="M530.125,333.632v 4.1048" fill="none" stroke="black"/>
<path d="M539.083,329.527v 8.2096" fill="none" stroke="black"/>
<path d="M91.2087,20.6188h 447.874" fill="none" stroke="black"/>
<path d="M91.2087,28.8284v -8.2096" fill="none" stroke="black"/>
<path d="M100.166,24.7236v -4.1048" fill="none" stroke="black"/>
<path d="M109.124,24.7236v -4.1048" fill="none" stroke="black"/>
<path d="M118.081,24.7236v -4.1048" fill="none" stroke="black"/>
<path d="M127.039,24.7236v -4.1048" fill="none" stroke="black"/>
<path d="M135.996,28.8284v -8.2096" fill="none" stroke="black"/>
<path d="M144.954,24.7236v -4.1048" fill="none" stroke="black"/>
<path d="M153.911,24.7236v -4.1048" fill="none" stroke="black"/>
<path d="M162.868,24.7236v -4.1048" fill="none" stroke="black"/>
<path d="M171.826,24.7236v -4.1048" fill="none" stroke="black"/>
<path d="M180.783,28.8284v -8.2096" fill="none" stroke="black"/>
<path d="M189.741,24.7236v -4.1048" fill="none" stroke="black"/>
<path d="M198.698,24.7236v -4.1048" fill="none" stroke="black"/>
<path d="M207.656,24.7236v -4.1048" fill="none" stroke="black"/>
<path d="M216.613,24.7236v -4.1048" fill="none" stroke="black"/>
<path d="M225.571,28.8284v -8.2096" fill="none" stroke="black"/>
<path d="M234.528,24.7236v -4.1048" fill="none" stroke="black"/>
<path d="M243.486,24.7236v -4.1048" fill="none" stroke="black"/>
<path d="M252.443,24.7236v -4.1048" fill="none" stroke="black"/>
<path d="M261.401,24.7236v -4.1048" fill="none" stroke="black"/>
<path d="M270.358,28.8284v -8.2096" fill="none" stroke="black"/>
<path d="M279.316,24.7236v -4.1048" fill="none" stroke="black"/>
<path d="M288.273,24.7236v -4.1048" fill="none" stroke="black"/>
<path d="M297.231,24.7236v -4.1048" fill="none" stroke="black"/>
<path d="M306.188,24.7236v -4.1048" fill="none" stroke="black"/>
<path d="M315.146,28.8284v -8.2096" fill="none" stroke="black"/>
<path d="M324.103,24.7236v -4.1048" fill="none" stroke="black"/>
<path d="M333.061,24.7236v -4.1048" fill="none" stroke="black"/>
<path d="M342.018,24.7236v -4.1048" fill="none" stroke="black"/>
<path d="M350.976,24.7236v -4.1048" fill="none" stroke="black"/>
<path d="M359.933,28.8284v -8.2096" fill="none" stroke="black"/>
<path d="M368.891,24.7236v -4.1048" fill="none" stroke="black"/>
<path d="M377.848,24.7236v -4.1048" fill="none" stroke="black"/>
<path d="M386.806,24.7236v -4.1048" fill="none" stroke="black"/>
<path d="M395.763,24.7236v -4.1048" fill="none" stroke="black"/>
<path d="M404.72,28.8284v -8.2096" fill="none" stroke="black"/>
<path d="M413.678,24.7236v -4.1048" fill="none" stroke="black"/>
<path d="M422.635,24.7236v -4.1048" fill="none" stroke="black"/>
<path d="M431.593,24.7236v -4.1048" fill="none" stroke="black"/>
<path d="M440.55,24.7236v -4.1048" fill="none" stroke="black"/>
<path d="M449.508,28.8284v -8.2096" fill="none" stroke="black"/>
<path d="M458.465,24.7236v -4.1048" fill="none" stroke="black"/>
<path d="M467.423,24.7236v -4.1048" fill="none" stroke="black"/>
<path d="M476.38,24.7236v -4.1048" fill="none" stroke="black"/>
<path d="M485.338,24.7236v -4.1048" fill="none" stroke="black"/>
<path d="M494.295,28.8284v -8.2096" fill="none" stroke="black"/>
<path d="M503.253,24.7236v -4.1048" fill="none" stroke="black"/>
<path d="M512.21,24.7236v -4.1048" fill="none" stroke="black"/>
<path d="M521.168,24.7236v -4.1048" fill="none" stroke="black"/>
<path d="M530.125,24.7236v -4.1048" fill="none" stroke="black"/>
<path d="M539.083,28.8284v -8.2096" fill="none" stroke="black"/>
<path d="M91.2087,337.737v -317.118" fill="none" stroke="black"/>
<path d="M106.779,337.737h -15.5703" fill="none" stroke="black"/>
<path d="M98.9938,326.775h -7.78515" fill="none" stroke="black"/>
<path d="M98.9938,315.812h -7.78515" fill="none" stroke="black"/>
<path d="M98.9938,304.85h -7.78515" fill="none" stroke="black"/>
<path d="M106.779,293.888h -15.5703" fill="none" stroke="black"/>
<path d="M98.9938,282.926h -7.78515" fill="none" stroke="black"/>
<path d="M98.9938,271.964h -7.78515" fill="none" stroke="black"/>
<path d="M98.9938,261.002h -7.78515" fill="none" stroke="black"/>
<path d="M106.779,250.04h -15.5703" fill="none" stroke="black"/>
<path d="M98.9938,239.078h -7.78515" fill="none" stroke="black"/>
<path d="M98.9938,228.116h -7.78515" fill="none" stroke="black"/>
<path d="M98.9938,217.154h -7.78515" fill="none" stroke="black"/>
<path d="M106.779,206.191h -15.5703" fill="none" stroke="black"/>
<path d="M98.9938,195.229h -7.78515" fill="none" stroke="black"/>
<path d="M98.9938,184.267h -7.78515" fill="none" stroke="black"/>
<path d="M98.9938,173.305h -7.78515" fill="none" stroke="black"/>
<path d="M106.779,162.343h -15.5703" fill="none" stroke="black"/>
<path d="M98.9938,151.381h -7.78515" fill="none" stroke="black"/>
<path d="M98.9938,140.419h -7.78515" fill="none" stroke="black"/>
<path d="M98.9938,129.457h -7.78515" fill="none" stroke="black"/>
<path d="M106.779,118.495h -15.5703" fill="none" stroke="black"/>
<path d="M98.9938,107.533h -7.78515" fill="none" stroke="black"/>
<path d="M98.9938,96.5705h -7.78515" fill="none" stroke="black"/>
<path d="M98.9938,85.6084h -7.78515" fill="none" stroke="black"/>
<path d="M106.779,74.6463h -15.5703" fill="none" stroke="black"/>
<path d="M98.9938,63.6842h -7.78515" fill="none" stroke="black"/>
<path d="M98.9938,52.7221h -7.78515" fill="none" stroke="black"/>
<path d="M98.9938,41.76h -7.78515" fill="none" stroke="black"/>
<path d="M106.779,30.7979h -15.5703" fill="none" stroke="black"/>
<path d="M106.779,337.737h -15.5703" fill="none" stroke="black"/>
<path d="M106.779,30.7979h -15.5703" fill="none" stroke="black"/>
<path d="M539.083,337.737v -317.118" fill="none" stroke="black"/>
<path d="M523.512,337.737h 15.5703" fill="none" stroke="black"/>
<path d="M531.298,326.775h 7.78515" fill="none" stroke="black"/>
<path d="M531.298,315.812h 7.78515" fill="none" stroke="black"/>
<path d="M531.298,304.85h 7.78515" fill="none" stroke="black"/>
<path d="M523.512,293.888h 15.5703" fill="none" stroke="black"/>
<path d="M531.298,282.926h 7.78515" fill="none" stroke="black"/>
<path d="M531.298,271.964h 7.78515" fill="none" stroke="black"/>
<path d="M531.298,261.002h 7.78515" fill="none" stroke="black"/>
<path d="M523.512,250.04h 15.5703" fill="none" stroke="black"/>
<path d="M531.298,239.078h 7.78515" fill="none" stroke="black"/>
<path d="M531.298,228.116h 7.78515" fill="none" stroke="black"/>
<path d="M531.298,217.154h 7.78515" fill="none" stroke="black"/>
<path d="M523.512,206.191h 15.5703" fill="none" stroke="black"/>
<path d="M531.298,195.229h 7.78515" fill="none" stroke="black"/>
<path d="M531.298,184.267h 7.78515" fill="none" stroke="black"/>
<path d="M531.298,173.305h 7.78515" fill="none" stroke="black"/>
<path d="M523.512,162.343h 15.5703" fill="none" stroke="black"/>
<path d="M531.298,151.381h 7.78515" fill="none" stroke="black"/>
<path d="M531.298,140.419h 7.78515" fill="none" stroke="black"/>
<path d="M531.298,129.457h 7.78515" fill="none" stroke="black"/>
<path d="M523.512,118.495h 15.5703" fill="none" stroke="black"/>
<path d="M531.298,107.533h 7.78515" fill="none" stroke="black"/>
<path d="M531.298,96.5705h 7.78515" fill="none" stroke="black"/>
<path d="M531.298,85.6084h 7.78515" fill="none" stroke="black"/>
<path d="M523.512,74.6463h 15.5703" fill="none" stroke="black"/>
<path d="M531.298,63.6842h 7.78515" fill="none" stroke="black"/>
<path d="M531.298,52.7221h 7.78515" fill="none" stroke="black"/>
<path d="M531.298,41.76h 7.78515" fill="none" stroke="black"/>
<path d="M523.512,30.7979h 15.5703" fill="none" stroke="black"/>
<path d="M523.512,337.737h 15.5703" fill="none" stroke="black"/>
<path d="M523.512,30.7979h 15.5703" fill="none" stroke="black"/>
<path d="M91.2087,231.624h 8.95748v 2.19242h 8.95748v -4.82332h 8.95748v 12.4968h 8.95748v -5.26181h 8.95748v 4.38484h 8.95748v 4.82332h 8.95748v 16.8816h 8.95748v -4.60408h 8.95748v 10.5236h 8.95748v 1.75394h 8.95748v -1.97318h 8.95748v -5.04256h
 8.95748v -16.4431h 8.95748v -22.1434h 8.95748v -11.1813h 8.95748v -17.3201h 8.95748v -31.3516h 8.95748v -33.7633h 8.95748v -30.9131h 8.95748v -5.91953h 8.95748v -5.48105h 17.915v 10.3044h 8.95748v 37.9289h 8.95748v 21.2665h 8.95748v 10.7429h
 8.95748v 31.3516h 8.95748v 37.4904h 8.95748v 19.5125h 8.95748v 27.6245h 8.95748v 12.716h 8.95748v 15.3469h 8.95748v 5.26181h 8.95748v 0.657726h 8.95748v 0.438484h 8.95748v 3.94635h 8.95748v -1.09621h 8.95748v 0.219242h 8.95748v 1.09621h 8.95748v
 1.97318h 8.95748v -2.41166h 8.95748v 7.45423h 8.95748v -1.97318h 8.95748v 3.28863h 8.95748v 2.19242h 8.95748v 1.75394h 8.95748v 1.09621h 8.95748v -2.19242h 8.95748v -2.41166h 8.95748" fill="none" stroke="#0000cc" stroke-width="2"/>
<path d="M91.2087,337.737h 447.874" fill="none" stroke="black"/>
<path d="M91.2087,329.527v 8.2096" fill="none" stroke="black"/>
<path d="M100.166,333.632v 4.1048" fill="none" stroke="black"/>
<path d="M109.124,333.632v 4.1048" fill="none" stroke="black"/>
<path d="M118.081,333.632v 4.1048" fill="none" stroke="black"/>
<path d="M127.039,333.632v 4.1048" fill="none" stroke="black"/>
<path d="M135.996,329.527v 8.2096" fill="none" stroke="black"/>
<path d="M144.954,333.632v 4.1048" fill="none" stroke="black"/>
<path d="M153.911,333.632v 4.1048" fill="none" stroke="black"/>
<path d="M162.868,333.632v 4.1048" fill="none" stroke="black"/>
<path d="M171.826,333.632v 4.1048" fill="none" stroke="black"/>
<path d="M180.783,329.527v 8.2096" fill="none" stroke="black"/>
<path d="M189.741,333.632v 4.1048" fill="none" stroke="black"/>
<path d="M198.698,333.632v 4.1048" fill="none" stroke="black"/>
<path d="M207.656,333.632v 4.1048" fill="none" stroke="black"/>
<path d="M216.613,333.632v 4.1048" fill="none" stroke="black"/>
<path d="M225.571,329.527v 8.2096" fill="none" stroke="black"/>
<path d="M234.528,333.632v 4.1048" fill="none" stroke="black"/>
<path d="M243.486,333.632v 4.1048" fill="none" stroke="black"/>
<path d="M252.443,333.632v 4.1048" fill="none" stroke="black"/>
<path d="M261.401,333.632v 4.1048" fill="none" stroke="black"/>
<path d="M270.358,329.527v 8.2096" fill="none" stroke="black"/>
<path d="M279.316,333.632v 4.1048" fill="none" stroke="black"/>
<path d="M288.273,333.632v 4.1048" fill="none" stroke="black"/>
<path d="M297.231,333.632v 4.1048" fill="none" stroke="black"/>
<path d="M306.188,333.632v 4.1048" fill="none" stroke="black"/>
<path d="M315.146,329.527v 8.2096" fill="none" stroke="black"/>
<path d="M324.103,333.632v 4.1048" fill="none" stroke="black"/>
<path d="M333.061,333.632v 4.1048" fill="none" stroke="black"/>
<path d="M342.018,333.632v 4.1048" fill="none" stroke="black"/>
<path d="M350.976,333.632v 4.1048" fill="none" stroke="black"/>
<path d="M359.933,329.527v 8.2096" fill="none" stroke="black"/>
<path d="M368.891,333.632v 4.1048" fill="none" stroke="black"/>
<path d="M377.848,333.632v 4.1048" fill="none" stroke="black"/>
<path d="M386.806,333.632v 4.1048" fill="none" stroke="black"/>
<path d="M395.763,333.632v 4.1048" fill="none" stroke="black"/>
<path d="M404.72,329.527v 8.2096" fill="none" stroke="black"/>
<path d="M413.678,333.632v 4.1048" fill="none" stroke="black"/>
<path d="M422.635,333.632v 4.1048" fill="none" stroke="black"/>
<path d="M431.593,333.632v 4.1048" fill="none" stroke="black"/>
<path d="M440.55,333.632v 4.1048" fill="none" stroke="black"/>
<path d="M449.508,329.527v 8.2096" fill="none" stroke="black"/>
<path d="M458.465,333.632v 4.1048" fill="none" stroke="black"/>
<path d="M467.423,333.632v 4.1048" fill="none" stroke="black"/>
<path d="M476.38,333.632v 4.1048" fill="none" stroke="black"/>
<path d="M485.338,333.632v 4.1048" fill="none" stroke="black"/>
<path d="M494.295,329.527v 8.2096" fill="none" stroke="black"/>
<path d="M503.253,333.632v 4.1048" fill="none" stroke="black"/>
<path d="M512.21,333.632v 4.1048" fill="none" stroke="black"/>
<path d="M521.168,333.632v 4.1048" fill="none" stroke="black"/>
<path d="M530.125,333.632v 4.1048" fill="none" stroke="black"/>
<path d="M539.083,329.527v 8.2096" fill="none" stroke="black"/>
<path d="M91.2087,20.6188h 447.874" fill="none" stroke="black"/>
<path d="M91.2087,28.8284v -8.2096" fill="none" stroke="black"/>
<path d="M100.166,24.7236v -4.1048" fill="none" stroke="black"/>
<path d="M109.124,24.7236v -4.1048" fill="none" stroke="black"/>
<path d="M118.081,24.7236v -4.1048" fill="none" stroke="black"/>
<path d="M127.039,24.7236v -4.1048" fill="none" stroke="black"/>
<path d="M135.996,28.8284v -8.2096" fill="none" stroke="black"/>
<path d="M144.954,24.7236v -4.1048" fill="none" stroke="black"/>
<path d="M153.911,24.7236v -4.1048" fill="none" stroke="black"/>
<path d="M162.868,24.7236v -4.1048" fill="none" stroke="black"/>
<path d="M171.826,24.7236v -4.1048" fill="none" stroke="black"/>
<path d="M180.783,28.8284v -8.2096" fill="none" stroke="black"/>
<path d="M189.741,24.7236v -4.1048" fill="none" stroke="black"/>
<path d="M198.698,24.7236v -4.1048" fill="none" stroke="black"/>
<path d="M207.656,24.7236v -4.1048" fill="none" stroke="black"/>
<path d="M216.613,24.7236v -4.1048" fill="none" stroke="black"/>
<path d="M225.571,28.8284v -8.2096" fill="none" stroke="black"/>
<path d="M234.528,24.7236v -4.1048" fill="none" stroke="black"/>
<path d="M243.486,24.7236v -4.1048" fill="none" stroke="black"/>
<path d="M252.443,24.7236v -4.1048" fill="none" stroke="black"/>
<path d="M261.401,24.7236v -4.1048" fill="none" stroke="black"/>
<path d="M270.358,28.8284v -8.2096" fill="none" stroke="black"/>
<path d="M279.316,24.7236v -4.1048" fill="none" stroke="black"/>
<path d="M288.273,24.7236v -4.1048" fill="none" stroke="black"/>
<path d="M297.231,24.7236v -4.1048" fill="none" stroke="black"/>
<path d="M306.188,24.7236v -4.1048" fill="none" stroke="black"/>
<path d="M315.146,28.8284v -8.2096" fill="none" stroke="black"/>
<path d="M324.103,24.7236v -4.1048" fill="none" stroke="black"/>
<path d="M333.061,24.7236v -4.1048" fill="none" stroke="black"/>
<path d="M342.018,24.7236v -4.1048" fill="none" stroke="black"/>
<path d="M350.976,24.7236v -4.1048" fill="none" stroke="black"/>
<path d="M359.933,28.8284v -8.2096" fill="none" stroke="black"/>
<path d="M368.891,24.7236v -4.1048" fill="none" stroke="black"/>
<path d="M377.848,24.7236v -4.1048" fill="none" stroke="black"/>
<path d="M386.806,24.7236v -4.1048" fill="none" stroke="black"/>
<path d="M395.763,24.7236v -4.1048" fill="none" stroke="black"/>
<path d="M404.72,28.8284v -8.2096" fill="none" stroke="black"/>
<path d="M413.678,24.7236v -4.1048" fill="none" stroke="black"/>
<path d="M422.635,24.7236v -4.1048" fill="none" stroke="black"/>
<path d="M431.593,24.7236v -4.1048" fill="none" stroke="black"/>
<path d="M440.55,24.7236v -4.1048" fill="none" stroke="black"/>
<path d="M449.508,28.8284v -8.2096" fill="none" stroke="black"/>
<path d="M458.465,24.7236v -4.1048" fill="none" stroke="black"/>
<path d="M467.423,24.7236v -4.1048" fill="none" stroke="black"/>
<path d="M476.38,24.7236v -4.1048" fill="none" stroke="black"/>
<path d="M485.338,24.7236v -4.1048" fill="none" stroke="black"/>
<path d="M494.295,28.8284v -8.2096" fill="none" stroke="black"/>
<path d="M503.253,24.7236v -4.1048" fill="none" stroke="black"/>
<path d="M512.21,24.7236v -4.1048" fill="none" stroke="black"/>
<path d="M521.168,24.7236v -4.1048" fill="none" stroke="black"/>
<path d="M530.125,24.7236v -4.1048" fill="none" stroke="black"/>
<path d="M539.083,28.8284v -8.2096" fill="none" stroke="black"/>
<path d="M91.2087,337.737v -317.118" fill="none" stroke="black"/>
<path d="M106.779,337.737h -15.5703" fill="none" stroke="black"/>
<path d="M98.9938,326.775h -7.78515" fill="none" stroke="black"/>
<path d="M98.9938,315.812h -7.78515" fill="none" stroke="black"/>
<path d="M98.9938,304.85h -7.78515" fill="none" stroke="black"/>
<path d="M106.779,293.888h -15.5703" fill="none" stroke="black"/>
<path d="M98.9938,282.926h -7.78515" fill="none" stroke="black"/>
<path d="M98.9938,271.964h -7.78515" fill="none" stroke="black"/>
<path d="M98.9938,261.002h -7.78515" fill="none" stroke="black"/>
<path d="M106.779,250.04h -15.5703" fill="none" stroke="black"/>
<path d="M98.9938,239.078h -7.78515" fill="none" stroke="black"/>
<path d="M98.9938,228.116h -7.78515" fill="none" stroke="black"/>
<path d="M98.9938,217.154h -7.78515" fill="none" stroke="black"/>
<path d="M106.779,206.191h -15.5703" fill="none" stroke="black"/>
<path d="M98.9938,195.229h -7.78515" fill="none" stroke="black"/>
<path d="M98.9938,184.267h -7.78515" fill="none" stroke="black"/>
<path d="M98.9938,173.305h -7.78515" fill="none" stroke="black"/>
<path d="M106.779,162.343h -15.5703" fill="none" stroke="black"/>
<path d="M98.9938,151.381h -7.78515" fill="none" stroke="black"/>
<path d="M98.9938,140.419h -7.78515" fill="none" stroke="black"/>
<path d="M98.9938,129.457h -7.78515" fill="none" stroke="black"/>
<path d="M106.779,118.495h -15.5703" fill="none" stroke="black"/>
<path d="M98.9938,107.533h -7.78515" fill="none" stroke="black"/>
<path d="M98.9938,96.5705h -7.78515" fill="none" stroke="black"/>
<path d="M98.9938,85.6084h -7.78515" fill="none" stroke="black"/>
<path d="M106.779,74.6463h -15.5703" fill="none" stroke="black"/>
<path d="M98.9938,63.6842h -7.78515" fill="none" stroke="black"/>
<path d="M98.9938,52.7221h -7.78515" fill="none" stroke="black"/>
<path d="M98.9938,41.76h -7.78515" fill="none" stroke="black"/>
<path d="M106.779,30.7979h -15.5703" fill="none" stroke="black"/>
<path d="M106.779,337.737h -15.5703" fill="none" stroke="black"/>
<path d="M106.779,30.7979h -15.5703" fill="none" stroke="black"/>
<path d="M539.083,337.737v -317.118" fill="none" stroke="black"/>
<path d="M523.512,337.737h 15.5703" fill="none" stroke="black"/>
<path d="M531.298,326.775h 7.78515" fill="none" stroke="black"/>
<path d="M531.298,315.812h 7.78515" fill="none" stroke="black"/>
<path d="M531.298,304.85h 7.78515" fill="none" stroke="black"/>
<path d="M523.512,293.888h 15.5703" fill="none" stroke="black"/>
<path d="M531.298,282.926h 7.78515" fill="none" stroke="black"/>
<path d="M531.298,271.964h 7.78515" fill="none" stroke="black"/>
<path d="M531.298,261.002h 7.78515" fill="none" stroke="black"/>
<path d="M523.512,250.04h 15.5703" fill="none" stroke="black"/>
<path d="M531.298,239.078h 7.78515" fill="none" stroke="black"/>
<path d="M531.298,228.116h 7.78515" fill="none" stroke="black"/>
<path d="M531.298,217.154h 7.78515" fill="none" stroke="black"/>
<path d="M523.512,206.191h 15.5703" fill="none" stroke="black"/>
<path d="M531.298,195.229h 7.78515" fill="none" stroke="black"/>
<path d="M531.298,184.267h 7.78515" fill="none" stroke="black"/>
<path d="M531.298,173.305h 7.78515" fill="none" stroke="black"/>
<path d="M523.512,162.343h 15.5703" fill="none" stroke="black"/>
<path d="M531.298,151.381h 7.78515" fill="none" stroke="black"/>
<path d="M531.298,140.419h 7.78515" fill="none" stroke="black"/>
<path d="M531.298,129.457h 7.78515" fill="none" stroke="black"/>
<path d="M523.512,118.495h 15.5703" fill="none" stroke="black"/>
<path d="M531.298,107.533h 7.78515" fill="none" stroke="black"/>
<path d="M531.298,96.5705h 7.78515" fill="none" stroke="black"/>
<path d="M531.298,85.6084h 7.78515" fill="none" stroke="black"/>
<path d="M523.512,74.6463h 15.5703" fill="none" stroke="black"/>
<path d="M531.298,63.6842h 7.78515" fill="none" stroke="black"/>
<path d="M531.298,52.7221h 7.78515" fill="none" stroke="black"/>
<path d="M531.298,41.76h 7.78515" fill="none" stroke="black"/>
<path d="M523.512,30.7979h 15.5703" fill="none" stroke="black"/>
<path d="M523.512,337.737h 15.5703" fill="none" stroke="black"/>
<path d="M523.512,30.7979h 15.5703" fill="none" stroke="black"/>
<text xml:space="preserve" x="179.268" y="49.1434" fill="black" font-size="19.4631" font-family="Helvetica"> Internal</text>
<text xml:space="preserve" x="113.743" y="49.1434" fill="black" font-size="19.4631" font-family="Helvetica" font-weight="bold" font-style="oblique">ATLAS</text>
<text xml:space="preserve" x="243.368" y="61.9634" fill="black" font-size="10.0905" font-family="Helvetica">-1</text>
<text xml:space="preserve" x="128.7" y="68.3734" fill="black" font-size="14.8858" font-family="Helvetica"> = 13 TeV, 139 fb</text>
<text xml:space="preserve" x="121.578" y="68.3734" fill="black" font-size="14.8858" font-family="Helvetica">s</text>
<path d="M116.592,59.8267l 1.42445, 9.25889" fill="none" stroke="black"/>
<path d="M118.017,69.0856l 1.42445, -12.82" fill="none" stroke="black"/>
<path d="M119.441,56.2656h 9.25889" fill="none" stroke="black"/>
<rect x="442.705" y="34.6397" width="124.724" height="41.5676" fill="white" fill-opacity="0.00" stroke-opacity="0.00"/>
<text xml:space="preserve" x="473.416" y="49.1434" fill="black" font-size="19.4631" font-family="Helvetica">Red</text>
<path d="M447.382,45.0316h 21.8268" fill="none" stroke="#cc0000" stroke-width="2"/>
<text xml:space="preserve" x="473.416" y="69.7978" fill="black" font-size="19.4631" font-family="Helvetica">Blue</text>
<path d="M447.382,65.8153h 21.8268" fill="none" stroke="#0000cc" stroke-width="2"/>
<rect x="0.5" y="346.397" width="566.929" height="203.439" fill="white"/>
<rect x="91.2087" y="351.483" width="447.874" height="132.373" fill="white"/>
<rect x="91.2087" y="351.483" width="447.874" height="132.373" fill="none" stroke="black"/>
<rect x="91.2087" y="351.483" width="447.874" height="132.373" fill="white"/>
<rect x="91.2087" y="351.483" width="447.874" height="132.373" fill="none" stroke="black"/>
<path d="M91.2087,483.855h 447.874" fill="none" stroke="black"/>
<path d="M91.2087,479.034v 4.82151" fill="none" stroke="black"/>
<path d="M100.166,481.445v 2.41075" fill="none" stroke="black"/>
<path d="M109.124,481.445v 2.41075" fill="none" stroke="black"/>
<path d="M118.081,481.445v 2.41075" fill="none" stroke="black"/>
<path d="M127.039,481.445v 2.41075" fill="none" stroke="black"/>
<path d="M135.996,479.034v 4.82151" fill="none" stroke="black"/>
<path d="M144.954,481.445v 2.41075" fill="none" stroke="black"/>
<path d="M153.911,481.445v 2.41075" fill="none" stroke="black"/>
<path d="M162.868,481.445v 2.41075" fill="none" stroke="black"/>
<path d="M171.826,481.445v 2.41075" fill="none" stroke="black"/>
<path d="M180.783,479.034v 4.82151" fill="none" stroke="black"/>
<path d="M189.741,481.445v 2.41075" fill="none" stroke="black"/>
<path d="M198.698,481.445v 2.41075" fill="none" stroke="black"/>
<path d="M207.656,481.445v 2.41075" fill="none" stroke="black"/>
<path d="M216.613,481.445v 2.41075" fill="none" stroke="black"/>
<path d="M225.571,479.034v 4.82151" fill="none" stroke="black"/>
<path d="M234.528,481.445v 2.41075" fill="none" stroke="black"/>
<path d="M243.486,481.445v 2.41075" fill="none" stroke="black"/>
<path d="M252.443,481.445v 2.41075" fill="none" stroke="black"/>
<path d="M261.401,481.445v 2.41075" fill="none" stroke="black"/>
<path d="M270.358,479.034v 4.82151" fill="none" stroke="black"/>
<path d="M279.316,481.445v 2.41075" fill="none" stroke="black"/>
<path d="M288.273,481.445v 2.41075" fill="none" stroke="black"/>
<path d="M297.231,481.445v 2.41075" fill="none" stroke="black"/>
<path d="M306.188,481.445v 2.41075" fill="none" stroke="black"/>
<path d="M315.146,479.034v 4.82151" fill="none" stroke="black"/>
<path d="M324.103,481.445v 2.41075" fill="none" stroke="black"/>
<path d="M333.061,481.445v 2.41075" fill="none" stroke="black"/>
<path d="M342.018,481.445v 2.41075" fill="none" stroke="black"/>
<path d="M350.976,481.445v 2.41075" fill="none" stroke="black"/>
<path d="M359.933,479.034v 4.82151" fill="none" stroke="black"/>
<path d="M368.891,481.445v 2.41075" fill="none" stroke="black"/>
<path d="M377.848,481.445v 2.41075" fill="none" stroke="black"/>
<path d="M386.806,481.445v 2.41075" fill="none" stroke="black"/>
<path d="M395.763,481.445v 2.41075" fill="none" stroke="black"/>
<path d="M404.72,479.034v 4.82151" fill="none" stroke="black"/>
<path d="M413.678,481.445v 2.41075" fill="none" stroke="black"/>
<path d="M422.635,481.445v 2.41075" fill="none" stroke="black"/>
<path d="M431.593,481.445v 2.41075" fill="none" stroke="black"/>
<path d="M440.55,481.445v 2.41075" fill="none" stroke="black"/>
<path d="M449.508,479.034v 4.82151" fill="none" stroke="black"/>
<path d="M458.465,481.445v 2.41075" fill="none" stroke="black"/>
<path d="M467.423,481.445v 2.41075" fill="none" stroke="black"/>
<path d="M476.38,481.445v 2.41075" fill="none" stroke="black"/>
<path d="M485.338,481.445v 2.41075" fill="none" stroke="black"/>
<path d="M494.295,479.034v 4.82151" fill="none" stroke="black"/>
<path d="M503.253,481.445v 2.41075" fill="none" stroke="black"/>
<path d="M512.21,481.445v 2.41075" fill="none" stroke="black"/>
<path d="M521.168,481.445v 2.41075" fill="none" stroke="black"/>
<path d="M530.125,481.445v 2.41075" fill="none" stroke="black"/>
<path d="M539.083,479.034v 4.82151" fill="none" stroke="black"/>
<text xml:space="preserve" x="85.9667" y="500.692" fill="black" font-size="19.4252" font-family="Helvetica">0</text>
<text xml:space="preserve" x="132.261" y="500.692" fill="black" font-size="19.4252" font-family="Helvetica">1</text>
<text xml:space="preserve" x="175.707" y="500.692" fill="black" font-size="19.4252" font-family="Helvetica">2</text>
<text xml:space="preserve" x="220.577" y="500.692" fill="black" font-size="19.4252" font-family="Helvetica">3</text>
<text xml:space="preserve" x="264.022" y="500.692" fill="black" font-size="19.4252" font-family="Helvetica">4</text>
<text xml:space="preserve" x="309.605" y="500.692" fill="black" font-size="19.4252" font-family="Helvetica">5</text>
<text xml:space="preserve" x="354.475" y="500.692" fill="black" font-size="19.4252" font-family="Helvetica">6</text>
<text xml:space="preserve" x="398.632" y="500.692" fill="black" font-size="19.4252" font-family="Helvetica">7</text>
<text xml:space="preserve" x="444.215" y="500.692" fill="black" font-size="19.4252" font-family="Helvetica">8</text>
<text xml:space="preserve" x="489.085" y="500.692" fill="black" font-size="19.4252" font-family="Helvetica">9</text>
<text xml:space="preserve" x="528.257" y="500.692" fill="black" font-size="19.4252" font-family="Helvetica">10</text>
<text xml:space="preserve" x="472.704" y="535.591" fill="black" font-size="19.4252" font-family="Helvetica">X [GeV]</text>
<path d="M91.2087,351.483h 447.874" fill="none" stroke="black"/>
<path d="M91.2087,356.304v -4.82151" fill="none" stroke="black"/>
<path d="M100.166,353.893v -2.41075" fill="none" stroke="black"/>
<path d="M109.124,353.893v -2.41075" fill="none" stroke="black"/>
<path d="M118.081,353.893v -2.41075" fill="none" stroke="black"/>
<path d="M127.039,353.893v -2.41075" fill="none" stroke="black"/>
<path d="M135.996,356.304v -4.82151" fill="none" stroke="black"/>
<path d="M144.954,353.893v -2.41075" fill="none" stroke="black"/>
<path d="M153.911,353.893v -2.41075" fill="none" stroke="black"/>
<path d="M162.868,353.893v -2.41075" fill="none" stroke="black"/>
<path d="M171.826,353.893v -2.41075" fill="none" stroke="black"/>
<path d="M180.783,356.304v -4.82151" fill="none" stroke="black"/>
<path d="M189.741,353.893v -2.41075" fill="none" stroke="black"/>
<path d="M198.698,353.893v -2.41075" fill="none" stroke="black"/>
<path d="M207.656,353.893v -2.41075" fill="none" stroke="black"/>
<path d="M216.613,353.893v -2.41075" fill="none" stroke="black"/>
<path d="M225.571,356.304v -4.82151" fill="none" stroke="black"/>
<path d="M234.528,353.893v -2.41075" fill="none" stroke="black"/>
<path d="M243.486,353.893v -2.41075" fill="none" stroke="black"/>
<path d="M252.443,353.893v -2.41075" fill="none" stroke="black"/>
<path d="M261.401,353.893v -2.41075" fill="none" stroke="black"/>
<path d="M270.358,356.304v -4.82151" fill="none" stroke="black"/>
<path d="M279.316,353.893v -2.41075" fill="none" stroke="black"/>
<path d="M288.273,353.893v -2.41075" fill="none" stroke="black"/>
<path d="M297.231,353.893v -2.41075" fill="none" stroke="black"/>
<path d="M306.188,353.893v -2.41075" fill="none" stroke="black"/>
<path d="M315.146,356.304v -4.82151" fill="none" stroke="black"/>
<path d="M324.103,353.893v -2.41075" fill="none" stroke="black"/>
<path d="M333.061,353.893v -2.41075" fill="none" stroke="black"/>
<path d="M342.018,353.893v -2.41075" fill="none" stroke="black"/>
<path d="M350.976,353.893v -2.41075" fill="none" stroke="black"/>
<path d="M359.933,356.304v -4.82151" fill="none" stroke="black"/>
<path d="M368.891,353.893v -2.41075" fill="none" stroke="black"/>
<path d="M377.848,353.893v -2.41075" fill="none" stroke="black"/>
<path d="M386.806,353.893v -2.41075" fill="none" stroke="black"/>
<path d="M395.763,353.893v -2.41075" fill="none" stroke="black"/>
<path d="M404.72,356.304v -4.82151" fill="none" stroke="black"/>
<path d="M413.678,353.893v -2.41075" fill="none" stroke="black"/>
<path d="M422.635,353.893v -2.41075" fill="none" stroke="black"/>
<path d="M431.593,353.893v -2.41075" fill="none" stroke="black"/>
<path d="M440.55,353.893v -2.41075" fill="none" stroke="black"/>
<path d="M449.508,356.304v -4.82151" fill="none" stroke="black"/>
<path d="M458.465,353.893v -2.41075" fill="none" stroke="black"/>
<path d="M467.423,353.893v -2.41075" fill="none" stroke="black"/>
<path d="M476.38,353.893v -2.41075" fill="none" stroke="black"/>
<path d="M485.338,353.893v -2.41075" fill="none" stroke="black"/>
<path d="M494.295,356.304v -4.82151" fill="none" stroke="black"/>
<path d="M503.253,353.893v -2.41075" fill="none" stroke="black"/>
<path d="M512.21,353.893v -2.41075" fill="none" stroke="black"/>
<path d="M521.168,353.893v -2.41075" fill="none" stroke="black"/>
<path d="M530.125,353.893v -2.41075" fill="none" stroke="black"/>
<path d="M539.083,356.304v -4.82151" fill="none" stroke="black"/>
<path d="M91.2087,483.855v -132.373" fill="none" stroke="black"/>
<path d="M102.275,470.618h -11.0666" fill="none" stroke="black"/>
<path d="M96.742,462.435h -5.53331" fill="none" stroke="black"/>
<path d="M96.742,454.252h -5.53331" fill="none" stroke="black"/>
<path d="M96.742,446.069h -5.53331" fill="none" stroke="black"/>
<path d="M96.742,437.886h -5.53331" fill="none" stroke="black"/>
<path d="M102.275,429.703h -11.0666" fill="none" stroke="black"/>
<path d="M96.742,421.52h -5.53331" fill="none" stroke="black"/>
<path d="M96.742,413.337h -5.53331" fill="none" stroke="black"/>
<path d="M96.742,405.154h -5.53331" fill="none" stroke="black"/>
<path d="M96.742,396.971h -5.53331" fill="none" stroke="black"/>
<path d="M102.275,388.788h -11.0666" fill="none" stroke="black"/>
<path d="M102.275,470.618h -11.0666" fill="none" stroke="black"/>
<path d="M96.742,478.801h -5.53331" fill="none" stroke="black"/>
<path d="M102.275,388.788h -11.0666" fill="none" stroke="black"/>
<path d="M96.742,380.605h -5.53331" fill="none" stroke="black"/>
<path d="M96.742,372.422h -5.53331" fill="none" stroke="black"/>
<path d="M96.742,364.238h -5.53331" fill="none" stroke="black"/>
<path d="M96.742,356.055h -5.53331" fill="none" stroke="black"/>
<text xml:space="preserve" x="78.1323" y="477.189" fill="black" font-size="19.4252" font-family="Helvetica">0</text>
<text xml:space="preserve" x="61.7511" y="436.592" fill="black" font-size="19.4252" font-family="Helvetica">0.5</text>
<text xml:space="preserve" x="80.9811" y="395.996" fill="black" font-size="19.4252" font-family="Helvetica">1</text>
<g transform="rotate(-90,33.2622,461.52)">
<text xml:space="preserve" x="33.2622" y="461.52" fill="black" font-size="19.4252" font-family="Helvetica">Red / Blue</text>
</g>
<path d="M539.083,483.855v -132.373" fill="none" stroke="black"/>
<path d="M528.016,470.618h 11.0666" fill="none" stroke="black"/>
<path d="M533.549,462.435h 5.53331" fill="none" stroke="black"/>
<path d="M533.549,454.252h 5.53331" fill="none" stroke="black"/>
<path d="M533.549,446.069h 5.53331" fill="none" stroke="black"/>
<path d="M533.549,437.886h 5.53331" fill="none" stroke="black"/>
<path d="M528.016,429.703h 11.0666" fill="none" stroke="black"/>
<path d="M533.549,421.52h 5.53331" fill="none" stroke="black"/>
<path d="M533.549,413.337h 5.53331" fill="none" stroke="black"/>
<path d="M533.549,405.154h 5.53331" fill="none" stroke="black"/>
<path d="M533.549,396.971h 5.53331" fill="none" stroke="black"/>
<path d="M528.016,388.788h 11.0666" fill="none" stroke="black"/>
<path d="M528.016,470.618h 11.0666" fill="none" stroke="black"/>
<path d="M533.549,478.801h 5.53331" fill="none" stroke="black"/>
<path d="M528.016,388.788h 11.0666" fill="none" stroke="black"/>
<path d="M533.549,380.605h 5.53331" fill="none" stroke="black"/>
<path d="M533.549,372.422h 5.53331" fill="none" stroke="black"/>
<path d="M533.549,364.238h 5.53331" fill="none" stroke="black"/>
<path d="M533.549,356.055h 5.53331" fill="none" stroke="black"/>
<path d="M91.2087,388.788h 447.874" fill="none" stroke="black"/>
<path d="M91.2087,483.855h 447.874" fill="none" stroke="black"/>
<path d="M91.2087,479.034v 4.82151" fill="none" stroke="black"/>
<path d="M100.166,481.445v 2.41075" fill="none" stroke="black"/>
<path d="M109.124,481.445v 2.41075" fill="none" stroke="black"/>
<path d="M118.081,481.445v 2.41075" fill="none" stroke="black"/>
<path d="M127.039,481.445v 2.41075" fill="none" stroke="black"/>
<path d="M135.996,479.034v 4.82151" fill="none" stroke="black"/>
<path d="M144.954,481.445v 2.41075" fill="none" stroke="black"/>
<path d="M153.911,481.445v 2.41075" fill="none" stroke="black"/>
<path d="M162.868,481.445v 2.41075" fill="none" stroke="black"/>
<path d="M171.826,481.445v 2.41075" fill="none" stroke="black"/>
<path d="M180.783,479.034v 4.82151" fill="none" stroke="black"/>
<path d="M189.741,481.445v 2.41075" fill="none" stroke="black"/>
<path d="M198.698,481.445v 2.41075" fill="none" stroke="black"/>
<path d="M207.656,481.445v 2.41075" fill="none" stroke="black"/>
<path d="M216.613,481.445v 2.41075" fill="none" stroke="black"/>
<path d="M225.571,479.034v 4.82151" fill="none" stroke="black"/>
<path d="M234.528,481.445v 2.41075" fill="none" stroke="black"/>
<path d="M243.486,481.445v 2.41075" fill="none" stroke="black"/>
<path d="M252.443,481.445v 2.41075" fill="none" stroke="black"/>
<path d="M261.401,481.445v 2.41075" fill="none" stroke="black"/>
<path d="M270.358,479.034v 4.82151" fill="none" stroke="black"/>
<path d="M279.316,481.445v 2.41075" fill="none" stroke="black"/>
<path d="M288.273,481.445v 2.41075" fill="none" stroke="black"/>
<path d="M297.231,481.445v 2.41075" fill="none" stroke="black"/>
<path d="M306.188,481.445v 2.41075" fill="none" stroke="black"/>
<path d="M315.146,479.034v 4.82151" fill="none" stroke="black"/>
<path d="M324.103,481.445v 2.41075" fill="none" stroke="black"/>
<path d="M333.061,481.445v 2.41075" fill="none" stroke="black"/>
<path d="M342.018,481.445v 2.41075" fill="none" stroke="black"/>
<path d="M350.976,481.445v 2.41075" fill="none" stroke="black"/>
<path d="M359.933,479.034v 4.82151" fill="none" stroke="black"/>
<path d="M368.891,481.445v 2.41075" fill="none" stroke="black"/>
<path d="M377.848,481.445v 2.41075" fill="none" stroke="black"/>
<path d="M386.806,481.445v 2.41075" fill="none" stroke="black"/>
<path d="M395.763,481.445v 2.41075" fill="none" stroke="black"/>
<path d="M404.72,479.034v 4.82151" fill="none" stroke="black"/>
<path d="M413.678,481.445v 2.41075" fill="none" stroke="black"/>
<path d="M422.635,481.445v 2.41075" fill="none" stroke="black"/>
<path d="M431.593,481.445v 2.41075" fill="none" stroke="black"/>
<path d="M440.55,481.445v 2.41075" fill="none" stroke="black"/>
<path d="M449.508,479.034v 4.82151" fill="none" stroke="black"/>
<path d="M458.465,481.445v 2.41075" fill="none" stroke="black"/>
<path d="M467.423,481.445v 2.41075" fill="none" stroke="black"/>
<path d="M476.38,481.445v 2.41075" fill="none" stroke="black"/>
<path d="M485.338,481.445v 2.41075" fill="none" stroke="black"/>
<path d="M494.295,479.034v 4.82151" fill="none" stroke="black"/>
<path d="M503.253,481.445v 2.41075" fill="none" stroke="black"/>
<path d="M512.21,481.445v 2.41075" fill="none" stroke="black"/>
<path d="M521.168,481.445v 2.41075" fill="none" stroke="black"/>
<path d="M530.125,481.445v 2.41075" fill="none" stroke="black"/>
<path d="M539.083,479.034v 4.82151" fill="none" stroke="black"/>
<path d="M91.2087,351.483h 447.874" fill="none" stroke="black"/>
<path d="M91.2087,356.304v -4.82151" fill="none" stroke="black"/>
<path d="M100.166,353.893v -2.41075" fill="none" stroke="black"/>
<path d="M109.124,353.893v -2.41075" fill="none" stroke="black"/>
<path d="M118.081,353.893v -2.41075" fill="none" stroke="black"/>
<path d="M127.039,353.893v -2.41075" fill="none" stroke="black"/>
<path d="M135.996,356.304v -4.82151" fill="none" stroke="black"/>
<path d="M144.954,353.893v -2.41075" fill="none" stroke="black"/>
<path d="M153.911,353.893v -2.41075" fill="none" stroke="black"/>
<path d="M162.868,353.893v -2.41075" fill="none" stroke="black"/>
<path d="M171.826,353.893v -2.41075" fill="none" stroke="black"/>
<path d="M180.783,356.304v -4.82151" fill="none" stroke="black"/>
<path d="M189.741,353.893v -2.41075" fill="none" stroke="black"/>
<path d="M198.698,353.893v -2.41075" fill="none" stroke="black"/>
<path d="M207.656,353.893v -2.41075" fill="none" stroke="black"/>
<path d="M216.613,353.893v -2.41075" fill="none" stroke="black"/>
<path d="M225.571,356.304v -4.82151" fill="none" stroke="black"/>
<path d="M234.528,353.893v -2.41075" fill="none" stroke="black"/>
<path d="M243.486,353.893v -2.41075" fill="none" stroke="black"/>
<path d="M252.443,353.893v -2.41075" fill="none" stroke="black"/>
<path d="M261.401,353.893v -2.41075" fill="none" stroke="black"/>
<path d="M270.358,356.304v -4.82151" fill="none" stroke="black"/>
<path d="M279.316,353.893v -2.41075" fill="none" stroke="black"/>
<path d="M288.273,353.893v -2.41075" fill="none" stroke="black"/>
<path d="M297.231,353.893v -2.41075" fill="none" stroke="black"/>
<path d="M306.188,353.893v -2.41075" fill="none" stroke="black"/>
<path d="M315.146,356.304v -4.82151" fill="none" stroke="black"/>
<path d="M324.103,353.893v -2.41075" fill="none" stroke="black"/>
<path d="M333.061,353.893v -2.41075" fill="none" stroke="black"/>
<path d="M342.018,353.893v -2.41075" fill="none" stroke="black"/>
<path d="M350.976,353.893v -2.41075" fill="none" stroke="black"/>
<path d="M359.933,356.304v -4.82151" fill="none" stroke="black"/>
<path d="M368.891,353.893v -2.41075" fill="none" stroke="black"/>
<path d="M377.848,353.893v -2.41075" fill="none" stroke="black"/>
<path d="M386.806,353.893v -2.41075" fill="none" stroke="black"/>
<path d="M395.763,353.893v -2.41075" fill="none" stroke="black"/>
<path d="M404.72,356.304v -4.82151" fill="none" stroke="black"/>
<path d="M413.678,353.893v -2.41075" fill="none" stroke="black"/>
<path d="M422.635,353.893v -2.41075" fill="none" stroke="black"/>
<path d="M431.593,353.893v -2.41075" fill="none" stroke="black"/>
<path d="M440.55,353.893v -2.41075" fill="none" stroke="black"/>
<path d="M449.508,356.304v -4.82151" fill="none" stroke="black"/>
<path d="M458.465,353.893v -2.41075" fill="none" stroke="black"/>
<path d="M467.423,353.893v -2.41075" fill="none" stroke="black"/>
<path d="M476.38,353.893v -2.41075" fill="none" stroke="black"/>
<path d="M485.338,353.893v -2.41075" fill="none" stroke="black"/>
<path d="M494.295,356.304v -4.82151" fill="none" stroke="black"/>
<path d="M503.253,353.893v -2.41075" fill="none" stroke="black"/>
<path d="M512.21,353.893v -2.41075" fill="none" stroke="black"/>
<path d="M521.168,353.893v -2.41075" fill="none" stroke="black"/>
<path d="M530.125,353.893v -2.41075" fill="none" stroke="black"/>
<path d="M539.083,356.304v -4.82151" fill="none" stroke="black"/>
<path d="M91.2087,483.855v -132.373" fill="none" stroke="black"/>
<path d="M102.275,470.618h -11.0666" fill="none" stroke="black"/>
<path d="M96.742,462.435h -5.53331" fill="none" stroke="black"/>
<path d="M96.742,454.252h -5.53331" fill="none" stroke="black"/>
<path d="M96.742,446.069h -5.53331" fill="none" stroke="black"/>
<path d="M96.742,437.886h -5.53331" fill="none" stroke="black"/>
<path d="M102.275,429.703h -11.0666" fill="none" stroke="black"/>
<path d="M96.742,421.52h -5.53331" fill="none" stroke="black"/>
<path d="M96.742,413.337h -5.53331" fill="none" stroke="black"/>
<path d="M96.742,405.154h -5.53331" fill="none" stroke="black"/>
<path d="M96.742,396.971h -5.53331" fill="none" stroke="black"/>
<path d="M102.275,388.788h -11.0666" fill="none" stroke="black"/>
<path d="M102.275,470.618h -11.0666" fill="none" stroke="black"/>
<path d="M96.742,478.801h -5.53331" fill="none" stroke="black"/>
<path d="M102.275,388.788h -11.0666" fill="none" stroke="black"/>
<path d="M96.742,380.605h -5.53331" fill="none" stroke="black"/>
<path d="M96.742,372.422h -5.53331" fill="none" stroke="black"/>
<path d="M96.742,364.238h -5.53331" fill="none" stroke="black"/>
<path d="M96.742,356.055h -5.53331" fill="none" stroke="black"/>
<path d="M539.083,483.855v -132.373" fill="none" stroke="black"/>
<path d="M528.016,470.618h 11.0666" fill="none" stroke="black"/>
<path d="M533.549,462.435h 5.53331" fill="none" stroke="black"/>
<path d="M533.549,454.252h 5.53331" fill="none" stroke="black"/>
<path d="M533.549,446.069h 5.53331" fill="none" stroke="black"/>
<path d="M533.549,437.886h 5.53331" fill="none" stroke="black"/>
<path d="M528.016,429.703h 11.0666" fill="none" stroke="black"/>
<path d="M533.549,421.52h 5.53331" fill="none" stroke="black"/>
<path d="M533.549,413.337h 5.53331" fill="none" stroke="black"/>
<path d="M533.549,405.154h 5.53331" fill="none" stroke="black"/>
<path d="M533.549,396.971h 5.53331" fill="none" stroke="black"/>
<path d="M528.016,388.788h 11.0666" fill="none" stroke="black"/>
<path d="M528.016,470.618h 11.0666" fill="none" stroke="black"/>
<path d="M533.549,478.801h 5.53331" fill="none" stroke="black"/>
<path d="M528.016,388.788h 11.0666" fill="none" stroke="black"/>
<path d="M533.549,380.605h 5.53331" fill="none" stroke="black"/>
<path d="M533.549,372.422h 5.53331" fill="none" stroke="black"/>
<path d="M533.549,364.238h 5.53331" fill="none" stroke="black"/>
<path d="M533.549,356.055h 5.53331" fill="none" stroke="black"/>
<path d="M91.2087,376.445h 8.95748v 7.50834h 8.95748v 2.35916h 8.95748v -0.694124h 8.95748v 5.46646h 8.95748v -4.51425h 8.95748v 6.88156h 8.95748v -6.0922h 8.95748v -1.26304h 8.95748v 6.30429h 8.95748v -2.55467h 8.95748v 0.742006h 8.95748v -4.92094h
 8.95748v 10.2011h 8.95748v -1.69998h 8.95748v -5.09337h 8.95748v -7.49732h 8.95748v -1.49179h 8.95748v 2.89308h 8.95748v 2.41399h 8.95748v -4.18573h 8.95748v 3.4773h 8.95748v 1.15152h 8.95748v 9.40715h 8.95748v -10.9182h 8.95748v 6.65731h 8.95748v
 7.67516h 8.95748v -0.488768h 8.95748v 3.86862h 8.95748v 2.5375h 8.95748v 2.80989h 8.95748v 1.41505h 8.95748v -6.37448h 8.95748v -16.3661h 8.95748v 11.1929h 8.95748v 9.82631h 8.95748v -34.1691h 8.95748v 19.2872h 8.95748v -1.10452h 8.95748v -19.6631h
 8.95748v 7.30863h 8.95748v 26.8968h 8.95748v -40.9153h 8.95748v 24.0678h 8.95748v -20.4576h 8.95748v 15.9115h 8.95748v 37.2784h 8.95748v 16.3661h 8.95748v -32.7322h 8.95748v 5.66519h 8.95748" fill="none" stroke="black" stroke-width="2"/>
<path d="M91.2087,483.855h 447.874" fill="none" stroke="black"/>
<path d="M91.2087,479.034v 4.82151" fill="none" stroke="black"/>
<path d="M100.166,481.445v 2.41075" fill="none" stroke="black"/>
<path d="M109.124,481.445v 2.41075" fill="none" stroke="black"/>
<path d="M118.081,481.445v 2.41075" fill="none" stroke="black"/>
<path d="M127.039,481.445v 2.41075" fill="none" stroke="black"/>
<path d="M135.996,479.034v 4.82151" fill="none" stroke="black"/>
<path d="M144.954,481.445v 2.41075" fill="none" stroke="black"/>
<path d="M153.911,481.445v 2.41075" fill="none" stroke="black"/>
<path d="M162.868,481.445v 2.41075" fill="none" stroke="black"/>
<path d="M171.826,481.445v 2.41075" fill="none" stroke="black"/>
<path d="M180.783,479.034v 4.82151" fill="none" stroke="black"/>
<path d="M189.741,481.445v 2.41075" fill="none" stroke="black"/>
<path d="M198.698,481.445v 2.41075" fill="none" stroke="black"/>
<path d="M207.656,481.445v 2.41075" fill="none" stroke="black"/>
<path d="M216.613,481.445v 2.41075" fill="none" stroke="black"/>
<path d="M225.571,479.034v 4.82151" fill="none" stroke="black"/>
<path d="M234.528,481.445v 2.41075" fill="none" stroke="black"/>
<path d="M243.486,481.445v 2.41075" fill="none" stroke="black"/>
<path d="M252.443,481.445v 2.41075" fill="none" stroke="black"/>
<path d="M261.401,481.445v 2.41075" fill="none" stroke="black"/>
<path d="M270.358,479.034v 4.82151" fill="none" stroke="black"/>
<path d="M279.316,481.445v 2.41075" fill="none" stroke="black"/>
<path d="M288.273,481.445v 2.41075" fill="none" stroke="black"/>
<path d="M297.231,481.445v 2.41075" fill="none" stroke="black"/>
<path d="M306.188,481.445v 2.41075" fill="none" stroke="black"/>
<path d="M315.146,479.034v 4.82151" fill="none" stroke="black"/>
<path d="M324.103,481.445v 2.41075" fill="none" stroke="black"/>
<path d="M333.061,481.445v 2.41075" fill="none" stroke="black"/>
<path d="M342.018,481.445v 2.41075" fill="none" stroke="black"/>
<path d="M350.976,481.445v 2.41075" fill="none" stroke="black"/>
<path d="M359.933,479.034v 4.82151" fill="none" stroke="black"/>
<path d="M368.891,481.445v 2.41075" fill="none" stroke="black"/>
<path d="M377.848,481.445v 2.41075" fill="none" stroke="black"/>
<path d="M386.806,481.445v 2.41075" fill="none" stroke="black"/>
<path d="M395.763,481.445v 2.41075" fill="none" stroke="black"/>
<path d="M404.72,479.034v 4.82151" fill="none" stroke="black"/>
<path d="M413.678,481.445v 2.41075" fill="none" stroke="black"/>
<path d="M422.635,481.445v 2.41075" fill="none" stroke="black"/>
<path d="M431.593,481.445v 2.41075" fill="none" stroke="black"/>
<path d="M440.55,481.445v 2.41075" fill="none" stroke="black"/>
<path d="M449.508,479.034v 4.82151" fill="none" stroke="black"/>
<path d="M458.465,481.445v 2.41075" fill="none" stroke="black"/>
<path d="M467.423,481.445v 2.41075" fill="none" stroke="black"/>
<path d="M476.38,481.445v 2.41075" fill="none" stroke="black"/>
<path d="M485.338,481.445v 2.41075" fill="none" stroke="black"/>
<path d="M494.295,479.034v 4.82151" fill="none" stroke="black"/>
<path d="M503.253,481.445v 2.41075" fill="none" stroke="black"/>
<path d="M512.21,481.445v 2.41075" fill="none" stroke="black"/>
<path d="M521.168,481.445v 2.41075" fill="none" stroke="black"/>
<path d="M530.125,481.445v 2.41075" fill="none" stroke="black"/>
<path d="M539.083,479.034v 4.82151" fill="none" stroke="black"/>
<path d="M91.2087,351.483h 447.874" fill="none" stroke="black"/>
<path d="M91.2087,356.304v -4.82151" fill="none" stroke="black"/>
<path d="M100.166,353.893v -2.41075" fill="none" stroke="black"/>
<path d="M109.124,353.893v -2.41075" fill="none" stroke="black"/>
<path d="M118.081,353.893v -2.41075" fill="none" stroke="black"/>
<path d="M127.039,353.893v -2.41075" fill="none" stroke="black"/>
<path d="M135.996,356.304v -4.82151" fill="none" stroke="black"/>
<path d="M144.954,353.893v -2.41075" fill="none" stroke="black"/>
<path d="M153.911,353.893v -2.41075" fill="none" stroke="black"/>
<path d="M162.868,353.893v -2.41075" fill="none" stroke="black"/>
<path d="M171.826,353.893v -2.41075" fill="none" stroke="black"/>
<path d="M180.783,356.304v -4.82151" fill="none" stroke="black"/>
<path d="M189.741,353.893v -2.41075" fill="none" stroke="black"/>
<path d="M198.698,353.893v -2.41075" fill="none" stroke="black"/>
<path d="M207.656,353.893v -2.41075" fill="none" stroke="black"/>
<path d="M216.613,353.893v -2.41075" fill="none" stroke="black"/>
<path d="M225.571,356.304v -4.82151" fill="none" stroke="black"/>
<path d="M234.528,353.893v -2.41075" fill="none" stroke="black"/>
<path d="M243.486,353.893v -2.41075" fill="none" stroke="black"/>
<path d="M252.443,353.893v -2.41075" fill="none" stroke="black"/>
<path d="M261.401,353.893v -2.41075" fill="none" stroke="black"/>
<path d="M270.358,356.304v -4.82151" fill="none" stroke="black"/>
<path d="M279.316,353.893v -2.41075" fill="none" stroke="black"/>
<path d="M288.273,353.893v -2.41075" fill="none" stroke="black"/>
<path d="M297.231,353.893v -2.41075" fill="none" stroke="black"/>
<path d="M306.188,353.893v -2.41075" fill="none" stroke="black"/>
<path d="M315.146,356.304v -4.82151" fill="none" stroke="black"/>
<path d="M324.103,353.893v -2.41075" fill="none" stroke="black"/>
<path d="M333.061,353.893v -2.41075" fill="none" stroke="black"/>
<path d="M342.018,353.893v -2.41075" fill="none" stroke="black"/>
<path d="M350.976,353.893v -2.41075" fill="none" stroke="black"/>
<path d="M359.933,356.304v -4.82151" fill="none" stroke="black"/>
<path d="M368.891,353.893v -2.41075" fill="none" stroke="black"/>
<path d="M377.848,353.893v -2.41075" fill="none" stroke="black"/>
<path d="M386.806,353.893v -2.41075" fill="none" stroke="black"/>
<path d="M395.763,353.893v -2.41075" fill="none" stroke="black"/>
<path d="M404.72,356.304v -4.82151" fill="none" stroke="black"/>
<path d="M413.678,353.893v -2.41075" fill="none" stroke="black"/>
<path d="M422.635,353.893v -2.41075" fill="none" stroke="black"/>
<path d="M431.593,353.893v -2.41075" fill="none" stroke="black"/>
<path d="M440.55,353.893v -2.41075" fill="none" stroke="black"/>
<path d="M449.508,356.304v -4.82151" fill="none" stroke="black"/>
<path d="M458.465,353.893v -2.41075" fill="none" stroke="black"/>
<path d="M467.423,353.893v -2.41075" fill="none" stroke="black"/>
<path d="M476.38,353.893v -2.41075" fill="none" stroke="black"/>
<path d="M485.338,353.893v -2.41075" fill="none" stroke="black"/>
<path d="M494.295,356.304v -4.82151" fill="none" stroke="black"/>
<path d="M503.253,353.893v -2.41075" fill="none" stroke="black"/>
<path d="M512.21,353.893v -2.41075" fill="none" stroke="black"/>
<path d="M521.168,353.893v -2.41075" fill="none" stroke="black"/>
<path d="M530.125,353.893v -2.41075" fill="none" stroke="black"/>
<path d="M539.083,356.304v -4.82151" fill="none" stroke="black"/>
<path d="M91.2087,483.855v -132.373" fill="none" stroke="black"/>
<path d="M102.275,470.618h -11.0666" fill="none" stroke="black"/>
<path d="M96.742,462.435h -5.53331" fill="none" stroke="black"/>
<path d="M96.742,454.252h -5.53331" fill="none" stroke="black"/>
<path d="M96.742,446.069h -5.53331" fill="none" stroke="black"/>
<path d="M96.742,437.886h -5.53331" fill="none" stroke="black"/>
<path d="M102.275,429.703h -11.0666" fill="none" stroke="black"/>
<path d="M96.742,421.52h -5.53331" fill="none" stroke="black"/>
<path d="M96.742,413.337h -5.53331" fill="none" stroke="black"/>
<path d="M96.742,405.154h -5.53331" fill="none" stroke="black"/>
<path d="M96.742,396.971h -5.53331" fill="none" stroke="black"/>
<path d="M102.275,388.788h -11.0666" fill="none" stroke="black"/>
<path d="M102.275,470.618h -11.0666" fill="none" stroke="black"/>
<path d="M96.742,478.801h -5.53331" fill="none" stroke="black"/>
<path d="M102.275,388.788h -11.0666" fill="none" stroke="black"/>
<path d="M96.742,380.605h -5.53331" fill="none" stroke="black"/>
<path d="M96.742,372.422h -5.53331" fill="none" stroke="black"/>
<path d="M96.742,364.238h -5.53331" fill="none" stroke="black"/>
<path d="M96.742,356.055h -5.53331" fill="none" stroke="black"/>
<path d="M539.083,483.855v -132.373" fill="none" stroke="black"/>
<path d="M528.016,470.618h 11.0666" fill="none" stroke="black"/>
<path d="M533.549,462.435h 5.53331" fill="none" stroke="black"/>
<path d="M533.549,454.252h 5.53331" fill="none" stroke="black"/>
<path d="M533.549,446.069h 5.53331" fill="none" stroke="black"/>
<path d="M533.549,437.886h 5.53331" fill="none" stroke="black"/>
<path d="M528.016,429.703h 11.0666" fill="none" stroke="black"/>
<path d="M533.549,421.52h 5.53331" fill="none" stroke="black"/>
<path d="M533.549,413.337h 5.53331" fill="none" stroke="black"/>
<path d="M533.549,405.154h 5.53331" fill="none" stroke="black"/>
<path d="M533.549,396.971h 5.53331" fill="none" stroke="black"/>
<path d="M528.016,388.788h 11.0666" fill="none" stroke="black"/>
<path d="M528.016,470.618h 11.0666" fill="none" stroke="black"/>
<path d="M533.549,478.801h 5.53331" fill="none" stroke="black"/>
<path d="M528.016,388.788h 11.0666" fill="none" stroke="black"/>
<path d="M533.549,380.605h 5.53331" fill="none" stroke="black"/>
<path d="M533.549,372.422h 5.53331" fill="none" stroke="black"/>
<path d="M533.549,364.238h 5.53331" fill="none" stroke="black"/>
<path d="M533.549,356.055h 5.53331" fill="none" stroke="black"/></svg>
