<?xml version="1.0" standalone="no"?>
<svg width="567.429" height="409.712" viewBox="0 0 567.429 409.712" xmlns="http://www.w3.org/2000/svg" shape-rendering="crispEdges">
<title>
figures_and_axes_02.svg
</title>
<desc>
Creator: ROOT Version 6.22/00
CreationDate: Fri Mar 19 13:44:45 2021</desc>
<defs>
</defs>
<rect x="0.5" y="0" width="566.929" height="409.212" fill="white"/>
<rect x="0.5" y="0" width="566.929" height="409.212" fill="white"/>
<rect x="57.1929" y="40.9212" width="453.543" height="327.37" fill="white"/>
<rect x="57.1929" y="40.9212" width="453.543" height="327.37" fill="none" stroke="black"/>
<rect x="57.1929" y="40.9212" width="453.543" height="327.37" fill="white"/>
<rect x="57.1929" y="40.9212" width="453.543" height="327.37" fill="none" stroke="black"/>
<path d="M57.1929,368.291h 453.543" fill="none" stroke="black"/>
<path d="M57.1929,358.47v 9.82109" fill="none" stroke="black"/>
<path d="M67.2717,363.38v 4.91054" fill="none" stroke="black"/>
<path d="M77.3504,363.38v 4.91054" fill="none" stroke="black"/>
<path d="M87.4291,363.38v 4.91054" fill="none" stroke="black"/>
<path d="M97.5079,363.38v 4.91054" fill="none" stroke="black"/>
<path d="M107.587,358.47v 9.82109" fill="none" stroke="black"/>
<path d="M117.665,363.38v 4.91054" fill="none" stroke="black"/>
<path d="M127.744,363.38v 4.91054" fill="none" stroke="black"/>
<path d="M137.823,363.38v 4.91054" fill="none" stroke="black"/>
<path d="M147.902,363.38v 4.91054" fill="none" stroke="black"/>
<path d="M157.98,358.47v 9.82109" fill="none" stroke="black"/>
<path d="M168.059,363.38v 4.91054" fill="none" stroke="black"/>
<path d="M178.138,363.38v 4.91054" fill="none" stroke="black"/>
<path d="M188.217,363.38v 4.91054" fill="none" stroke="black"/>
<path d="M198.295,363.38v 4.91054" fill="none" stroke="black"/>
<path d="M208.374,358.47v 9.82109" fill="none" stroke="black"/>
<path d="M218.453,363.38v 4.91054" fill="none" stroke="black"/>
<path d="M228.531,363.38v 4.91054" fill="none" stroke="black"/>
<path d="M238.61,363.38v 4.91054" fill="none" stroke="black"/>
<path d="M248.689,363.38v 4.91054" fill="none" stroke="black"/>
<path d="M258.768,358.47v 9.82109" fill="none" stroke="black"/>
<path d="M268.846,363.38v 4.91054" fill="none" stroke="black"/>
<path d="M278.925,363.38v 4.91054" fill="none" stroke="black"/>
<path d="M289.004,363.38v 4.91054" fill="none" stroke="black"/>
<path d="M299.083,363.38v 4.91054" fill="none" stroke="black"/>
<path d="M309.161,358.47v 9.82109" fill="none" stroke="black"/>
<path d="M319.24,363.38v 4.91054" fill="none" stroke="black"/>
<path d="M329.319,363.38v 4.91054" fill="none" stroke="black"/>
<path d="M339.398,363.38v 4.91054" fill="none" stroke="black"/>
<path d="M349.476,363.38v 4.91054" fill="none" stroke="black"/>
<path d="M359.555,358.47v 9.82109" fill="none" stroke="black"/>
<path d="M369.634,363.38v 4.91054" fill="none" stroke="black"/>
<path d="M379.713,363.38v 4.91054" fill="none" stroke="black"/>
<path d="M389.791,363.38v 4.91054" fill="none" stroke="black"/>
<path d="M399.87,363.38v 4.91054" fill="none" stroke="black"/>
<path d="M409.949,358.47v 9.82109" fill="none" stroke="black"/>
<path d="M420.028,363.38v 4.91054" fill="none" stroke="black"/>
<path d="M430.106,363.38v 4.91054" fill="none" stroke="black"/>
<path d="M440.185,363.38v 4.91054" fill="none" stroke="black"/>
<path d="M450.264,363.38v 4.91054" fill="none" stroke="black"/>
<path d="M460.343,358.47v 9.82109" fill="none" stroke="black"/>
<path d="M470.421,363.38v 4.91054" fill="none" stroke="black"/>
<path d="M480.5,363.38v 4.91054" fill="none" stroke="black"/>
<path d="M490.579,363.38v 4.91054" fill="none" stroke="black"/>
<path d="M500.657,363.38v 4.91054" fill="none" stroke="black"/>
<path d="M510.736,358.47v 9.82109" fill="none" stroke="black"/>
<text xml:space="preserve" x="56.6246" y="381.505" fill="black" font-size="13.6398" font-family="Helvetica">3</text>
<text xml:space="preserve" x="48.8097" y="381.505" fill="black" font-size="13.6398" font-family="Times">&#8722;</text>
<text xml:space="preserve" x="107.066" y="381.505" fill="black" font-size="13.6398" font-family="Helvetica">2</text>
<text xml:space="preserve" x="99.2508" y="381.505" fill="black" font-size="13.6398" font-family="Times">&#8722;</text>
<text xml:space="preserve" x="158.217" y="381.505" fill="black" font-size="13.6398" font-family="Helvetica">1</text>
<text xml:space="preserve" x="151.113" y="381.505" fill="black" font-size="13.6398" font-family="Times">&#8722;</text>
<text xml:space="preserve" x="204.396" y="381.505" fill="black" font-size="13.6398" font-family="Helvetica">0</text>
<text xml:space="preserve" x="255.547" y="381.505" fill="black" font-size="13.6398" font-family="Helvetica">1</text>
<text xml:space="preserve" x="305.278" y="381.505" fill="black" font-size="13.6398" font-family="Helvetica">2</text>
<text xml:space="preserve" x="355.719" y="381.505" fill="black" font-size="13.6398" font-family="Helvetica">3</text>
<text xml:space="preserve" x="406.16" y="381.505" fill="black" font-size="13.6398" font-family="Helvetica">4</text>
<text xml:space="preserve" x="456.601" y="381.505" fill="black" font-size="13.6398" font-family="Helvetica">5</text>
<text xml:space="preserve" x="507.042" y="381.505" fill="black" font-size="13.6398" font-family="Helvetica">6</text>
<path d="M57.1929,368.291v -327.37" fill="none" stroke="black"/>
<path d="M70.7992,368.291h -13.6063" fill="none" stroke="black"/>
<path d="M63.9961,353.92h -6.80315" fill="none" stroke="black"/>
<path d="M63.9961,339.549h -6.80315" fill="none" stroke="black"/>
<path d="M63.9961,325.178h -6.80315" fill="none" stroke="black"/>
<path d="M70.7992,310.807h -13.6063" fill="none" stroke="black"/>
<path d="M63.9961,296.436h -6.80315" fill="none" stroke="black"/>
<path d="M63.9961,282.065h -6.80315" fill="none" stroke="black"/>
<path d="M63.9961,267.694h -6.80315" fill="none" stroke="black"/>
<path d="M70.7992,253.323h -13.6063" fill="none" stroke="black"/>
<path d="M63.9961,238.953h -6.80315" fill="none" stroke="black"/>
<path d="M63.9961,224.582h -6.80315" fill="none" stroke="black"/>
<path d="M63.9961,210.211h -6.80315" fill="none" stroke="black"/>
<path d="M70.7992,195.84h -13.6063" fill="none" stroke="black"/>
<path d="M63.9961,181.469h -6.80315" fill="none" stroke="black"/>
<path d="M63.9961,167.098h -6.80315" fill="none" stroke="black"/>
<path d="M63.9961,152.727h -6.80315" fill="none" stroke="black"/>
<path d="M70.7992,138.356h -13.6063" fill="none" stroke="black"/>
<path d="M63.9961,123.985h -6.80315" fill="none" stroke="black"/>
<path d="M63.9961,109.614h -6.80315" fill="none" stroke="black"/>
<path d="M63.9961,95.2433h -6.80315" fill="none" stroke="black"/>
<path d="M70.7992,80.8724h -13.6063" fill="none" stroke="black"/>
<path d="M70.7992,80.8724h -13.6063" fill="none" stroke="black"/>
<path d="M63.9961,66.5014h -6.80315" fill="none" stroke="black"/>
<path d="M63.9961,52.1305h -6.80315" fill="none" stroke="black"/>
<text xml:space="preserve" x="46.6784" y="372.98" fill="black" font-size="13.6398" font-family="Helvetica">0</text>
<text xml:space="preserve" x="31.7593" y="315.434" fill="black" font-size="13.6398" font-family="Helvetica">200</text>
<text xml:space="preserve" x="31.7593" y="257.889" fill="black" font-size="13.6398" font-family="Helvetica">400</text>
<text xml:space="preserve" x="31.7593" y="200.343" fill="black" font-size="13.6398" font-family="Helvetica">600</text>
<text xml:space="preserve" x="31.7593" y="142.798" fill="black" font-size="13.6398" font-family="Helvetica">800</text>
<text xml:space="preserve" x="23.9444" y="85.2525" fill="black" font-size="13.6398" font-family="Helvetica">1000</text>
<rect x="442.705" y="26.5988" width="113.386" height="65.4739" fill="white"/>
<path d="M442.705,92.0727h 113.386" fill="none" stroke="black"/>
<path d="M556.091,92.0727v -65.4739" fill="none" stroke="black"/>
<path d="M556.091,26.5988h -113.386" fill="none" stroke="black"/>
<path d="M442.705,26.5988v 65.4739" fill="none" stroke="black"/>
<text xml:space="preserve" x="446.655" y="36.9428" fill="black" font-size="8.78047" font-family="Helvetica">FRAME_ewgvbqxnowfytvkr</text>
<path d="M442.705,42.9673h 113.386" fill="none" stroke="black"/>
<text xml:space="preserve" x="448.076" y="56.1246" fill="black" font-size="13.7601" font-family="Helvetica">Entries </text>
<text xml:space="preserve" x="541.853" y="56.835" fill="black" font-size="13.7601" font-family="Helvetica"> 1</text>
<text xml:space="preserve" x="448.076" y="72.4646" fill="black" font-size="13.7601" font-family="Helvetica">Mean  </text>
<text xml:space="preserve" x="516.988" y="72.4646" fill="black" font-size="13.7601" font-family="Helvetica">    1.5</text>
<text xml:space="preserve" x="448.076" y="89.5151" fill="black" font-size="13.7601" font-family="Helvetica">Std Dev   </text>
<text xml:space="preserve" x="520.54" y="88.8047" fill="black" font-size="13.7601" font-family="Helvetica">      0</text>
<path d="M57.1929,364.842h 15.1181v -4.31128h 15.1181v -4.31128h 15.1181v -14.9458h 15.1181v -16.3829h 15.1181v -26.4425h 15.1181v -33.9154h 15.1181v -21.269h 15.1181v -28.7418h 15.1181v -17.5325h 15.1181v 1.72451h 15.1181v 21.269h 15.1181v 18.9696h
 15.1181v 23.8557h 15.1181v 41.3883h 15.1181v 14.0835h 15.1181v 24.718h 15.1181v 9.19739h 15.1181v 7.7603h 15.1181v 5.17353h 15.1181v 3.1616" fill="none" stroke="#0000ff"/>
<path d="M57.1929,368.291h 453.543" fill="none" stroke="black"/>
<path d="M57.1929,358.47v 9.82109" fill="none" stroke="black"/>
<path d="M67.2717,363.38v 4.91054" fill="none" stroke="black"/>
<path d="M77.3504,363.38v 4.91054" fill="none" stroke="black"/>
<path d="M87.4291,363.38v 4.91054" fill="none" stroke="black"/>
<path d="M97.5079,363.38v 4.91054" fill="none" stroke="black"/>
<path d="M107.587,358.47v 9.82109" fill="none" stroke="black"/>
<path d="M117.665,363.38v 4.91054" fill="none" stroke="black"/>
<path d="M127.744,363.38v 4.91054" fill="none" stroke="black"/>
<path d="M137.823,363.38v 4.91054" fill="none" stroke="black"/>
<path d="M147.902,363.38v 4.91054" fill="none" stroke="black"/>
<path d="M157.98,358.47v 9.82109" fill="none" stroke="black"/>
<path d="M168.059,363.38v 4.91054" fill="none" stroke="black"/>
<path d="M178.138,363.38v 4.91054" fill="none" stroke="black"/>
<path d="M188.217,363.38v 4.91054" fill="none" stroke="black"/>
<path d="M198.295,363.38v 4.91054" fill="none" stroke="black"/>
<path d="M208.374,358.47v 9.82109" fill="none" stroke="black"/>
<path d="M218.453,363.38v 4.91054" fill="none" stroke="black"/>
<path d="M228.531,363.38v 4.91054" fill="none" stroke="black"/>
<path d="M238.61,363.38v 4.91054" fill="none" stroke="black"/>
<path d="M248.689,363.38v 4.91054" fill="none" stroke="black"/>
<path d="M258.768,358.47v 9.82109" fill="none" stroke="black"/>
<path d="M268.846,363.38v 4.91054" fill="none" stroke="black"/>
<path d="M278.925,363.38v 4.91054" fill="none" stroke="black"/>
<path d="M289.004,363.38v 4.91054" fill="none" stroke="black"/>
<path d="M299.083,363.38v 4.91054" fill="none" stroke="black"/>
<path d="M309.161,358.47v 9.82109" fill="none" stroke="black"/>
<path d="M319.24,363.38v 4.91054" fill="none" stroke="black"/>
<path d="M329.319,363.38v 4.91054" fill="none" stroke="black"/>
<path d="M339.398,363.38v 4.91054" fill="none" stroke="black"/>
<path d="M349.476,363.38v 4.91054" fill="none" stroke="black"/>
<path d="M359.555,358.47v 9.82109" fill="none" stroke="black"/>
<path d="M369.634,363.38v 4.91054" fill="none" stroke="black"/>
<path d="M379.713,363.38v 4.91054" fill="none" stroke="black"/>
<path d="M389.791,363.38v 4.91054" fill="none" stroke="black"/>
<path d="M399.87,363.38v 4.91054" fill="none" stroke="black"/>
<path d="M409.949,358.47v 9.82109" fill="none" stroke="black"/>
<path d="M420.028,363.38v 4.91054" fill="none" stroke="black"/>
<path d="M430.106,363.38v 4.91054" fill="none" stroke="black"/>
<path d="M440.185,363.38v 4.91054" fill="none" stroke="black"/>
<path d="M450.264,363.38v 4.91054" fill="none" stroke="black"/>
<path d="M460.343,358.47v 9.82109" fill="none" stroke="black"/>
<path d="M470.421,363.38v 4.91054" fill="none" stroke="black"/>
<path d="M480.5,363.38v 4.91054" fill="none" stroke="black"/>
<path d="M490.579,363.38v 4.91054" fill="none" stroke="black"/>
<path d="M500.657,363.38v 4.91054" fill="none" stroke="black"/>
<path d="M510.736,358.47v 9.82109" fill="none" stroke="black"/>
<path d="M57.1929,368.291v -327.37" fill="none" stroke="black"/>
<path d="M70.7992,368.291h -13.6063" fill="none" stroke="black"/>
<path d="M63.9961,353.92h -6.80315" fill="none" stroke="black"/>
<path d="M63.9961,339.549h -6.80315" fill="none" stroke="black"/>
<path d="M63.9961,325.178h -6.80315" fill="none" stroke="black"/>
<path d="M70.7992,310.807h -13.6063" fill="none" stroke="black"/>
<path d="M63.9961,296.436h -6.80315" fill="none" stroke="black"/>
<path d="M63.9961,282.065h -6.80315" fill="none" stroke="black"/>
<path d="M63.9961,267.694h -6.80315" fill="none" stroke="black"/>
<path d="M70.7992,253.323h -13.6063" fill="none" stroke="black"/>
<path d="M63.9961,238.953h -6.80315" fill="none" stroke="black"/>
<path d="M63.9961,224.582h -6.80315" fill="none" stroke="black"/>
<path d="M63.9961,210.211h -6.80315" fill="none" stroke="black"/>
<path d="M70.7992,195.84h -13.6063" fill="none" stroke="black"/>
<path d="M63.9961,181.469h -6.80315" fill="none" stroke="black"/>
<path d="M63.9961,167.098h -6.80315" fill="none" stroke="black"/>
<path d="M63.9961,152.727h -6.80315" fill="none" stroke="black"/>
<path d="M70.7992,138.356h -13.6063" fill="none" stroke="black"/>
<path d="M63.9961,123.985h -6.80315" fill="none" stroke="black"/>
<path d="M63.9961,109.614h -6.80315" fill="none" stroke="black"/>
<path d="M63.9961,95.2433h -6.80315" fill="none" stroke="black"/>
<path d="M70.7992,80.8724h -13.6063" fill="none" stroke="black"/>
<path d="M70.7992,80.8724h -13.6063" fill="none" stroke="black"/>
<path d="M63.9961,66.5014h -6.80315" fill="none" stroke="black"/>
<path d="M63.9961,52.1305h -6.80315" fill="none" stroke="black"/>
<rect x="442.705" y="26.5988" width="113.386" height="65.4739" fill="white"/>
<path d="M442.705,92.0727h 113.386" fill="none" stroke="black"/>
<path d="M556.091,92.0727v -65.4739" fill="none" stroke="black"/>
<path d="M556.091,26.5988h -113.386" fill="none" stroke="black"/>
<path d="M442.705,26.5988v 65.4739" fill="none" stroke="black"/>
<text xml:space="preserve" x="445.944" y="36.2323" fill="black" font-size="7.38263" font-family="Helvetica">FRAME_ewgvbqxnowfytvkr_copy</text>
<path d="M442.705,42.9673h 113.386" fill="none" stroke="black"/>
<text xml:space="preserve" x="448.076" y="56.1246" fill="black" font-size="13.7601" font-family="Helvetica">Entries </text>
<text xml:space="preserve" x="541.853" y="56.835" fill="black" font-size="13.7601" font-family="Helvetica"> 1</text>
<text xml:space="preserve" x="448.076" y="72.4646" fill="black" font-size="13.7601" font-family="Helvetica">Mean  </text>
<text xml:space="preserve" x="520.54" y="72.4646" fill="black" font-size="13.7601" font-family="Helvetica">      0</text>
<text xml:space="preserve" x="448.076" y="89.5151" fill="black" font-size="13.7601" font-family="Helvetica">Std Dev   </text>
<text xml:space="preserve" x="520.54" y="88.8047" fill="black" font-size="13.7601" font-family="Helvetica">      0</text>
<path d="M208.374,368.291v -327.37h 15.1181v 9.48481h 15.1181v 52.3102h 15.1181v 60.0705h 15.1181v 81.9143h 15.1181v 34.7776h 15.1181v 33.9154h 15.1181v 25.2928h 15.1181v 16.0954h 15.1181v 6.89804h 15.1181v 4.31128h 15.1181v 1.14967h 15.1181v
 1.14967h 30.2362v -0.287418h 15.1181v 0.287418h 75.5906" fill="none" stroke="#ff0000"/>
<path d="M57.1929,368.291h 453.543" fill="none" stroke="black"/>
<path d="M57.1929,358.47v 9.82109" fill="none" stroke="black"/>
<path d="M67.2717,363.38v 4.91054" fill="none" stroke="black"/>
<path d="M77.3504,363.38v 4.91054" fill="none" stroke="black"/>
<path d="M87.4291,363.38v 4.91054" fill="none" stroke="black"/>
<path d="M97.5079,363.38v 4.91054" fill="none" stroke="black"/>
<path d="M107.587,358.47v 9.82109" fill="none" stroke="black"/>
<path d="M117.665,363.38v 4.91054" fill="none" stroke="black"/>
<path d="M127.744,363.38v 4.91054" fill="none" stroke="black"/>
<path d="M137.823,363.38v 4.91054" fill="none" stroke="black"/>
<path d="M147.902,363.38v 4.91054" fill="none" stroke="black"/>
<path d="M157.98,358.47v 9.82109" fill="none" stroke="black"/>
<path d="M168.059,363.38v 4.91054" fill="none" stroke="black"/>
<path d="M178.138,363.38v 4.91054" fill="none" stroke="black"/>
<path d="M188.217,363.38v 4.91054" fill="none" stroke="black"/>
<path d="M198.295,363.38v 4.91054" fill="none" stroke="black"/>
<path d="M208.374,358.47v 9.82109" fill="none" stroke="black"/>
<path d="M218.453,363.38v 4.91054" fill="none" stroke="black"/>
<path d="M228.531,363.38v 4.91054" fill="none" stroke="black"/>
<path d="M238.61,363.38v 4.91054" fill="none" stroke="black"/>
<path d="M248.689,363.38v 4.91054" fill="none" stroke="black"/>
<path d="M258.768,358.47v 9.82109" fill="none" stroke="black"/>
<path d="M268.846,363.38v 4.91054" fill="none" stroke="black"/>
<path d="M278.925,363.38v 4.91054" fill="none" stroke="black"/>
<path d="M289.004,363.38v 4.91054" fill="none" stroke="black"/>
<path d="M299.083,363.38v 4.91054" fill="none" stroke="black"/>
<path d="M309.161,358.47v 9.82109" fill="none" stroke="black"/>
<path d="M319.24,363.38v 4.91054" fill="none" stroke="black"/>
<path d="M329.319,363.38v 4.91054" fill="none" stroke="black"/>
<path d="M339.398,363.38v 4.91054" fill="none" stroke="black"/>
<path d="M349.476,363.38v 4.91054" fill="none" stroke="black"/>
<path d="M359.555,358.47v 9.82109" fill="none" stroke="black"/>
<path d="M369.634,363.38v 4.91054" fill="none" stroke="black"/>
<path d="M379.713,363.38v 4.91054" fill="none" stroke="black"/>
<path d="M389.791,363.38v 4.91054" fill="none" stroke="black"/>
<path d="M399.87,363.38v 4.91054" fill="none" stroke="black"/>
<path d="M409.949,358.47v 9.82109" fill="none" stroke="black"/>
<path d="M420.028,363.38v 4.91054" fill="none" stroke="black"/>
<path d="M430.106,363.38v 4.91054" fill="none" stroke="black"/>
<path d="M440.185,363.38v 4.91054" fill="none" stroke="black"/>
<path d="M450.264,363.38v 4.91054" fill="none" stroke="black"/>
<path d="M460.343,358.47v 9.82109" fill="none" stroke="black"/>
<path d="M470.421,363.38v 4.91054" fill="none" stroke="black"/>
<path d="M480.5,363.38v 4.91054" fill="none" stroke="black"/>
<path d="M490.579,363.38v 4.91054" fill="none" stroke="black"/>
<path d="M500.657,363.38v 4.91054" fill="none" stroke="black"/>
<path d="M510.736,358.47v 9.82109" fill="none" stroke="black"/>
<path d="M57.1929,368.291v -327.37" fill="none" stroke="black"/>
<path d="M70.7992,368.291h -13.6063" fill="none" stroke="black"/>
<path d="M63.9961,353.92h -6.80315" fill="none" stroke="black"/>
<path d="M63.9961,339.549h -6.80315" fill="none" stroke="black"/>
<path d="M63.9961,325.178h -6.80315" fill="none" stroke="black"/>
<path d="M70.7992,310.807h -13.6063" fill="none" stroke="black"/>
<path d="M63.9961,296.436h -6.80315" fill="none" stroke="black"/>
<path d="M63.9961,282.065h -6.80315" fill="none" stroke="black"/>
<path d="M63.9961,267.694h -6.80315" fill="none" stroke="black"/>
<path d="M70.7992,253.323h -13.6063" fill="none" stroke="black"/>
<path d="M63.9961,238.953h -6.80315" fill="none" stroke="black"/>
<path d="M63.9961,224.582h -6.80315" fill="none" stroke="black"/>
<path d="M63.9961,210.211h -6.80315" fill="none" stroke="black"/>
<path d="M70.7992,195.84h -13.6063" fill="none" stroke="black"/>
<path d="M63.9961,181.469h -6.80315" fill="none" stroke="black"/>
<path d="M63.9961,167.098h -6.80315" fill="none" stroke="black"/>
<path d="M63.9961,152.727h -6.80315" fill="none" stroke="black"/>
<path d="M70.7992,138.356h -13.6063" fill="none" stroke="black"/>
<path d="M63.9961,123.985h -6.80315" fill="none" stroke="black"/>
<path d="M63.9961,109.614h -6.80315" fill="none" stroke="black"/>
<path d="M63.9961,95.2433h -6.80315" fill="none" stroke="black"/>
<path d="M70.7992,80.8724h -13.6063" fill="none" stroke="black"/>
<path d="M70.7992,80.8724h -13.6063" fill="none" stroke="black"/>
<path d="M63.9961,66.5014h -6.80315" fill="none" stroke="black"/>
<path d="M63.9961,52.1305h -6.80315" fill="none" stroke="black"/>
<rect x="442.705" y="26.5988" width="113.386" height="65.4739" fill="white"/>
<path d="M442.705,92.0727h 113.386" fill="none" stroke="black"/>
<path d="M556.091,92.0727v -65.4739" fill="none" stroke="black"/>
<path d="M556.091,26.5988h -113.386" fill="none" stroke="black"/>
<path d="M442.705,26.5988v 65.4739" fill="none" stroke="black"/>
<text xml:space="preserve" x="445.944" y="36.2323" fill="black" font-size="7.38263" font-family="Helvetica">FRAME_ewgvbqxnowfytvkr_copy</text>
<path d="M442.705,42.9673h 113.386" fill="none" stroke="black"/>
<text xml:space="preserve" x="448.076" y="56.1246" fill="black" font-size="13.7601" font-family="Helvetica">Entries </text>
<text xml:space="preserve" x="541.853" y="56.835" fill="black" font-size="13.7601" font-family="Helvetica"> 1</text>
<text xml:space="preserve" x="448.076" y="72.4646" fill="black" font-size="13.7601" font-family="Helvetica">Mean  </text>
<text xml:space="preserve" x="516.988" y="72.4646" fill="black" font-size="13.7601" font-family="Helvetica">    1.5</text>
<text xml:space="preserve" x="448.076" y="89.5151" fill="black" font-size="13.7601" font-family="Helvetica">Std Dev   </text>
<text xml:space="preserve" x="520.54" y="88.8047" fill="black" font-size="13.7601" font-family="Helvetica">      0</text></svg>
