<?xml version="1.0" standalone="no"?>
<svg width="567.429" height="409.712" viewBox="0 0 567.429 409.712" xmlns="http://www.w3.org/2000/svg" shape-rendering="crispEdges">
<title>
simple_example_01.svg
</title>
<desc>
Creator: ROOT Version 6.22/00
CreationDate: Fri Mar 19 12:11:51 2021</desc>
<defs>
</defs>
<rect x="0.5" y="0" width="566.929" height="409.212" fill="white"/>
<rect x="0.5" y="0" width="566.929" height="409.212" fill="white"/>
<rect x="57.1929" y="40.9212" width="453.543" height="327.37" fill="white"/>
<rect x="57.1929" y="40.9212" width="453.543" height="327.37" fill="none" stroke="black"/>
<rect x="57.1929" y="40.9212" width="453.543" height="327.37" fill="white"/>
<rect x="57.1929" y="40.9212" width="453.543" height="327.37" fill="none" stroke="black"/>
<path d="M57.1929,368.291h 453.543" fill="none" stroke="black"/>
<path d="M57.1929,358.47v 9.82109" fill="none" stroke="black"/>
<path d="M68.5315,363.38v 4.91054" fill="none" stroke="black"/>
<path d="M79.8701,363.38v 4.91054" fill="none" stroke="black"/>
<path d="M91.2087,363.38v 4.91054" fill="none" stroke="black"/>
<path d="M102.547,363.38v 4.91054" fill="none" stroke="black"/>
<path d="M113.886,358.47v 9.82109" fill="none" stroke="black"/>
<path d="M125.224,363.38v 4.91054" fill="none" stroke="black"/>
<path d="M136.563,363.38v 4.91054" fill="none" stroke="black"/>
<path d="M147.902,363.38v 4.91054" fill="none" stroke="black"/>
<path d="M159.24,363.38v 4.91054" fill="none" stroke="black"/>
<path d="M170.579,358.47v 9.82109" fill="none" stroke="black"/>
<path d="M181.917,363.38v 4.91054" fill="none" stroke="black"/>
<path d="M193.256,363.38v 4.91054" fill="none" stroke="black"/>
<path d="M204.594,363.38v 4.91054" fill="none" stroke="black"/>
<path d="M215.933,363.38v 4.91054" fill="none" stroke="black"/>
<path d="M227.272,358.47v 9.82109" fill="none" stroke="black"/>
<path d="M238.61,363.38v 4.91054" fill="none" stroke="black"/>
<path d="M249.949,363.38v 4.91054" fill="none" stroke="black"/>
<path d="M261.287,363.38v 4.91054" fill="none" stroke="black"/>
<path d="M272.626,363.38v 4.91054" fill="none" stroke="black"/>
<path d="M283.965,358.47v 9.82109" fill="none" stroke="black"/>
<path d="M295.303,363.38v 4.91054" fill="none" stroke="black"/>
<path d="M306.642,363.38v 4.91054" fill="none" stroke="black"/>
<path d="M317.98,363.38v 4.91054" fill="none" stroke="black"/>
<path d="M329.319,363.38v 4.91054" fill="none" stroke="black"/>
<path d="M340.657,358.47v 9.82109" fill="none" stroke="black"/>
<path d="M351.996,363.38v 4.91054" fill="none" stroke="black"/>
<path d="M363.335,363.38v 4.91054" fill="none" stroke="black"/>
<path d="M374.673,363.38v 4.91054" fill="none" stroke="black"/>
<path d="M386.012,363.38v 4.91054" fill="none" stroke="black"/>
<path d="M397.35,358.47v 9.82109" fill="none" stroke="black"/>
<path d="M408.689,363.38v 4.91054" fill="none" stroke="black"/>
<path d="M420.028,363.38v 4.91054" fill="none" stroke="black"/>
<path d="M431.366,363.38v 4.91054" fill="none" stroke="black"/>
<path d="M442.705,363.38v 4.91054" fill="none" stroke="black"/>
<path d="M454.043,358.47v 9.82109" fill="none" stroke="black"/>
<path d="M465.382,363.38v 4.91054" fill="none" stroke="black"/>
<path d="M476.72,363.38v 4.91054" fill="none" stroke="black"/>
<path d="M488.059,363.38v 4.91054" fill="none" stroke="black"/>
<path d="M499.398,363.38v 4.91054" fill="none" stroke="black"/>
<path d="M510.736,358.47v 9.82109" fill="none" stroke="black"/>
<text xml:space="preserve" x="56.6246" y="381.505" fill="black" font-size="13.6398" font-family="Helvetica">4</text>
<text xml:space="preserve" x="48.8097" y="381.505" fill="black" font-size="13.6398" font-family="Times">&#8722;</text>
<text xml:space="preserve" x="113.46" y="381.505" fill="black" font-size="13.6398" font-family="Helvetica">3</text>
<text xml:space="preserve" x="105.645" y="381.505" fill="black" font-size="13.6398" font-family="Times">&#8722;</text>
<text xml:space="preserve" x="170.295" y="381.505" fill="black" font-size="13.6398" font-family="Helvetica">2</text>
<text xml:space="preserve" x="162.48" y="381.505" fill="black" font-size="13.6398" font-family="Times">&#8722;</text>
<text xml:space="preserve" x="227.84" y="381.505" fill="black" font-size="13.6398" font-family="Helvetica">1</text>
<text xml:space="preserve" x="220.736" y="381.505" fill="black" font-size="13.6398" font-family="Times">&#8722;</text>
<text xml:space="preserve" x="280.412" y="381.505" fill="black" font-size="13.6398" font-family="Helvetica">0</text>
<text xml:space="preserve" x="337.247" y="381.505" fill="black" font-size="13.6398" font-family="Helvetica">1</text>
<text xml:space="preserve" x="393.372" y="381.505" fill="black" font-size="13.6398" font-family="Helvetica">2</text>
<text xml:space="preserve" x="450.207" y="381.505" fill="black" font-size="13.6398" font-family="Helvetica">3</text>
<text xml:space="preserve" x="507.042" y="381.505" fill="black" font-size="13.6398" font-family="Helvetica">4</text>
<path d="M57.1929,368.291v -327.37" fill="none" stroke="black"/>
<path d="M70.7992,368.291h -13.6063" fill="none" stroke="black"/>
<path d="M63.9961,355.748h -6.80315" fill="none" stroke="black"/>
<path d="M63.9961,343.205h -6.80315" fill="none" stroke="black"/>
<path d="M63.9961,330.662h -6.80315" fill="none" stroke="black"/>
<path d="M63.9961,318.119h -6.80315" fill="none" stroke="black"/>
<path d="M70.7992,305.576h -13.6063" fill="none" stroke="black"/>
<path d="M63.9961,293.033h -6.80315" fill="none" stroke="black"/>
<path d="M63.9961,280.491h -6.80315" fill="none" stroke="black"/>
<path d="M63.9961,267.948h -6.80315" fill="none" stroke="black"/>
<path d="M63.9961,255.405h -6.80315" fill="none" stroke="black"/>
<path d="M70.7992,242.862h -13.6063" fill="none" stroke="black"/>
<path d="M63.9961,230.319h -6.80315" fill="none" stroke="black"/>
<path d="M63.9961,217.776h -6.80315" fill="none" stroke="black"/>
<path d="M63.9961,205.233h -6.80315" fill="none" stroke="black"/>
<path d="M63.9961,192.69h -6.80315" fill="none" stroke="black"/>
<path d="M70.7992,180.147h -13.6063" fill="none" stroke="black"/>
<path d="M63.9961,167.604h -6.80315" fill="none" stroke="black"/>
<path d="M63.9961,155.062h -6.80315" fill="none" stroke="black"/>
<path d="M63.9961,142.519h -6.80315" fill="none" stroke="black"/>
<path d="M63.9961,129.976h -6.80315" fill="none" stroke="black"/>
<path d="M70.7992,117.433h -13.6063" fill="none" stroke="black"/>
<path d="M63.9961,104.89h -6.80315" fill="none" stroke="black"/>
<path d="M63.9961,92.3471h -6.80315" fill="none" stroke="black"/>
<path d="M63.9961,79.8042h -6.80315" fill="none" stroke="black"/>
<path d="M63.9961,67.2613h -6.80315" fill="none" stroke="black"/>
<path d="M70.7992,54.7184h -13.6063" fill="none" stroke="black"/>
<path d="M70.7992,54.7184h -13.6063" fill="none" stroke="black"/>
<path d="M63.9961,42.1755h -6.80315" fill="none" stroke="black"/>
<text xml:space="preserve" x="46.6784" y="372.98" fill="black" font-size="13.6398" font-family="Helvetica">0</text>
<text xml:space="preserve" x="38.8636" y="310.461" fill="black" font-size="13.6398" font-family="Helvetica">50</text>
<text xml:space="preserve" x="31.7593" y="247.232" fill="black" font-size="13.6398" font-family="Helvetica">100</text>
<text xml:space="preserve" x="31.7593" y="184.714" fill="black" font-size="13.6398" font-family="Helvetica">150</text>
<text xml:space="preserve" x="31.7593" y="122.195" fill="black" font-size="13.6398" font-family="Helvetica">200</text>
<text xml:space="preserve" x="31.7593" y="59.6768" fill="black" font-size="13.6398" font-family="Helvetica">250</text>
<rect x="442.705" y="26.5988" width="113.386" height="65.4739" fill="white"/>
<path d="M442.705,92.0727h 113.386" fill="none" stroke="black"/>
<path d="M556.091,92.0727v -65.4739" fill="none" stroke="black"/>
<path d="M556.091,26.5988h -113.386" fill="none" stroke="black"/>
<path d="M442.705,26.5988v 65.4739" fill="none" stroke="black"/>
<text xml:space="preserve" x="445.944" y="36.9428" fill="black" font-size="8.65546" font-family="Helvetica">FRAME_vlmdsxwvimrzghdc</text>
<path d="M442.705,42.9673h 113.386" fill="none" stroke="black"/>
<text xml:space="preserve" x="448.076" y="56.1246" fill="black" font-size="13.7601" font-family="Helvetica">Entries </text>
<text xml:space="preserve" x="541.853" y="56.835" fill="black" font-size="13.7601" font-family="Helvetica"> 1</text>
<text xml:space="preserve" x="448.076" y="72.4646" fill="black" font-size="13.7601" font-family="Helvetica">Mean  </text>
<text xml:space="preserve" x="520.54" y="72.4646" fill="black" font-size="13.7601" font-family="Helvetica">      0</text>
<text xml:space="preserve" x="448.076" y="89.5151" fill="black" font-size="13.7601" font-family="Helvetica">Std Dev   </text>
<text xml:space="preserve" x="520.54" y="88.8047" fill="black" font-size="13.7601" font-family="Helvetica">      0</text>
<path d="M57.1929,365.782h 7.08661v 2.50858h 21.2598v -1.25429h 7.08661v 1.25429h 7.08661v -1.25429h 7.08661v -5.01716h 7.08661v 2.50858h 7.08661v -7.52574h 14.1732v 6.27145h 7.08661v -8.78003h 7.08661v -6.27145h 7.08661v -7.52574h 7.08661v -15.0515h
 7.08661v -11.2886h 7.08661v 2.50858h 7.08661v -20.0686h 7.08661v -18.8143h 7.08661v -27.5944h 7.08661v -8.78003h 7.08661v -41.3916h 7.08661v -13.7972h 7.08661v -22.5772h 7.08661v -7.52574h 7.08661v -22.5772h 7.08661v -26.3401h 7.08661v -26.3401h
 7.08661v -27.5944h 7.08661v 22.5772h 7.08661v -23.8315h 7.08661v 31.3572h 7.08661v -42.6458h 7.08661v 27.5944h 7.08661v 15.0515h 7.08661v 58.9516h 7.08661v -22.5772h 7.08661v 10.0343h 7.08661v 37.6287h 7.08661v -1.25429h 7.08661v 55.1887h 7.08661v
 26.3401h 7.08661v 18.8143h 7.08661v -15.0515h 7.08661v 46.4087h 7.08661v -1.25429h 7.08661v 30.103h 7.08661v 3.76287h 7.08661v 3.76287h 7.08661v 7.52574h 7.08661v 8.78003h 7.08661v 2.50858h 7.08661v 5.01716h 7.08661v 3.76287h 14.1732v 5.01716h
 7.08661v 1.25429h 14.1732v -3.76287h 7.08661v 3.76287h 7.08661v -1.25429h 14.1732v 1.25429h 7.08661" fill="none" stroke="#000099"/>
<path d="M57.1929,368.291h 453.543" fill="none" stroke="black"/>
<path d="M57.1929,358.47v 9.82109" fill="none" stroke="black"/>
<path d="M68.5315,363.38v 4.91054" fill="none" stroke="black"/>
<path d="M79.8701,363.38v 4.91054" fill="none" stroke="black"/>
<path d="M91.2087,363.38v 4.91054" fill="none" stroke="black"/>
<path d="M102.547,363.38v 4.91054" fill="none" stroke="black"/>
<path d="M113.886,358.47v 9.82109" fill="none" stroke="black"/>
<path d="M125.224,363.38v 4.91054" fill="none" stroke="black"/>
<path d="M136.563,363.38v 4.91054" fill="none" stroke="black"/>
<path d="M147.902,363.38v 4.91054" fill="none" stroke="black"/>
<path d="M159.24,363.38v 4.91054" fill="none" stroke="black"/>
<path d="M170.579,358.47v 9.82109" fill="none" stroke="black"/>
<path d="M181.917,363.38v 4.91054" fill="none" stroke="black"/>
<path d="M193.256,363.38v 4.91054" fill="none" stroke="black"/>
<path d="M204.594,363.38v 4.91054" fill="none" stroke="black"/>
<path d="M215.933,363.38v 4.91054" fill="none" stroke="black"/>
<path d="M227.272,358.47v 9.82109" fill="none" stroke="black"/>
<path d="M238.61,363.38v 4.91054" fill="none" stroke="black"/>
<path d="M249.949,363.38v 4.91054" fill="none" stroke="black"/>
<path d="M261.287,363.38v 4.91054" fill="none" stroke="black"/>
<path d="M272.626,363.38v 4.91054" fill="none" stroke="black"/>
<path d="M283.965,358.47v 9.82109" fill="none" stroke="black"/>
<path d="M295.303,363.38v 4.91054" fill="none" stroke="black"/>
<path d="M306.642,363.38v 4.91054" fill="none" stroke="black"/>
<path d="M317.98,363.38v 4.91054" fill="none" stroke="black"/>
<path d="M329.319,363.38v 4.91054" fill="none" stroke="black"/>
<path d="M340.657,358.47v 9.82109" fill="none" stroke="black"/>
<path d="M351.996,363.38v 4.91054" fill="none" stroke="black"/>
<path d="M363.335,363.38v 4.91054" fill="none" stroke="black"/>
<path d="M374.673,363.38v 4.91054" fill="none" stroke="black"/>
<path d="M386.012,363.38v 4.91054" fill="none" stroke="black"/>
<path d="M397.35,358.47v 9.82109" fill="none" stroke="black"/>
<path d="M408.689,363.38v 4.91054" fill="none" stroke="black"/>
<path d="M420.028,363.38v 4.91054" fill="none" stroke="black"/>
<path d="M431.366,363.38v 4.91054" fill="none" stroke="black"/>
<path d="M442.705,363.38v 4.91054" fill="none" stroke="black"/>
<path d="M454.043,358.47v 9.82109" fill="none" stroke="black"/>
<path d="M465.382,363.38v 4.91054" fill="none" stroke="black"/>
<path d="M476.72,363.38v 4.91054" fill="none" stroke="black"/>
<path d="M488.059,363.38v 4.91054" fill="none" stroke="black"/>
<path d="M499.398,363.38v 4.91054" fill="none" stroke="black"/>
<path d="M510.736,358.47v 9.82109" fill="none" stroke="black"/>
<path d="M57.1929,368.291v -327.37" fill="none" stroke="black"/>
<path d="M70.7992,368.291h -13.6063" fill="none" stroke="black"/>
<path d="M63.9961,355.748h -6.80315" fill="none" stroke="black"/>
<path d="M63.9961,343.205h -6.80315" fill="none" stroke="black"/>
<path d="M63.9961,330.662h -6.80315" fill="none" stroke="black"/>
<path d="M63.9961,318.119h -6.80315" fill="none" stroke="black"/>
<path d="M70.7992,305.576h -13.6063" fill="none" stroke="black"/>
<path d="M63.9961,293.033h -6.80315" fill="none" stroke="black"/>
<path d="M63.9961,280.491h -6.80315" fill="none" stroke="black"/>
<path d="M63.9961,267.948h -6.80315" fill="none" stroke="black"/>
<path d="M63.9961,255.405h -6.80315" fill="none" stroke="black"/>
<path d="M70.7992,242.862h -13.6063" fill="none" stroke="black"/>
<path d="M63.9961,230.319h -6.80315" fill="none" stroke="black"/>
<path d="M63.9961,217.776h -6.80315" fill="none" stroke="black"/>
<path d="M63.9961,205.233h -6.80315" fill="none" stroke="black"/>
<path d="M63.9961,192.69h -6.80315" fill="none" stroke="black"/>
<path d="M70.7992,180.147h -13.6063" fill="none" stroke="black"/>
<path d="M63.9961,167.604h -6.80315" fill="none" stroke="black"/>
<path d="M63.9961,155.062h -6.80315" fill="none" stroke="black"/>
<path d="M63.9961,142.519h -6.80315" fill="none" stroke="black"/>
<path d="M63.9961,129.976h -6.80315" fill="none" stroke="black"/>
<path d="M70.7992,117.433h -13.6063" fill="none" stroke="black"/>
<path d="M63.9961,104.89h -6.80315" fill="none" stroke="black"/>
<path d="M63.9961,92.3471h -6.80315" fill="none" stroke="black"/>
<path d="M63.9961,79.8042h -6.80315" fill="none" stroke="black"/>
<path d="M63.9961,67.2613h -6.80315" fill="none" stroke="black"/>
<path d="M70.7992,54.7184h -13.6063" fill="none" stroke="black"/>
<path d="M70.7992,54.7184h -13.6063" fill="none" stroke="black"/>
<path d="M63.9961,42.1755h -6.80315" fill="none" stroke="black"/>
<rect x="442.705" y="26.5988" width="113.386" height="65.4739" fill="white"/>
<path d="M442.705,92.0727h 113.386" fill="none" stroke="black"/>
<path d="M556.091,92.0727v -65.4739" fill="none" stroke="black"/>
<path d="M556.091,26.5988h -113.386" fill="none" stroke="black"/>
<path d="M442.705,26.5988v 65.4739" fill="none" stroke="black"/>
<text xml:space="preserve" x="445.234" y="36.2323" fill="black" font-size="7.29604" font-family="Helvetica">FRAME_vlmdsxwvimrzghdc_copy</text>
<path d="M442.705,42.9673h 113.386" fill="none" stroke="black"/>
<text xml:space="preserve" x="448.076" y="56.1246" fill="black" font-size="13.7601" font-family="Helvetica">Entries </text>
<text xml:space="preserve" x="541.853" y="56.835" fill="black" font-size="13.7601" font-family="Helvetica"> 1</text>
<text xml:space="preserve" x="448.076" y="72.4646" fill="black" font-size="13.7601" font-family="Helvetica">Mean  </text>
<text xml:space="preserve" x="520.54" y="72.4646" fill="black" font-size="13.7601" font-family="Helvetica">      0</text>
<text xml:space="preserve" x="448.076" y="89.5151" fill="black" font-size="13.7601" font-family="Helvetica">Std Dev   </text>
<text xml:space="preserve" x="520.54" y="88.8047" fill="black" font-size="13.7601" font-family="Helvetica">      0</text></svg>
